<svg width="115" height="20" viewBox="0 0 115 20" fill="none" xmlns="http://www.w3.org/2000/svg">
<path d="M48.8658 5.06946C49.514 5.8102 49.838 6.85187 49.838 8.19446V15.5093H45.5788V8.70372C45.5788 8.21761 45.463 7.82409 45.2315 7.54631C45.0001 7.24539 44.676 7.1065 44.2362 7.1065C43.7269 7.1065 43.3334 7.26854 43.0093 7.61576C42.6852 7.96298 42.5464 8.37965 42.5464 8.86576V15.4861H38.2871V8.70372C38.2871 8.21761 38.1714 7.82409 37.9399 7.54631C37.7084 7.24539 37.3843 7.1065 36.9445 7.1065C36.4352 7.1065 36.0417 7.26854 35.7176 7.61576C35.3936 7.96298 35.2547 8.37965 35.2547 8.86576V15.4861H30.9954V4.21298H34.4676L34.7454 5.9028C35.1621 5.30094 35.7408 4.83798 36.4352 4.49076C37.1297 4.14354 37.8936 3.95835 38.6575 3.95835C40.3473 3.95835 41.4815 4.6065 42.0834 5.9028C42.5232 5.30094 43.1019 4.83798 43.7732 4.49076C44.4677 4.14354 45.1852 3.95835 45.9491 3.95835C47.2686 3.95835 48.2177 4.32872 48.8658 5.06946Z" fill="#354F52"/>
<path d="M52.5232 15.5093V0.0231495H56.7825V15.5093H52.5232Z" fill="#354F52"/>
<path d="M65.463 18.7731C64.6065 19.5833 63.426 20 61.8982 20C60.9723 20 60.1621 19.8611 59.4445 19.6064V17.0602H61.1575C62.2223 17.0602 62.8704 16.5509 63.0556 15.5092L58.5649 4.21293H63.1482L65.301 11.7129H65.4399L67.4306 4.21293H71.6204L67.5927 15.162C67.0371 16.7361 66.3195 17.9398 65.463 18.7731Z" fill="#354F52"/>
<path d="M80.4398 4.21297V7.10649H78.0556V11.412C78.0556 11.9213 78.1481 12.2917 78.3102 12.5232C78.4722 12.7546 78.7963 12.8704 79.2593 12.8704H80.463V15.3704C80.1157 15.4861 79.6759 15.5787 79.1435 15.6482C78.6111 15.7176 78.125 15.7639 77.7315 15.7639C76.4815 15.7639 75.5092 15.5324 74.838 15.0694C74.1667 14.6065 73.8194 13.8426 73.8194 12.7315V7.10649H72.2454V4.21297H74.0046L74.9305 0.787043H78.1018V4.21297H80.4398Z" fill="#354F52"/>
<path d="M82.5463 2.89352V0.0231495H86.8055V2.91667H82.5463V2.89352ZM82.5463 15.5093V4.21296H86.8055V15.4861H82.5463V15.5093Z" fill="#354F52"/>
<path d="M99.838 5.16205C100.995 5.94909 101.551 7.1528 101.551 8.77317H97.4306C97.4306 7.50002 96.7361 6.85187 95.3472 6.85187C93.9584 6.85187 93.2639 7.66205 93.2639 9.25928V10.4861C93.2639 12.0833 93.9815 12.8704 95.4398 12.8704C96.8982 12.8704 97.6158 12.2222 97.6158 10.9028H101.574C101.574 12.5463 100.995 13.75 99.8611 14.5602C98.7037 15.3472 97.2222 15.7639 95.3704 15.7639C93.3797 15.7639 91.8287 15.2546 90.7176 14.2593C89.5834 13.2639 89.0278 11.8056 89.0278 9.86113C89.0278 7.91668 89.5834 6.45835 90.7176 5.46298C91.8519 4.46761 93.4028 3.95835 95.3704 3.95835C97.1991 3.95835 98.7037 4.35187 99.838 5.16205Z" fill="#354F52"/>
<path d="M112.963 4.86109C114.005 5.46294 114.537 6.36572 114.537 7.61572H110.579C110.579 7.19905 110.394 6.92127 110.023 6.73609C109.769 6.5972 109.444 6.52775 109.051 6.52775C108.032 6.52775 107.523 6.75924 107.523 7.24535C107.523 7.52312 107.708 7.70831 108.056 7.82405C108.403 7.93979 109.005 8.05553 109.815 8.19442C110.81 8.33331 111.644 8.49535 112.315 8.70368C112.986 8.88886 113.565 9.23609 114.074 9.7222C114.583 10.2083 114.815 10.9028 114.815 11.7824C114.815 13.2176 114.282 14.2361 113.194 14.8611C112.13 15.4629 110.718 15.787 108.982 15.787C107.986 15.787 107.037 15.6481 106.157 15.3703C105.278 15.0926 104.56 14.6528 104.005 14.074C103.449 13.4953 103.171 12.7546 103.171 11.8518H107.13V11.9444C107.153 12.4305 107.338 12.7778 107.732 12.9629C108.125 13.1481 108.542 13.2407 108.982 13.2407C110.162 13.2407 110.764 12.9629 110.764 12.4074C110.764 12.1296 110.579 11.9213 110.208 11.7824C109.838 11.6435 109.236 11.5278 108.403 11.3657C107.384 11.2037 106.551 11.0185 105.903 10.8102C105.255 10.6018 104.699 10.2778 104.213 9.79164C103.727 9.30553 103.495 8.65738 103.495 7.8009C103.495 6.41201 104.028 5.43979 105.069 4.86109C106.111 4.28238 107.477 3.98146 109.167 3.98146C110.648 3.95831 111.921 4.25924 112.963 4.86109Z" fill="#354F52"/>
<path d="M23.7732 12.3612C23.7732 14.0973 22.3611 15.5093 20.625 15.5093H16.875C15.9259 15.5093 15.162 14.7454 15.162 13.7963C15.162 12.8473 15.9259 12.0834 16.875 12.0834H23.4722C23.6343 12.0602 23.7732 12.1991 23.7732 12.3612Z" fill="#A3B18A"/>
<path d="M23.4722 6.2037H16.875C15.9259 6.2037 15.162 6.96759 15.162 7.91666C15.162 8.86574 15.9259 9.62963 16.875 9.62963H20.6019C22.338 9.62963 23.75 8.21759 23.75 6.48148C23.7732 6.34259 23.6343 6.2037 23.4722 6.2037Z" fill="#588157"/>
<path d="M22.3843 0H13.7732C13.1945 0 12.6852 0.300926 12.3611 0.740741L7.75463 7.33796L3.125 0.740741C2.82408 0.300926 2.31482 0 1.71296 0C0.763889 0 0 0.787037 0 1.73611V13.7963C0 14.7454 0.763889 15.5093 1.71296 15.5093C2.66204 15.5093 3.42593 14.7454 3.42593 13.7963V7.19907L6.2963 11.2963L6.31945 11.3426C6.62037 11.7824 7.15278 12.0833 7.73149 12.0833C8.31019 12.0833 8.81945 11.7824 9.14352 11.3426L9.16667 11.2963L14.1435 4.18981C14.1667 4.16667 14.1898 4.14352 14.1898 4.12037C14.1898 4.12037 14.1898 4.09722 14.213 4.09722C14.5139 3.72685 14.9537 3.47222 15.4861 3.47222H22.3843C23.3333 3.47222 24.0972 2.70833 24.0972 1.75926C24.1204 0.787037 23.3333 0 22.3843 0Z" fill="#354F52"/>
</svg>
