<svg width="294" height="50" viewBox="0 0 294 50" fill="none" xmlns="http://www.w3.org/2000/svg">
<mask id="mask0_1_227" style="mask-type:luminance" maskUnits="userSpaceOnUse" x="0" y="0" width="188" height="50">
<path d="M187.5 0.45575H0V49.2839H187.5V0.45575Z" fill="white"/>
</mask>
<g mask="url(#mask0_1_227)">
<path d="M167.305 22.2043H174.253L177.783 33.979L181.055 22.2043H187.52L180.733 41.1048C179.961 43.2546 179.172 44.7093 178.364 45.4689C177.225 46.5336 175.491 47.0659 173.159 47.0659C171.689 47.0223 170.22 46.8882 168.766 46.6641L168.247 41.939C169.272 42.2599 170.337 42.4159 171.406 42.4019C172.07 42.4362 172.728 42.2433 173.277 41.8526C173.859 41.3351 174.284 40.6532 174.502 39.8892L167.305 22.2043Z" fill="white"/>
<path d="M161.036 29.6459C160.909 28.3301 160.572 27.3876 160.025 26.8179C159.745 26.5302 159.412 26.3059 159.047 26.1587C158.68 26.0118 158.289 25.9452 157.897 25.9634C157.419 25.9522 156.945 26.0643 156.52 26.2898C156.094 26.5152 155.728 26.8469 155.455 27.2552C155.007 27.9688 154.751 28.7943 154.713 29.6459H161.036ZM167.569 32.8604H154.722C154.755 33.7553 155.037 34.621 155.533 35.3526C155.827 35.7284 156.2 36.028 156.623 36.2284C157.047 36.4288 157.509 36.5241 157.975 36.5072C158.606 36.5035 159.225 36.328 159.772 35.9986C160.208 35.7077 160.589 35.3352 160.894 34.8999L167.187 35.4442C166.403 37.056 165.2 38.4071 163.717 39.3453C162.35 40.1117 160.397 40.4965 157.858 40.4999C155.634 40.4999 153.887 40.1709 152.618 39.5132C151.294 38.7924 150.194 37.6954 149.444 36.3495C148.589 34.7867 148.159 33.0108 148.199 31.2124C148.199 28.4302 149.019 26.233 150.689 24.5189C152.359 22.8049 154.683 21.9198 157.642 21.9198C160.039 21.9198 161.959 22.3064 163.345 23.0744C164.711 23.8205 165.82 24.99 166.519 26.4211C167.309 28.2092 167.683 30.1662 167.608 32.133L167.569 32.8604Z" fill="white"/>
<path d="M128.487 22.2045H134.522V25.3479C135.291 24.2775 136.259 23.3798 137.368 22.708C138.429 22.1586 139.603 21.8912 140.786 21.9299C142.603 21.9299 144.022 22.4978 145.044 23.6337C146.066 24.7697 146.582 26.5108 146.592 28.8573V40.2352H140.03V30.3985C140.03 29.2795 139.795 28.4758 139.4 28.0181C139.188 27.7774 138.927 27.5886 138.637 27.4654C138.346 27.3423 138.033 27.2878 137.72 27.306C137.346 27.2933 136.975 27.3723 136.635 27.5367C136.296 27.7009 135.999 27.946 135.767 28.252C135.275 28.8827 135.03 30.0119 135.03 31.6395V40.2352H128.487V22.2045Z" fill="white"/>
<path d="M114.346 31.2518C114.346 32.8387 114.652 34.0103 115.264 34.7664C115.547 35.1301 115.905 35.422 116.312 35.6203C116.719 35.8185 117.164 35.918 117.613 35.9108C118.057 35.9214 118.498 35.8255 118.901 35.6307C119.304 35.4357 119.658 35.147 119.937 34.7868C120.548 34.0391 120.855 32.8438 120.855 31.1908C120.855 29.6514 120.549 28.5068 119.937 27.7575C119.666 27.3999 119.32 27.1118 118.926 26.915C118.532 26.7184 118.099 26.6187 117.662 26.6232C117.208 26.6115 116.758 26.7098 116.347 26.9102C115.936 27.1105 115.576 27.4076 115.294 27.7778C114.662 28.534 114.346 29.6921 114.346 31.2518ZM107.769 31.2518C107.732 30.0052 107.948 28.7645 108.403 27.6108C108.859 26.4574 109.543 25.4172 110.411 24.5583C112.172 22.7983 114.553 21.9168 117.555 21.9134C120.982 21.9134 123.573 22.946 125.328 25.0109C126.777 26.8475 127.525 29.1756 127.429 31.5506C127.334 33.9255 126.401 36.1803 124.81 37.8843C123.072 39.6205 120.66 40.4885 117.574 40.4885C114.82 40.4885 112.594 39.7629 110.894 38.3115C109.887 37.4684 109.08 36.3937 108.538 35.1714C107.996 33.9492 107.733 32.6128 107.769 31.2671V31.2518Z" fill="white"/>
<path d="M80.4931 15.6478H89.9316L93.6524 30.5353L97.2753 15.6478H106.719V40.2347H100.869L100.815 21.5225L96.2988 40.2347H90.957L86.3916 21.5225L86.4014 40.2347H80.4931V15.6478Z" fill="white"/>
<path d="M72.8375 30.1538L79.1852 32.1426C78.8342 33.8148 78.1469 35.3906 77.1686 36.766C76.2734 37.9832 75.0978 38.9455 73.7506 39.5633C72.1024 40.243 70.3366 40.5583 68.565 40.4891C66.013 40.4891 63.9247 40.1076 62.3005 39.3447C60.5561 38.4437 59.1045 37.0288 58.1256 35.2757C56.9505 33.3429 56.363 30.8693 56.363 27.8548C56.363 23.8333 57.3931 20.7459 59.4538 18.5928C61.5142 16.4395 64.4439 15.3561 68.2428 15.3426C71.1953 15.3426 73.5163 15.9614 75.2056 17.1991C76.8952 18.4367 78.1549 20.3372 78.985 22.9007L72.5788 24.3758C72.4291 23.7977 72.1917 23.2482 71.8756 22.7482C71.4952 22.1924 70.9931 21.7389 70.4108 21.4258C69.428 20.9359 68.31 20.8265 67.2569 21.1174C66.2038 21.4082 65.2844 22.0801 64.6638 23.0127C63.9997 24.03 63.6872 25.627 63.6872 27.8039C63.6872 30.4997 64.0809 32.3493 64.8688 33.353C65.2756 33.8524 65.7881 34.2468 66.3659 34.5054C66.9436 34.764 67.5709 34.8796 68.1989 34.8433C69.5888 34.8433 70.6353 34.4398 71.3384 33.6328C72.1241 32.6312 72.6413 31.431 72.8375 30.1538Z" fill="white"/>
<path d="M19.8924 15.4507L13.7302 23.0954H6.62079L14.2038 15.4507H19.8924Z" fill="white"/>
<path d="M36.0739 23.0954L29.9119 15.4507H35.6003L43.1833 23.0954H36.0739Z" fill="white"/>
<path d="M36.1088 24.9811H43.1839L28.5598 45.6314L36.1088 24.9811Z" fill="white"/>
<path d="M27.525 15.4507L33.6041 23.0954H16.2017L22.2809 15.4507H27.525Z" fill="white"/>
<path d="M13.7302 24.9811L21.2449 45.6314L6.62079 24.9811H13.7302Z" fill="white"/>
<path d="M24.903 49.2832L16.2017 24.9811H33.6041L24.903 49.2832Z" fill="white"/>
<path d="M28.1545 7.07815L26.7386 4.19416L24.9027 0.45575L23.0667 4.19416L21.6506 7.07815C23.8078 6.7593 25.9975 6.7593 28.1545 7.07815Z" fill="white"/>
<path d="M13.9252 6.72139L10.5072 4.43259L10.7269 8.61852L10.8978 11.8483C12.6125 10.4507 14.512 9.31823 16.5375 8.48636L13.9252 6.72139Z" fill="white"/>
<path d="M4.05761 15.527L0 15.298L2.22167 18.8076L3.93066 21.5085C4.73777 19.4178 5.8333 17.4611 7.18262 15.6999L4.05761 15.527Z" fill="white"/>
<path d="M49.805 15.298L45.7473 15.527L42.6223 15.6999C43.9717 17.4611 45.0672 19.4178 45.8744 21.5085L47.5833 18.8076L49.805 15.298Z" fill="white"/>
<path d="M39.0583 8.61852L39.278 4.43259L35.86 6.72139L33.2428 8.48636C35.2631 9.31953 37.1576 10.4519 38.8678 11.8483L39.0583 8.61852Z" fill="white"/>
</g>
<path d="M212.625 15.4297V31.2175H219.031V34.2123H212.281V37.3698H219.031V40.3972H211.094V43.6849H230.063V40.3972H222.281V37.3698H229V34.2123H222.281V31.2175H228.625V15.4297H212.625ZM225.5 28.2227H222.281V24.7722H225.5V28.2227ZM219.031 28.2227H215.75V24.7722H219.031V28.2227ZM215.75 21.875V18.4245H219.031V21.875H215.75ZM222.281 18.4245H225.5V21.875H222.281V18.4245ZM201.906 26.1068V29.362H204.875V36.5235C203.656 36.849 202.406 37.1094 201.125 37.3373L201.938 40.5925C205.188 39.7787 208.25 38.8021 211.125 37.6302V34.3425C210.156 34.7656 209.188 35.1563 208.188 35.5143V29.362H211.219V26.1068H208.188V19.4662H211.594V16.2435H201.437V19.4662H204.875V26.1068H201.906ZM253 23.4701C251.312 29.0039 248.656 33.5287 245.031 37.0443L246.781 40.1042C250.281 36.3281 252.937 31.6732 254.687 26.1393V39.7461C254.687 40.7878 254.25 41.3412 253.375 41.3412C252.344 41.3412 251.281 41.2435 250.156 41.1133L250.813 44.2383H254.437C256.687 44.2383 257.812 43.0013 257.812 40.5599V23.4701H261.25V20.3776H257.812V14.6159H254.687V20.3776H246.531V23.4701H253ZM234.094 15.4297V36.0026H245.375V15.4297H234.094ZM242.219 33.0078H237.25V29.9479H242.219V33.0078ZM237.25 27.1485V24.2188H242.219V27.1485H237.25ZM237.25 21.4193V18.4245H242.219V21.4193H237.25ZM243.062 36.4909L240.687 38.0534C242.031 40.1042 243.094 41.9922 243.906 43.6849L246.375 41.8946C245.594 40.3646 244.5 38.5742 243.062 36.4909ZM236.219 36.849C235.375 38.7696 234.25 40.7227 232.844 42.7409L235.531 44.2058C236.875 42.2526 237.969 40.2344 238.844 38.1511L236.219 36.849ZM280.781 21.875H282.781V22.8516H279.906C280.219 22.5912 280.5 22.2656 280.781 21.875ZM279.094 22.8516H277.594V24.9675H282.781V26.4323H280.906V25.4883H278.312V28.3203H290.188V25.4883H287.625V26.4323H285.75V24.9675H290.625V22.8516H285.75V21.875H288.969V21.1589H291.719V16.0156H279.781C279.5 15.2995 279.219 14.681 278.969 14.1276L275.688 14.7136C275.938 15.1042 276.187 15.5274 276.437 16.0156H264.812V21.1589H266.563V21.7123H270.281V22.7539H267.156V24.9024H270.281V26.0742L265.906 26.1719L266.219 28.5482C271.344 28.3854 274.938 28.2227 277.031 28.0274V25.7813C275.906 25.8464 274.594 25.9115 273.094 25.9766V24.9024H276.187V22.7539H273.094V21.7123H276.938V19.4987H267.812V18.4896H288.687V19.8568H281.781C281.844 19.6615 281.906 19.4011 281.969 19.1406L279.594 18.7175C279.281 19.9544 278.594 20.9636 277.562 21.7123L279.094 22.8516ZM268.25 29.2643V40.8203H272.937C270.75 41.4714 267.812 42.0248 264.125 42.4805L265.406 44.7917C269.844 44.1407 273.219 43.3268 275.594 42.3177L274.5 40.8203H281.656L280.812 42.4479C284.437 43.0013 287.937 43.7826 291.25 44.7591L292.25 42.3177C289.594 41.6667 286.812 41.1784 283.906 40.8203H288.406V29.2643H268.25ZM285.313 38.5742H271.344V37.3698H285.313V38.5742ZM271.344 35.4492V34.3099H285.313V35.4492H271.344ZM271.344 32.3893V31.3477H285.313V32.3893H271.344Z" fill="white"/>
</svg>
