<svg width="123" height="50" viewBox="0 0 123 50" fill="none" xmlns="http://www.w3.org/2000/svg">
<g clip-path="url(#clip0_1_183)">
<path d="M91.0256 39.7436H110.897L103.333 42.0513V46.5385C103.333 47.3077 102.821 47.6923 102.051 47.6923C100.769 47.6923 98.5897 47.5641 96.7949 47.4359L97.5641 49.8718C98.9744 50 100.513 50 102.179 50C104.872 50 106.282 48.8462 106.282 46.6667V43.4615L117.308 39.6154V37.5641H91.0256V39.7436Z" fill="black"/>
<path d="M114.872 28.9744H94.4871C94.1025 28.9744 93.8461 29.2308 93.8461 29.6154V35.1282C93.8461 35.5128 94.1025 35.7692 94.4871 35.7692L114.872 35.8974C115.256 35.8974 115.513 35.641 115.513 35.2564V29.6154C115.513 29.2308 115.256 28.9744 114.872 28.9744ZM112.82 33.718H96.6666V31.0256H112.82V33.718Z" fill="black"/>
<path d="M106.026 21.2821H103.333V25H90.1282V27.1795H119.359V25H106.026V21.2821Z" fill="black"/>
<path d="M60.1282 38.2051L57.8205 38.718C58.2051 40.2564 58.7179 42.3077 59.1025 44.6154L61.4102 44.1026C60.8974 41.9231 60.5128 40 60.1282 38.2051Z" fill="black"/>
<path d="M68.3333 30.5128L70.2564 28.7179C68.5897 26.6667 66.9231 24.7436 65.1282 22.8205L65.3846 21.9231L63.0769 21.1538C61.5384 23.9744 59.6154 26.5385 57.0513 28.7179L58.2051 31.0256C58.7179 30.641 59.2308 30.1282 59.7436 29.6154V31.1538H62.1795V33.9744H57.8205V36.1538H62.1795V45.641L57.1795 46.4102L57.6923 48.7179L69.2308 46.9231L69.4872 44.6154L64.6154 45.3846V36.1538H69.1026V33.9744H64.6154V31.1538H67.0513V28.9744H60.641C61.9231 27.6923 62.9487 26.282 63.7179 24.6154C65.3846 26.6667 66.9231 28.5897 68.3333 30.5128Z" fill="black"/>
<path d="M65.3846 43.718L67.6923 44.359C68.2051 42.5641 68.8461 40.7692 69.359 38.718L67.0513 38.2051C66.6667 40 66.0256 41.9231 65.3846 43.718Z" fill="black"/>
<path d="M73.3334 46.5385V40.7692H84.2308C84.6154 40.7692 84.8718 40.5128 84.8718 40.1282V31.282C84.8718 30.8974 84.6154 30.641 84.2308 30.641H73.3334V25.2564H86.2821V22.9487H71.4103C71.0257 22.9487 70.7693 23.2051 70.7693 23.5897V48.2051C70.7693 48.5897 71.0257 48.8462 71.4103 48.8462H86.5385V46.5385H73.3334ZM73.3334 32.6923H82.3077V38.4615H73.3334V32.6923Z" fill="black"/>
<path d="M66.0256 0.512814V2.17948C65 0.641019 63.2051 -0.256417 61.4102 -6.36555e-06C56.9231 -6.36555e-06 53.3333 3.58974 53.4615 8.07692V8.46153C53.4615 13.0769 56.4102 16.9231 61.4102 16.9231C63.3333 17.1795 65.1282 16.282 66.0256 14.7436V16.4103H70.7692V0.512814H66.0256ZM66.1538 8.46153C66.282 10.641 64.6154 12.5641 62.4359 12.6923C60.2564 12.8205 58.3333 11.1538 58.2051 8.97435V8.46153C58.0769 6.28205 59.7436 4.35897 61.9231 4.23076C64.1025 4.10256 66.0256 5.76922 66.1538 7.94871V8.46153Z" fill="black"/>
<path d="M81.7948 1.46322e-06C79.9999 -0.128204 78.3333 0.769232 77.4358 2.17949V0.512822H72.9487V16.4103H77.6923V7.82051C77.6923 6.79487 77.6923 4.48718 80.3846 4.48718C82.9487 4.48718 82.9487 6.66667 82.9487 7.82051V16.5385H87.6923V6.53846C87.6923 3.46154 86.6666 2.17949 85.8974 1.41026C84.7435 0.512822 83.2051 1.46322e-06 81.7948 1.46322e-06Z" fill="black"/>
<path d="M95.641 16.9231C97.3077 17.0513 98.9744 16.282 99.7436 14.7436V16.4103H104.231V0.512817H99.4872V9.23077C99.4872 11.7949 98.2051 12.4359 96.7949 12.4359C94.2308 12.4359 94.2308 10.3846 94.2308 9.23077V0.512817H89.4872V10C89.2308 11.7949 89.8718 13.5897 91.0256 14.8718C92.1795 16.282 93.8462 17.0513 95.641 16.9231Z" fill="black"/>
<path d="M122.82 8.71795C122.949 3.97436 119.231 0.128205 114.615 0H114.359C109.615 0.25641 106.026 4.23077 106.282 8.84615C106.538 13.3333 110 16.7949 114.487 16.9231C116.154 16.9231 117.692 16.4103 118.974 15.5128C120.385 14.4872 121.538 13.0769 122.179 11.4103H117.308C116.667 12.3077 115.513 12.9487 114.487 12.9487C112.692 13.0769 111.026 11.7949 110.769 10H122.692C122.82 9.61539 122.82 9.10256 122.82 8.71795ZM110.769 6.66667C111.282 4.61538 113.462 3.46154 115.385 4.10256C116.667 4.48718 117.564 5.38462 117.949 6.66667H110.769Z" fill="black"/>
<path d="M31.282 49.2308H26.6667C26.6667 37.0513 36.5385 27.1795 48.7179 27.1795V31.7949C39.1026 31.7949 31.282 39.6154 31.282 49.2308Z" fill="#FFB43E"/>
<path d="M21.282 49.2308H16.6667C16.6667 31.5385 31.0256 17.1795 48.7179 17.0513V21.7949C33.5897 21.7949 21.282 34.1026 21.282 49.2308Z" fill="#E03F19"/>
<path d="M4.35897 49.2308H0C0 22.3077 21.7949 0.512817 48.718 0.512817V4.87179C24.2308 5 4.48718 24.7436 4.35897 49.2308Z" fill="#54B5C6"/>
</g>
<defs>
<clipPath id="clip0_1_183">
<rect width="122.821" height="50" fill="white"/>
</clipPath>
</defs>
</svg>
