<svg width="218" height="50" viewBox="0 0 218 50" fill="none" xmlns="http://www.w3.org/2000/svg">
<path d="M129.59 0.320221H128.063C127.936 0.320221 127.865 0.467608 127.951 0.564172L129.59 2.45988V3.39502H117.401V8.30456H129.59V33.0758H134.909V0.320221H129.59Z" fill="#003880"/>
<path d="M122.009 9.55469L118.056 18.6165H122.054L123.45 15.4147L124.739 18.6216H128.738L126.88 13.9814H124.074L126.008 9.55469H122.009Z" fill="#003880"/>
<path d="M141.114 15.4147L142.403 18.6216H146.403L144.545 13.9814H141.744L143.672 9.55469H139.679L135.725 18.6165H139.719L141.114 15.4147Z" fill="#003880"/>
<path d="M116.138 31.4392H123.12L129.59 20.4055H122.608L116.138 31.4392Z" fill="#003880"/>
<path d="M134.914 20.4055L141.384 31.4392H148.361L141.891 20.4055H134.914Z" fill="#003880"/>
<path d="M147.58 3.39497H136.193V8.30449H147.58V3.39497Z" fill="#003880"/>
<path d="M81.8687 31.8967H88.8564L95.0934 21.2493H88.1158L81.8687 31.8967Z" fill="#003880"/>
<path d="M100.457 21.2493V0.320221H93.6165C93.4897 0.320221 93.4187 0.467608 93.505 0.564172L95.1441 2.4548V4.2946H82.939V9.27528H95.1441V13.8036H82.3253V18.7843H95.1441V33.0758H100.462V21.3255L106.663 31.9018H113.64L107.404 21.2543H100.462L100.457 21.2493Z" fill="#003880"/>
<path d="M112.788 4.29457H101.746V9.27528H112.788V4.29457Z" fill="#003880"/>
<path d="M113.402 13.8037H101.746V18.7843H113.402V13.8037Z" fill="#003880"/>
<path d="M181.108 11.3387V33.0758L179.748 33.0657H174.693L173.841 29.4318H176.52V11.3387H181.108Z" fill="#003880"/>
<path d="M170.07 3.39503V0.320221H163.219C163.093 0.320221 163.027 0.467608 163.108 0.564172L164.747 2.45988V3.39503H151.416V7.57775H158.369L160.566 11.3387H152.872V33.0605H157.627V15.3283H160.434L158.714 20.9189H163.94L165.605 15.3283H167.706V20.8782H176.099L174.927 17.4832H172.308V15.3283H175.211V11.3387H174.262L176.474 7.57775H182.524V3.39503H170.07ZM169.137 11.3387H165.691L163.479 7.57775H171.364C171.364 7.57775 169.167 11.3387 169.137 11.3387Z" fill="#003880"/>
<path d="M160.378 21.7269L160.348 31.7086H173.196L173.227 21.7269H160.378ZM164.752 28.5372L164.727 24.8983H168.827L168.848 28.5372H164.752Z" fill="#003880"/>
<path d="M200.924 19.3282C201.198 18.4895 202.893 10.5154 202.893 10.5154H200.924H198.311L202.669 1.19948H185.527C185.4 1.19948 185.329 1.34687 185.416 1.44343L187.055 3.33405V5.27042H196.271L194.662 8.70608L193.302 6.43427H189.308L191.749 10.5052H186.471L185.553 10.5103C185.426 10.5103 185.355 10.6577 185.441 10.7543L186.477 11.9486V14.8201H189.587L185.924 23.8921H189.917L192.216 18.2049V29.4166H187.786L188.871 33.0504H196.956V14.8353H198.179L197.63 17.1732L200.934 19.3282H200.924Z" fill="#003880"/>
<path d="M213.859 7.24738H215.863L217.386 2.98838H207.404L208.653 0.315079H204.161H202.817C202.69 0.315079 202.619 0.462466 202.705 0.559031L203.578 1.56534L200.924 7.24229H208.465L207.592 9.44295L203.248 8.18759V12.4415L206.079 13.2598L204.791 16.5124H210.302L211.002 14.6828L216.35 16.2279V11.974L212.474 10.8507L213.859 7.23721V7.24738Z" fill="#003880"/>
<path d="M209.616 19.689L210.398 17.8187H204.989L204.217 19.689H200.249V23.7956H202.522L199.178 31.8968H204.532L207.907 23.7956H212.306V29.4319H206.435L207.521 33.0657H212.306V33.0758H216.33V23.7956V19.689H212.306H209.616Z" fill="#003880"/>
<path d="M89.4245 40.1708V38.1734H83.3912V49.817H86.3854V44.8212H89.181V42.773H86.3854V40.1708H89.4245Z" fill="#003880"/>
<path d="M97.9955 46.5542V38.1734H95.0223V46.9964C95.0223 47.347 95.0224 47.6723 94.6564 47.8553C94.4484 47.9722 94.2405 47.9874 94.1542 47.9874C94.0173 47.9874 93.4948 47.9722 93.3021 47.4944C93.2151 47.2962 93.2151 46.9811 93.2151 46.9507V38.1734H90.2622V46.6355C90.2622 47.2607 90.2622 47.9061 90.5564 48.5007C90.9926 49.3749 92.1042 50 94.205 50C96.7274 50 97.6303 49.1259 97.889 47.9061C98.0108 47.3623 97.9955 46.666 97.9955 46.5542Z" fill="#003880"/>
<path d="M99.0767 38.1734V40.2013H101.507V49.817H104.517V40.2013H106.968V38.1734H99.0767Z" fill="#003880"/>
<path d="M115.747 46.5542V38.1734H112.773V46.9964C112.773 47.347 112.773 47.6723 112.408 47.8553C112.2 47.9722 111.991 47.9874 111.905 47.9874C111.763 47.9874 111.246 47.9722 111.053 47.4944C110.967 47.2962 110.967 46.9811 110.967 46.9507V38.1734H108.013V46.6355C108.013 47.2607 108.013 47.9061 108.307 48.5007C108.739 49.3749 109.855 50 111.956 50C114.478 50 115.381 49.1259 115.64 47.9061C115.762 47.3623 115.747 46.666 115.747 46.5542Z" fill="#003880"/>
<path d="M123.293 44.4908C124.49 43.947 124.84 43.271 124.84 41.4566C124.84 40.5317 124.754 39.8913 124.561 39.444C124.181 38.5699 123.293 38.1734 121.659 38.1734H117.467V49.817H120.248V44.8516H120.735L122.405 49.817H125.363L123.293 44.4908ZM121.172 42.8594H120.248V40.186H121.156C121.795 40.186 122.095 40.3487 122.145 40.7299C122.181 40.9281 122.196 41.3397 122.196 41.6549C122.196 42.5951 121.953 42.8594 121.172 42.8594Z" fill="#003880"/>
<path d="M132.889 40.2165V38.1734H126.545V49.817H132.889V47.7587H129.519V44.9533H132.696V42.9051H129.519V40.2165H132.889Z" fill="#003880"/>
<path d="M143.545 45.3802V46.8336C143.545 47.2454 143.566 47.7586 143.043 47.9365C142.871 47.9873 142.642 47.9873 142.606 47.9873C141.724 47.9873 141.617 47.5757 141.617 46.8336V41.0449C141.617 40.9789 141.566 40.3689 141.947 40.1199C142.119 40.003 142.312 39.9878 142.54 39.9878C142.972 39.9878 143.408 40.0539 143.53 40.5316C143.566 40.6993 143.566 40.8467 143.566 41.0093V42.4781H146.484V41.0754C146.484 40.5316 146.469 40.0386 146.204 39.5253C145.773 38.6359 144.713 37.9599 142.556 37.9599C140.906 37.9599 140.034 38.3563 139.481 38.8849C138.75 39.5609 138.664 40.3028 138.664 41.2228V46.9658C138.664 47.8247 138.75 48.2008 138.958 48.5972C139.151 48.9632 139.41 49.1766 139.532 49.2579C140.105 49.7204 140.906 49.9695 142.449 49.9695C143.53 49.9695 144.835 49.9339 145.687 49.1766C146.519 48.4346 146.555 47.413 146.555 46.422V45.3802H143.545Z" fill="#003880"/>
<path d="M155.491 39.9218C155.263 39.2966 154.882 38.9307 154.674 38.7528C153.837 38.0565 152.781 37.9447 151.721 37.9447C150.396 37.9447 149.092 38.1378 148.295 39.261C147.787 39.9726 147.722 40.6333 147.722 41.4566V46.2543C147.722 47.2606 147.808 47.7078 148.016 48.1856C148.224 48.6989 148.574 49.0089 148.727 49.1411C149.599 49.8678 150.675 49.9695 151.787 49.9695C153.629 49.9695 154.501 49.4867 155.055 48.7954C155.684 48.0026 155.699 47.1285 155.699 46.173V41.7209C155.699 41.111 155.699 40.5164 155.491 39.9218ZM152.745 46.9302C152.745 47.281 152.71 47.6418 152.324 47.8247C152.101 47.9213 151.772 47.9213 151.721 47.9213C150.675 47.9213 150.711 47.3928 150.711 46.9302V40.9585C150.711 40.9281 150.66 40.3181 151.076 40.1199C151.299 40.0031 151.614 40.0183 151.665 40.0183C152.101 40.0183 152.568 40.0539 152.71 40.5468C152.745 40.679 152.745 40.7146 152.745 40.9585V46.9302Z" fill="#003880"/>
<path d="M164.965 38.1734L163.138 46.7168L161.316 38.1734H157.353V49.817H159.941V41.4414L161.835 49.817H164.443L166.34 41.4414V49.817H168.979V38.1734H164.965Z" fill="#003880"/>
<path d="M178.372 38.1734L176.545 46.7168L174.719 38.1734H170.756V49.817H173.348V41.4414L175.241 49.817H177.85L179.742 41.4414V49.817H182.387V38.1734H178.372Z" fill="#003880"/>
<path d="M190.49 40.2165V38.1734H184.143V49.817H190.49V47.7587H187.116V44.9533H190.298V42.9051H187.116V40.2165H190.49Z" fill="#003880"/>
<path d="M197.549 44.4908C198.747 43.947 199.092 43.271 199.092 41.4566C199.092 40.5317 199.006 39.8913 198.818 39.444C198.432 38.5699 197.549 38.1734 195.915 38.1734H191.724V49.817H194.505V44.8516H194.992L196.661 49.817H199.615L197.549 44.4908ZM195.428 42.8594H194.505V40.186H195.408C196.053 40.186 196.347 40.3487 196.398 40.7299C196.433 40.9281 196.453 41.3397 196.453 41.6549C196.453 42.5951 196.21 42.8594 195.428 42.8594Z" fill="#003880"/>
<path d="M205.491 45.3802V46.8336C205.491 47.2454 205.511 47.7586 204.989 47.9365C204.816 47.9873 204.588 47.9873 204.553 47.9873C203.669 47.9873 203.563 47.5757 203.563 46.8336V41.0449C203.563 40.9789 203.512 40.3689 203.892 40.1199C204.065 40.003 204.258 39.9878 204.487 39.9878C204.918 39.9878 205.354 40.0539 205.476 40.5316C205.511 40.6993 205.511 40.8467 205.511 41.0093V42.4781H208.429V41.0754C208.429 40.5316 208.414 40.0386 208.15 39.5253C207.719 38.6359 206.658 37.9599 204.502 37.9599C202.853 37.9599 201.979 38.3563 201.427 38.8849C200.695 39.5609 200.609 40.3028 200.609 41.2228V46.9658C200.609 47.8247 200.695 48.2008 200.903 48.5972C201.097 48.9632 201.356 49.1766 201.477 49.2579C202.05 49.7204 202.853 49.9695 204.395 49.9695C205.476 49.9695 206.78 49.9339 207.632 49.1766C208.465 48.4346 208.5 47.413 208.5 46.422V45.3802H205.491Z" fill="#003880"/>
<path d="M216.203 40.2165V38.1734H209.856V49.817H216.203V47.7587H212.829V44.9533H216.011V42.9051H212.829V40.2165H216.203Z" fill="#003880"/>
<path d="M34.2079 42.4984L27.1288 49.6035H25.302L0 24.2478L24.2109 1.52588e-05H26.3981L33.2945 6.91198L15.985 24.2478L34.2079 42.4984Z" fill="#0C5CA6"/>
<path d="M76.5557 26.3925V28.1002L55.0899 49.6035H53.1667L27.8444 24.2427V20.2277L33.9136 14.1441L48.0413 0H50.2082L57.1959 6.99836L41.9823 22.2352L54.1257 34.3871L69.3242 19.1603L76.5557 26.3925Z" fill="#0C5CA6"/>
<path d="M48.7212 18.4794L35.2684 20.0143L27.8545 17.1274L41.3073 15.5926L48.7212 18.4794Z" fill="white"/>
<path d="M48.7212 18.4793L48.6705 33.3756L35.2228 34.9105L35.2685 20.0142L48.7212 18.4793Z" fill="#00AFE8"/>
<path d="M35.2685 20.0142L35.2229 34.9105L27.8088 32.0238L27.8545 17.1275L35.2685 20.0142Z" fill="#003881"/>
</svg>
