<svg width="249" height="50" viewBox="0 0 249 50" fill="none" xmlns="http://www.w3.org/2000/svg">
<g clip-path="url(#clip0_1_132)">
<path d="M140.142 26.3993L140.111 26.6092C140.099 26.6956 140.101 26.7818 140.121 26.8682C140.847 29.9745 143.433 33.0004 146.034 34.6657C146.172 34.7519 146.254 34.8987 146.254 35.0568V37.6426C146.254 38.0194 145.811 38.2467 145.487 38.0309C143.084 36.426 140.818 34.0674 139.357 31.5737C139.162 31.2401 138.661 31.2544 138.488 31.6024C136.689 35.2668 133.557 38.3329 129.228 40.4585C129.187 40.4786 129.134 40.4498 129.134 40.4038V37.4125C129.134 37.1939 129.254 36.9926 129.449 36.8804C133.789 34.3061 136.337 30.8402 137.142 26.5431C137.196 26.2584 136.959 25.9995 136.658 25.9995H129.225C128.961 25.9995 128.747 25.7953 128.747 25.5422V23.6151C128.747 23.3677 128.958 23.1664 129.216 23.1664H136.922C137.192 23.1664 137.412 22.9565 137.412 22.6976V16.853C137.412 16.5942 137.192 16.3842 136.922 16.3842H134.55C134.38 16.3842 134.222 16.4705 134.136 16.6085C132.928 18.4953 131.437 20.2556 129.578 21.7571C129.514 21.8089 129.417 21.7628 129.417 21.6852V18.294C129.417 18.13 129.483 17.969 129.593 17.8453C131.786 15.4264 132.914 13.3181 133.878 10.1255C133.968 9.81772 134.258 9.6048 134.591 9.6048C135.138 9.6048 135.966 9.6048 136.536 9.6048C136.853 9.6048 137.092 9.89535 137.007 10.1888C136.736 11.1437 136.396 12.0785 136.007 13.0017C135.875 13.3123 136.107 13.6517 136.459 13.6517H145.48C145.751 13.6517 145.971 13.8617 145.971 14.1206V15.9153C145.971 16.1742 145.751 16.3842 145.48 16.3842H140.859C140.589 16.3842 140.37 16.5942 140.37 16.853V22.6976C140.37 22.9565 140.589 23.1664 140.859 23.1664H146.043C146.314 23.1664 146.534 23.3763 146.534 23.6352V25.5306C146.534 25.7895 146.314 25.9995 146.043 25.9995H140.624C140.379 25.9995 140.174 26.1721 140.139 26.4022L140.142 26.3993ZM148.572 39.6646V10.8703C148.572 10.5971 148.792 10.3757 149.063 10.3757H161.641C161.912 10.3757 162.132 10.5971 162.132 10.8703V39.6646C162.132 39.9378 161.912 40.1593 161.641 40.1593H149.063C148.792 40.1593 148.572 39.9378 148.572 39.6646ZM158.682 13.7985H151.982C151.712 13.7985 151.491 14.0199 151.491 14.2932V36.5237C151.491 36.797 151.712 37.0184 151.982 37.0184H158.682C158.953 37.0184 159.172 36.797 159.172 36.5237V14.2932C159.172 14.0199 158.953 13.7985 158.682 13.7985Z" fill="#231815"/>
<path d="M129.203 40.7518C129.136 40.7518 129.07 40.7345 129.007 40.7029C128.893 40.6396 128.821 40.5246 128.821 40.4038V37.4124C128.821 37.096 128.991 36.8085 129.278 36.6387C133.496 34.1365 136.041 30.7252 136.833 26.4942C136.842 26.4396 136.826 26.3849 136.788 26.3446C136.77 26.3245 136.726 26.2871 136.659 26.2871H129.228C128.789 26.2871 128.434 25.9534 128.434 25.5422V23.615C128.434 23.2095 128.787 22.8787 129.218 22.8787H136.924C137.021 22.8787 137.097 22.7982 137.097 22.6976V16.853C137.097 16.7523 137.018 16.6717 136.924 16.6717H134.553C134.496 16.6717 134.442 16.7034 134.408 16.7523C133.096 18.7973 131.542 20.5548 129.787 21.9698C129.667 22.0677 129.495 22.0906 129.35 22.0302C129.203 21.9698 129.105 21.8318 129.105 21.6822V18.2911C129.105 18.061 129.192 17.8367 129.353 17.6584C131.461 15.3343 132.605 13.272 133.574 10.0448C133.703 9.61349 134.121 9.31433 134.591 9.31433H136.534C136.779 9.31433 137.009 9.4178 137.163 9.59902C137.32 9.78598 137.378 10.0276 137.311 10.2578C137.043 11.1926 136.704 12.1475 136.301 13.1024C136.272 13.1656 136.283 13.2375 136.324 13.2922C136.342 13.318 136.387 13.3612 136.458 13.3612H145.479C145.922 13.3612 146.282 13.7006 146.282 14.1177V15.9124C146.282 16.3295 145.92 16.6689 145.479 16.6689H140.859C140.762 16.6689 140.683 16.7494 140.683 16.8501V22.6947C140.683 22.7953 140.762 22.8758 140.859 22.8758H146.042C146.486 22.8758 146.847 23.2153 146.847 23.6323V25.5277C146.847 25.9448 146.486 26.2842 146.042 26.2842H140.622C140.538 26.2842 140.463 26.3503 140.45 26.4396L140.418 26.6466C140.409 26.7013 140.412 26.756 140.425 26.8078C141.17 29.9946 143.868 32.9313 146.212 34.4298C146.433 34.5707 146.564 34.8066 146.564 35.0539V37.6397C146.564 37.9302 146.392 38.192 146.114 38.3214C145.85 38.4422 145.539 38.422 145.3 38.261C142.816 36.6014 140.547 34.2112 139.079 31.706C139.032 31.6255 138.957 31.6111 138.925 31.6168C138.893 31.6168 138.817 31.6283 138.776 31.7174C136.924 35.4911 133.675 38.6003 129.382 40.7087C129.325 40.7374 129.264 40.7489 129.203 40.7489V40.7518ZM129.218 23.4511C129.133 23.4511 129.063 23.5231 129.063 23.6122V25.5393C129.063 25.6342 129.136 25.7089 129.228 25.7089H136.659C136.892 25.7089 137.116 25.8039 137.27 25.9707C137.428 26.1433 137.493 26.3677 137.453 26.5891C136.629 30.9841 133.992 34.5276 129.621 37.1191C129.517 37.1824 129.45 37.2946 129.45 37.4095V40.0155C133.439 37.9733 136.458 35.0281 138.201 31.4817C138.33 31.2198 138.597 31.0531 138.903 31.0416C139.201 31.03 139.484 31.1825 139.632 31.4356C141.057 33.866 143.255 36.1843 145.668 37.795C145.732 37.8381 145.791 37.8238 145.829 37.8066C145.854 37.795 145.936 37.749 145.936 37.6397V35.0539C145.936 34.9907 145.904 34.9331 145.85 34.8987C143.407 33.3368 140.592 30.2649 139.808 26.9256C139.78 26.8106 139.776 26.6898 139.796 26.569L139.828 26.3619C139.884 25.9909 140.224 25.7089 140.622 25.7089H146.042C146.139 25.7089 146.218 25.6284 146.218 25.5277V23.6323C146.218 23.5317 146.139 23.4511 146.042 23.4511H140.859C140.416 23.4511 140.054 23.1117 140.054 22.6947V16.8501C140.054 16.433 140.416 16.0936 140.859 16.0936H145.479C145.578 16.0936 145.653 16.0131 145.653 15.9124V14.1177C145.653 14.017 145.574 13.9365 145.479 13.9365H136.458C136.195 13.9365 135.955 13.8214 135.804 13.6172C135.647 13.4044 135.612 13.1339 135.713 12.8923C136.109 11.9605 136.443 11.0228 136.701 10.111C136.717 10.0536 136.701 9.99603 136.666 9.94998C136.647 9.92689 136.603 9.8867 136.534 9.8867H134.591C134.401 9.8867 134.234 10.0104 134.182 10.1945C133.184 13.505 132.008 15.6277 129.838 18.0208C129.768 18.0956 129.734 18.1904 129.734 18.2883V21.2335C131.291 19.9134 132.678 18.3084 133.867 16.4561C134.012 16.2317 134.272 16.0908 134.553 16.0908H136.924C137.367 16.0908 137.726 16.4301 137.726 16.8472V22.6917C137.726 23.1088 137.364 23.4482 136.924 23.4482H129.218V23.4511ZM161.637 40.4469H149.059C148.616 40.4469 148.257 40.096 148.257 39.6646V10.8703C148.257 10.439 148.618 10.088 149.059 10.088H161.637C162.08 10.088 162.442 10.439 162.442 10.8703V39.6646C162.442 40.096 162.08 40.4469 161.637 40.4469ZM149.059 10.6633C148.964 10.6633 148.886 10.7582 148.886 10.8703V39.6646C148.886 39.7768 148.964 39.8716 149.059 39.8716H161.637C161.732 39.8716 161.813 39.7768 161.813 39.6646V10.8703C161.813 10.7582 161.734 10.6633 161.637 10.6633H149.059ZM158.68 37.3089H151.982C151.537 37.3089 151.176 36.958 151.176 36.5265V14.2932C151.176 13.8617 151.537 13.5107 151.982 13.5107H158.68C159.124 13.5107 159.483 13.8617 159.483 14.2932V36.5237C159.483 36.9551 159.121 37.3061 158.68 37.3061V37.3089ZM151.982 14.0889C151.887 14.0889 151.805 14.1838 151.805 14.296V36.5237C151.805 36.6359 151.883 36.7308 151.982 36.7308H158.68C158.775 36.7308 158.854 36.6359 158.854 36.5237V14.2932C158.854 14.181 158.775 14.086 158.68 14.086H151.982V14.0889Z" fill="#231815"/>
<path d="M168.676 17.1061V15.4263C168.676 15.2279 168.843 15.0697 169.051 15.0697H178.588C178.796 15.0697 178.962 15.2307 178.962 15.4263V17.1061C178.962 17.3045 178.796 17.4628 178.588 17.4628H169.051C168.843 17.4628 168.676 17.3017 168.676 17.1061ZM169.522 39.4373V30.1672C169.522 29.9686 169.689 29.8105 169.897 29.8105H177.814C178.021 29.8105 178.188 29.9715 178.188 30.1672V39.4373C178.188 39.6357 178.021 39.794 177.814 39.794H169.897C169.689 39.794 169.522 39.6329 169.522 39.4373ZM169.592 12.2826V10.7036C169.592 10.505 169.759 10.3469 169.966 10.3469H177.742C177.949 10.3469 178.116 10.5079 178.116 10.7036V12.2826C178.116 12.4811 177.949 12.6392 177.742 12.6392H169.966C169.759 12.6392 169.592 12.4782 169.592 12.2826ZM169.592 21.9641V20.385C169.592 20.1866 169.759 20.0283 169.966 20.0283H177.742C177.949 20.0283 178.116 20.1895 178.116 20.385V21.9641C178.116 22.1625 177.949 22.3207 177.742 22.3207H169.966C169.759 22.3207 169.592 22.1597 169.592 21.9641ZM169.592 26.8566V25.2775C169.592 25.0791 169.759 24.9209 169.966 24.9209H177.742C177.949 24.9209 178.116 25.0819 178.116 25.2775V26.8566C178.116 27.055 177.949 27.2133 177.742 27.2133H169.966C169.759 27.2133 169.592 27.0521 169.592 26.8566ZM175.593 32.0713H172.218C172.011 32.0713 171.845 32.2323 171.845 32.4279V37.1765C171.845 37.3751 172.011 37.5332 172.218 37.5332H175.593C175.801 37.5332 175.967 37.3722 175.967 37.1765V32.4279C175.967 32.2294 175.801 32.0713 175.593 32.0713ZM198.961 40.4383C197.564 40.4383 196.072 39.4747 194.871 36.5554C194.771 36.3109 194.441 36.2505 194.251 36.4403C192.528 38.166 190.603 39.6502 188.518 40.6338C188.266 40.7518 187.974 40.582 187.974 40.3146V37.841C188.008 37.8064 188.08 37.8064 188.116 37.7749H180.742C180.534 37.7749 180.368 37.6137 180.368 37.4182V24.4031C180.368 24.2046 180.534 24.0465 180.742 24.0465H190.314C190.521 24.0465 190.688 24.2075 190.688 24.4031V35.5227C190.688 35.8247 191.059 35.9916 191.301 35.7989C192.195 35.0941 192.991 34.2889 193.742 33.4231C193.814 33.3397 193.843 33.2275 193.818 33.121C193.22 30.5698 192.783 27.124 192.568 22.6371C192.559 22.4472 192.396 22.2948 192.197 22.2948C190.283 22.2948 181.214 22.2948 179.261 22.2948C179.054 22.2948 178.889 22.1337 178.889 21.9381V20.1895C178.889 19.991 179.057 19.8328 179.264 19.8328H181.624C181.853 19.8328 182.029 19.6343 181.991 19.4185C181.737 17.9747 181.28 16.0103 180.932 14.5779C180.893 14.4167 180.742 14.3017 180.57 14.3017H179.9C179.692 14.3017 179.525 14.1407 179.525 13.9451V12.2999C179.525 12.1014 179.692 11.9432 179.9 11.9432H184.083C184.291 11.9432 184.457 11.7822 184.457 11.5866V9.70261C184.457 9.50417 184.624 9.34592 184.832 9.34592H186.901C187.109 9.34592 187.275 9.50704 187.275 9.70261V11.5866C187.275 11.785 187.442 11.9432 187.65 11.9432H191.236C191.443 11.9432 191.609 12.1043 191.609 12.2999V13.9451C191.609 14.1435 191.443 14.3017 191.236 14.3017H190.48C190.299 14.3017 190.141 14.4282 190.113 14.6008L189.286 19.4185C189.247 19.6372 189.424 19.8328 189.654 19.8328H192.107C192.317 19.8328 192.484 19.6688 192.478 19.4674C192.453 18.4694 192.453 17.4397 192.453 16.3582V9.73419C192.453 9.53575 192.62 9.37762 192.828 9.37762H194.793C195 9.37762 195.167 9.53862 195.167 9.73419V16.3267C195.167 17.4454 195.167 18.4838 195.192 19.4877C195.199 19.6804 195.362 19.8356 195.567 19.8356H200.958C201.166 19.8356 201.332 19.9968 201.332 20.1923V21.941C201.332 22.1396 201.166 22.2977 200.958 22.2977H195.664C195.45 22.2977 195.28 22.4703 195.289 22.6745C195.409 25.3121 195.592 27.5066 195.825 29.3244C195.868 29.6753 196.362 29.7558 196.529 29.4423C197.353 27.8862 198.013 26.2468 198.479 24.5239C198.524 24.3658 198.668 24.2564 198.838 24.2564H200.307C200.546 24.2564 200.725 24.4664 200.675 24.6879C199.983 27.7023 198.612 30.7568 196.743 33.4317C196.683 33.518 196.664 33.6244 196.692 33.7222C197.429 36.3684 198.391 37.309 199.291 37.309C199.743 37.309 200.489 36.7452 201.347 35.8247C201.578 35.5802 202.003 35.7299 202.003 36.0606V38.5198C202.003 38.609 201.967 38.6982 201.904 38.7643C201.028 39.6674 199.788 40.4497 198.974 40.4497L198.961 40.4383ZM187.917 26.2037H183.171C182.963 26.2037 182.796 26.3647 182.796 26.5603V29.658C182.796 29.8566 182.963 30.0147 183.171 30.0147H187.917C188.125 30.0147 188.291 29.8537 188.291 29.658V26.5603C188.291 26.3618 188.125 26.2037 187.917 26.2037ZM187.917 31.7692H183.171C182.963 31.7692 182.796 31.9302 182.796 32.1259V35.2552C182.796 35.4537 182.963 35.6119 183.171 35.6119H187.917C188.125 35.6119 188.291 35.4508 188.291 35.2552V32.1259C188.291 31.9274 188.125 31.7692 187.917 31.7692ZM183.246 14.7274C183.576 16.1828 184.026 18.084 184.293 19.5336C184.325 19.7062 184.479 19.8299 184.662 19.8299H186.634C186.816 19.8299 186.974 19.7033 187.001 19.5279L187.797 14.7101C187.832 14.4945 187.659 14.2959 187.429 14.2959C186.539 14.2959 184.52 14.2959 183.608 14.2959C183.368 14.2959 183.192 14.506 183.243 14.7274H183.246ZM199.042 17.8222C198.709 16.2575 197.734 12.5415 197.193 10.6661C197.126 10.4389 197.307 10.2146 197.551 10.2146H198.999C199.164 10.2146 199.309 10.318 199.357 10.4706C199.897 12.2395 200.888 15.9757 201.291 17.6727C201.345 17.897 201.168 18.107 200.929 18.107C200.476 18.107 199.797 18.107 199.407 18.107C199.232 18.107 199.08 17.9891 199.042 17.8222Z" fill="#231815"/>
<path d="M188.349 40.956C188.226 40.956 188.104 40.9244 187.993 40.864C187.783 40.7461 187.657 40.539 187.657 40.3117V38.0596H180.737C180.357 38.0596 180.049 37.7691 180.049 37.4153V24.4002C180.049 24.0437 180.357 23.756 180.737 23.756H190.308C190.689 23.756 190.997 24.0465 190.997 24.4002V35.5199C190.997 35.563 191.022 35.5803 191.038 35.586C191.063 35.5975 191.076 35.586 191.092 35.5774C191.893 34.9446 192.678 34.1796 193.492 33.2419C193.508 33.2246 193.513 33.2017 193.508 33.1786C192.879 30.5008 192.457 26.9573 192.253 22.6458C192.253 22.6055 192.221 22.5767 192.196 22.5767H179.259C178.882 22.5767 178.574 22.2863 178.574 21.9324V20.1837C178.574 19.827 178.882 19.5394 179.262 19.5394H181.621C181.621 19.5394 181.649 19.5336 181.662 19.5221C181.671 19.5135 181.687 19.4906 181.68 19.4589C181.479 18.3227 181.124 16.6976 180.624 14.6325C180.617 14.6037 180.592 14.5836 180.567 14.5836H179.897C179.517 14.5836 179.208 14.2931 179.208 13.9394V12.2941C179.208 11.9374 179.517 11.6499 179.897 11.6499H184.08C184.112 11.6499 184.141 11.6182 184.141 11.5807V9.69977C184.141 9.34307 184.449 9.05539 184.829 9.05539H186.899C187.279 9.05539 187.588 9.34594 187.588 9.69977V11.5807C187.588 11.6182 187.613 11.6499 187.647 11.6499H191.233C191.614 11.6499 191.922 11.9403 191.922 12.2941V13.9394C191.922 14.2959 191.614 14.5836 191.233 14.5836H190.479C190.45 14.5836 190.425 14.6066 190.422 14.6412L189.595 19.4589C189.588 19.4934 189.604 19.5164 189.613 19.525C189.626 19.5365 189.638 19.5422 189.651 19.5422H192.104C192.104 19.5422 192.13 19.5365 192.139 19.5279C192.149 19.5193 192.161 19.502 192.161 19.4703C192.136 18.4694 192.136 17.4426 192.136 16.3554V9.73135C192.136 9.37477 192.445 9.08709 192.825 9.08709H194.791C195.171 9.08709 195.479 9.37764 195.479 9.73135V16.3238C195.479 17.4311 195.479 18.4752 195.505 19.479C195.505 19.5164 195.533 19.5451 195.564 19.5451H200.955C201.337 19.5451 201.645 19.8357 201.645 20.1895V21.9382C201.645 22.2949 201.337 22.5825 200.955 22.5825H195.662C195.662 22.5825 195.637 22.5883 195.628 22.5969C195.621 22.6055 195.603 22.6256 195.603 22.6573C195.716 25.1741 195.895 27.4031 196.134 29.2842C196.137 29.3187 196.155 29.3388 196.187 29.3446C196.218 29.3504 196.234 29.333 196.243 29.3129C197.078 27.7396 197.725 26.103 198.172 24.4492C198.25 24.1616 198.521 23.963 198.836 23.963H200.304C200.509 23.963 200.704 24.0494 200.836 24.1961C200.971 24.3485 201.025 24.547 200.98 24.7426C200.274 27.8172 198.899 30.8748 197.008 33.5842C196.996 33.6014 196.992 33.6273 196.996 33.6504C197.589 35.7932 198.426 37.0213 199.288 37.0213C199.376 37.0213 199.876 36.9552 201.107 35.6378C201.295 35.4365 201.591 35.3646 201.862 35.4537C202.138 35.5458 202.314 35.7845 202.314 36.0607V38.5199C202.314 38.6837 202.251 38.8362 202.136 38.9542C201.301 39.8112 199.955 40.7346 198.971 40.7346C197.172 40.7346 195.696 39.3654 194.589 36.6646C194.576 36.6359 194.558 36.6273 194.545 36.6244C194.53 36.6244 194.514 36.6244 194.499 36.6416C192.611 38.5313 190.651 39.9638 188.676 40.8956C188.575 40.9416 188.468 40.9675 188.362 40.9675L188.349 40.956ZM188.289 38.0108V40.3089C188.289 40.3463 188.312 40.3635 188.324 40.3721C188.349 40.3865 188.368 40.3779 188.378 40.3721C190.287 39.469 192.187 38.0798 194.024 36.239C194.187 36.075 194.422 36.0031 194.655 36.0434C194.891 36.0836 195.083 36.2361 195.171 36.4461C196.166 38.865 197.476 40.142 198.964 40.142C199.622 40.142 200.779 39.4604 201.661 38.5543C201.672 38.5428 201.679 38.5227 201.679 38.5025V36.0434C201.679 36.0002 201.657 35.983 201.638 35.9772C201.611 35.9685 201.595 35.9801 201.582 35.9945C200.6 37.0471 199.826 37.5793 199.286 37.5793C198.059 37.5793 197.084 36.2994 196.383 33.7769C196.332 33.6014 196.367 33.4116 196.474 33.2591C198.326 30.6073 199.67 27.6188 200.361 24.6103C200.367 24.5786 200.351 24.5528 200.346 24.547C200.336 24.5383 200.324 24.5268 200.304 24.5268H198.836C198.811 24.5268 198.792 24.547 198.782 24.5757C198.326 26.267 197.662 27.9409 196.811 29.5517C196.675 29.8077 196.386 29.9486 196.083 29.8996C195.779 29.8537 195.549 29.6264 195.511 29.3388C195.268 27.4433 195.089 25.197 194.976 22.6688C194.967 22.4904 195.042 22.315 195.175 22.1855C195.304 22.0618 195.479 21.9928 195.662 21.9928H200.955C200.984 21.9928 201.016 21.9641 201.016 21.9238V20.175C201.016 20.1319 200.984 20.106 200.955 20.106H195.564C195.187 20.106 194.886 19.8299 194.875 19.4761C194.85 18.4694 194.85 17.4196 194.85 16.3093V9.71699C194.85 9.67955 194.825 9.64797 194.791 9.64797H192.825C192.793 9.64797 192.764 9.67955 192.764 9.71699V16.341C192.764 17.4254 192.764 18.4493 192.791 19.4445C192.793 19.62 192.721 19.7925 192.589 19.9162C192.461 20.037 192.287 20.1031 192.104 20.1031H189.651C189.453 20.1031 189.264 20.0226 189.136 19.8846C189 19.7408 188.941 19.5481 188.975 19.3553L189.803 14.5376C189.855 14.2241 190.142 13.994 190.482 13.994H191.237C191.264 13.994 191.296 13.9652 191.296 13.925V12.2798C191.296 12.2395 191.264 12.2107 191.237 12.2107H187.651C187.27 12.2107 186.962 11.9202 186.962 11.5664V9.68529C186.962 9.64797 186.937 9.61628 186.903 9.61628H184.833C184.801 9.61628 184.772 9.64797 184.772 9.68529V11.5664C184.772 11.9231 184.464 12.2107 184.084 12.2107H179.9C179.868 12.2107 179.841 12.2424 179.841 12.2798V13.925C179.841 13.9681 179.872 13.994 179.9 13.994H180.571C180.895 13.994 181.168 14.2011 181.241 14.4945C181.743 16.5711 182.103 18.2048 182.304 19.3524C182.338 19.5422 182.279 19.7349 182.143 19.8817C182.011 20.0226 181.822 20.1031 181.624 20.1031H179.264C179.237 20.1031 179.205 20.1319 179.205 20.1721V21.9209C179.205 21.9584 179.23 21.99 179.262 21.99H192.199C192.567 21.99 192.866 22.2603 192.884 22.6084C193.089 26.8883 193.504 30.4001 194.124 33.0463C194.168 33.239 194.117 33.4346 193.988 33.5871C193.149 34.5563 192.337 35.3444 191.507 36.0031C191.303 36.1641 191.026 36.2016 190.783 36.098C190.532 35.9916 190.375 35.7672 190.375 35.5084V24.3888C190.375 24.3456 190.343 24.3197 190.314 24.3197H180.743C180.716 24.3197 180.684 24.3485 180.684 24.3888V37.4038C180.684 37.447 180.716 37.4729 180.743 37.4729H188.849L188.346 37.959C188.326 37.9762 188.312 37.9906 188.292 38.0022L188.289 38.0108ZM177.812 40.0816H169.895C169.514 40.0816 169.207 39.7912 169.207 39.4373V30.1672C169.207 29.8105 169.514 29.5229 169.895 29.5229H177.812C178.192 29.5229 178.501 29.8134 178.501 30.1672V39.4373C178.501 39.794 178.192 40.0816 177.812 40.0816ZM169.895 30.0952C169.867 30.0952 169.836 30.1241 169.836 30.1644V39.4345C169.836 39.4776 169.867 39.5035 169.895 39.5035H177.812C177.843 39.5035 177.871 39.4719 177.871 39.4345V30.1644C177.871 30.1212 177.841 30.0952 177.812 30.0952H169.895ZM175.595 37.8209H172.22C171.839 37.8209 171.53 37.5304 171.53 37.1766V32.4279C171.53 32.0713 171.839 31.7836 172.22 31.7836H175.595C175.975 31.7836 176.283 32.0742 176.283 32.4279V37.1766C176.283 37.5333 175.975 37.8209 175.595 37.8209ZM172.22 32.356C172.191 32.356 172.159 32.3848 172.159 32.425V37.1737C172.159 37.2169 172.191 37.2428 172.22 37.2428H175.595C175.622 37.2428 175.654 37.214 175.654 37.1737V32.425C175.654 32.3819 175.622 32.356 175.595 32.356H172.22ZM187.918 35.8995H183.171C182.791 35.8995 182.483 35.6091 182.483 35.2553V32.126C182.483 31.7693 182.791 31.4816 183.171 31.4816H187.918C188.299 31.4816 188.607 31.7721 188.607 32.126V35.2553C188.607 35.612 188.299 35.8995 187.918 35.8995ZM183.171 32.054C183.141 32.054 183.112 32.0857 183.112 32.123V35.2524C183.112 35.2956 183.143 35.3214 183.171 35.3214H187.918C187.946 35.3214 187.978 35.2927 187.978 35.2524V32.123C187.978 32.0799 187.946 32.054 187.918 32.054H183.171ZM187.918 30.2995H183.171C182.791 30.2995 182.483 30.009 182.483 29.6552V26.5574C182.483 26.2008 182.791 25.9132 183.171 25.9132H187.918C188.299 25.9132 188.607 26.2037 188.607 26.5574V29.6552C188.607 30.0119 188.299 30.2995 187.918 30.2995ZM183.171 26.4884C183.143 26.4884 183.112 26.5172 183.112 26.5574V29.6552C183.112 29.6926 183.137 29.7243 183.171 29.7243H187.918C187.95 29.7243 187.978 29.6926 187.978 29.6552V26.5574C187.978 26.5144 187.946 26.4884 187.918 26.4884H183.171ZM177.742 27.5008H169.967C169.587 27.5008 169.279 27.2104 169.279 26.8566V25.2775C169.279 24.9209 169.587 24.6333 169.967 24.6333H177.742C178.124 24.6333 178.432 24.9238 178.432 25.2775V26.8566C178.432 27.2133 178.124 27.5008 177.742 27.5008ZM169.967 25.2056C169.939 25.2056 169.908 25.2343 169.908 25.2746V26.8537C169.908 26.8969 169.939 26.9227 169.967 26.9227H177.742C177.771 26.9227 177.803 26.894 177.803 26.8537V25.2746C177.803 25.2315 177.771 25.2056 177.742 25.2056H169.967ZM177.742 22.6084H169.967C169.587 22.6084 169.279 22.3178 169.279 21.9641V20.3851C169.279 20.0284 169.587 19.7408 169.967 19.7408H177.742C178.124 19.7408 178.432 20.0312 178.432 20.3851V21.9641C178.432 22.3207 178.124 22.6084 177.742 22.6084ZM169.967 20.3132C169.939 20.3132 169.908 20.3419 169.908 20.3822V21.9613C169.908 21.9986 169.933 22.0303 169.967 22.0303H177.742C177.771 22.0303 177.803 22.0014 177.803 21.9613V20.3822C177.803 20.339 177.771 20.3132 177.742 20.3132H169.967ZM186.638 20.1117H184.666C184.329 20.1117 184.046 19.8874 183.989 19.5768C183.775 18.4235 183.445 16.9767 183.153 15.7025L182.942 14.7821C182.897 14.5865 182.951 14.388 183.087 14.2355C183.218 14.0889 183.411 14.0055 183.616 14.0055H187.437C187.636 14.0055 187.821 14.086 187.95 14.2241C188.084 14.368 188.145 14.5607 188.113 14.7505L187.317 19.5682C187.264 19.8846 186.978 20.1146 186.638 20.1146V20.1117ZM183.616 14.5807C183.616 14.5807 183.587 14.5865 183.574 14.6008C183.568 14.6095 183.549 14.6325 183.559 14.667L183.77 15.5874C184.062 16.8674 184.395 18.3199 184.609 19.4848C184.616 19.5164 184.637 19.5394 184.666 19.5394H186.638C186.666 19.5394 186.691 19.5135 186.695 19.4818L187.491 14.6641C187.496 14.6297 187.478 14.6066 187.471 14.598C187.462 14.5865 187.45 14.5807 187.434 14.5807H183.612H183.616ZM200.93 18.3918H199.408C199.084 18.3918 198.801 18.1732 198.736 17.874C198.408 16.341 197.43 12.6048 196.888 10.7352C196.832 10.5367 196.876 10.3297 197.012 10.1685C197.143 10.0133 197.338 9.92405 197.553 9.92405H198.999C199.304 9.92405 199.578 10.1168 199.659 10.3901C200.204 12.1705 201.197 15.9124 201.597 17.6095C201.645 17.805 201.591 18.0063 201.455 18.1589C201.324 18.3055 201.132 18.3918 200.928 18.3918H200.93ZM199.355 17.7618C199.361 17.7935 199.383 17.8165 199.412 17.8165H200.934C200.934 17.8165 200.962 17.8108 200.975 17.7964C200.98 17.7878 201 17.7647 200.991 17.7303C200.591 16.039 199.6 12.3171 199.059 10.5425C199.05 10.5138 199.028 10.4964 199.005 10.4964H197.559C197.543 10.4964 197.528 10.5022 197.517 10.5166C197.512 10.5252 197.492 10.5511 197.505 10.5857C198.059 12.5041 199.025 16.1914 199.361 17.7618H199.355ZM178.589 17.7504H169.053C168.671 17.7504 168.363 17.4598 168.363 17.1061V15.4263C168.363 15.0697 168.671 14.7821 169.053 14.7821H178.589C178.97 14.7821 179.278 15.0726 179.278 15.4263V17.1061C179.278 17.4628 178.97 17.7504 178.589 17.7504ZM169.053 15.3544C169.024 15.3544 168.992 15.3833 168.992 15.4235V17.1032C168.992 17.1406 169.017 17.1723 169.053 17.1723H178.589C178.62 17.1723 178.649 17.1406 178.649 17.1032V15.4235C178.649 15.3861 178.624 15.3544 178.589 15.3544H169.053ZM177.742 12.9269H169.967C169.587 12.9269 169.279 12.6364 169.279 12.2827V10.7036C169.279 10.3469 169.587 10.0592 169.967 10.0592H177.742C178.124 10.0592 178.432 10.3498 178.432 10.7036V12.2827C178.432 12.6392 178.124 12.9269 177.742 12.9269ZM169.967 10.6316C169.936 10.6316 169.908 10.6633 169.908 10.7007V12.2798C169.908 12.3229 169.939 12.3488 169.967 12.3488H177.742C177.771 12.3488 177.803 12.32 177.803 12.2798V10.7007C177.803 10.6633 177.778 10.6316 177.742 10.6316H169.967Z" fill="#231815"/>
<path d="M213.867 13.9883C213.745 13.9883 213.643 14.0831 213.643 14.2011V23.0974C213.643 31.7291 212.2 37.1853 208.739 40.283C208.595 40.4125 208.362 40.3176 208.362 40.1306V36.0866C208.362 36.0406 208.378 36.0003 208.407 35.9629C209.999 33.9178 210.793 29.6178 210.793 23.0629V11.739C210.793 11.6212 210.895 11.5262 211.017 11.5262H223.637C223.759 11.5262 223.859 11.4314 223.859 11.3134V9.64798C223.859 9.53004 223.961 9.43518 224.083 9.43518H226.772C226.895 9.43518 226.996 9.53004 226.996 9.64798V11.3134C226.996 11.4314 227.096 11.5262 227.218 11.5262H240.718C240.842 11.5262 240.942 11.6212 240.942 11.739V13.7755C240.942 13.8933 240.842 13.9883 240.718 13.9883H213.874H213.867ZM229.068 36.9379V40.3924C229.068 40.5103 228.968 40.6052 228.845 40.6052H226.401C226.279 40.6052 226.178 40.5103 226.178 40.3924V36.9379C226.178 36.82 226.078 36.7251 225.954 36.7251H214.955C214.833 36.7251 214.732 36.6302 214.732 36.5122V34.4414C214.732 34.3235 214.833 34.2285 214.955 34.2285H225.954C226.078 34.2285 226.178 34.1336 226.178 34.0157V32.1145C226.178 31.9965 226.078 31.9016 225.954 31.9016H216.645C216.521 31.9016 216.421 31.8067 216.421 31.6888V21.2509C216.421 21.1329 216.521 21.0381 216.645 21.0381H225.954C226.078 21.0381 226.178 20.9431 226.178 20.8251V19.0908C226.178 18.9729 226.078 18.8779 225.954 18.8779H215.763C215.641 18.8779 215.541 18.783 215.541 18.6651V16.8991C215.541 16.7811 215.641 16.6863 215.763 16.6863H225.954C226.078 16.6863 226.178 16.5913 226.178 16.4733V14.9087C226.178 14.7908 226.279 14.6958 226.401 14.6958H228.845C228.968 14.6958 229.068 14.7908 229.068 14.9087V16.4733C229.068 16.5913 229.17 16.6863 229.292 16.6863H240.501C240.625 16.6863 240.725 16.7811 240.725 16.8991V18.6651C240.725 18.783 240.625 18.8779 240.501 18.8779H229.292C229.17 18.8779 229.068 18.9729 229.068 19.0908V20.8251C229.068 20.9431 229.17 21.0381 229.292 21.0381H238.989C239.112 21.0381 239.212 21.1329 239.212 21.2509V31.6888C239.212 31.8067 239.112 31.9016 238.989 31.9016H229.292C229.17 31.9016 229.068 31.9965 229.068 32.1145V34.0157C229.068 34.1336 229.17 34.2285 229.292 34.2285H240.716C240.838 34.2285 240.939 34.3235 240.939 34.4414V36.5122C240.939 36.6302 240.838 36.7251 240.716 36.7251H229.292C229.17 36.7251 229.068 36.82 229.068 36.9379Z" fill="#231815"/>
<path d="M228.846 40.8898H226.401C226.107 40.8898 225.863 40.6656 225.863 40.3894V37.0098H214.955C214.661 37.0098 214.417 36.7854 214.417 36.5093V34.4384C214.417 34.1623 214.661 33.9379 214.955 33.9379H225.863V32.1864H216.645C216.349 32.1864 216.107 31.962 216.107 31.6859V21.248C216.107 20.9718 216.349 20.7475 216.645 20.7475H225.861V19.1627H215.764C215.468 19.1627 215.226 18.9383 215.226 18.6622V16.8962C215.226 16.62 215.468 16.3957 215.764 16.3957H225.861V14.9057C225.861 14.6297 226.103 14.4053 226.399 14.4053H228.842C229.138 14.4053 229.38 14.6297 229.38 14.9057V16.3957H240.499C240.795 16.3957 241.037 16.62 241.037 16.8962V18.6622C241.037 18.9383 240.795 19.1627 240.499 19.1627H229.38V20.7475H238.987C239.282 20.7475 239.524 20.9718 239.524 21.248V31.6859C239.524 31.962 239.282 32.1864 238.987 32.1864H229.38V33.9379H240.711C241.005 33.9379 241.247 34.1623 241.247 34.4384V36.5093C241.247 36.7854 241.005 37.0098 240.711 37.0098H229.38V40.3894C229.38 40.6656 229.138 40.8898 228.842 40.8898H228.846ZM226.496 40.3146H228.754V36.9351C228.754 36.6589 228.996 36.4346 229.292 36.4346H240.622V34.5133H229.292C228.996 34.5133 228.754 34.2889 228.754 34.0128V32.1116C228.754 31.8354 228.996 31.6111 229.292 31.6111H238.899V21.3227H229.292C228.996 21.3227 228.754 21.0983 228.754 20.8223V19.0878C228.754 18.8117 228.996 18.5874 229.292 18.5874H240.411V16.9709H229.292C228.996 16.9709 228.754 16.7465 228.754 16.4705V14.9805H226.496V16.4705C226.496 16.7465 226.254 16.9709 225.958 16.9709H215.862V18.5874H225.958C226.254 18.5874 226.496 18.8117 226.496 19.0878V20.8223C226.496 21.0983 226.254 21.3227 225.958 21.3227H216.739V31.6111H225.955C226.251 31.6111 226.493 31.8354 226.493 32.1116V34.0128C226.493 34.2889 226.251 34.5133 225.955 34.5133H215.047V36.4346H225.955C226.251 36.4346 226.493 36.6589 226.493 36.9351V40.3146H226.496ZM208.587 40.6252C208.517 40.6252 208.447 40.6138 208.382 40.5879C208.18 40.5102 208.051 40.3291 208.051 40.1248V36.0807C208.051 35.9773 208.086 35.8766 208.153 35.7903C209.696 33.8028 210.48 29.5201 210.48 23.0571V11.739C210.48 11.4629 210.722 11.2385 211.017 11.2385H223.546V9.64797C223.546 9.37189 223.788 9.14749 224.083 9.14749H226.772C227.068 9.14749 227.311 9.37189 227.311 9.64797V11.2385H240.72C241.014 11.2385 241.258 11.4629 241.258 11.739V13.7754C241.258 14.0516 241.014 14.2758 240.72 14.2758H213.964V23.0974C213.964 32.0281 212.424 37.3923 208.967 40.4872C208.863 40.5793 208.728 40.6281 208.592 40.6281L208.587 40.6252ZM208.678 36.1067V39.9321C211.895 36.9293 213.329 31.7203 213.329 23.0945V14.1982C213.329 13.9221 213.571 13.6977 213.867 13.6977H240.622V11.8109H227.213C226.917 11.8109 226.675 11.5866 226.675 11.3104V9.71986H224.171V11.3104C224.171 11.5866 223.929 11.8109 223.634 11.8109H211.105V23.0599C211.105 29.7157 210.311 33.984 208.678 36.1067Z" fill="#231815"/>
<path d="M235.445 23.4252H220.221C219.653 23.4252 219.192 23.8464 219.192 24.3658V28.4616C219.192 28.9811 219.653 29.4021 220.221 29.4021H235.445C236.012 29.4021 236.472 28.9811 236.472 28.4616V24.3658C236.472 23.8464 236.012 23.4252 235.445 23.4252Z" fill="white"/>
<path d="M218.934 29.1864L224.791 27.2075C225.095 27.1039 225.441 27.2565 225.564 27.5411L226.486 29.73C226.605 30.0176 226.954 30.1672 227.259 30.0636L245.867 24.4694L247.937 23.8279C248.242 23.7273 248.236 23.5776 247.925 23.5L240.042 19.4646C239.73 19.3841 239.555 19.5596 239.653 19.8559L240.621 22.781L229.245 25.8556C228.939 25.9535 228.589 25.8011 228.47 25.5134L227.551 23.3274C227.433 23.0398 227.083 22.8903 226.778 22.9938L216.695 26.3993" fill="#231815"/>
<path d="M122.622 18.8117H120.364C119.921 18.8117 119.556 18.481 119.556 18.0726V10.2836C119.556 9.87811 119.194 9.54449 118.747 9.54449H108.352C107.908 9.54449 107.462 9.86662 107.361 10.2635L104.596 21.084C104.496 21.478 104.776 21.8031 105.219 21.8031H107.364C107.808 21.8031 108.251 21.478 108.349 21.084L110.195 13.5568C110.292 13.1599 110.736 12.8378 111.179 12.8378H115.149C115.592 12.8378 115.957 13.1685 115.957 13.5769V19.6517C115.957 21.0063 117.159 22.1022 118.637 22.1022H122.622C123.066 22.1022 123.431 21.7714 123.431 21.363V19.5481C123.431 19.1426 123.069 18.8088 122.622 18.8088V18.8117Z" fill="#231815"/>
<path d="M101.552 9.54449H92.1696C91.7262 9.54449 91.3613 9.87524 91.3613 10.2836V39.6128C91.3613 40.0184 91.723 40.352 92.1696 40.352H94.1543C94.5979 40.352 94.9628 40.0213 94.9628 39.6128V29.9745H98.7624V39.6128C98.7624 40.0184 99.1241 40.352 99.5707 40.352H101.555C101.999 40.352 102.364 40.0213 102.364 39.6128V10.2836C102.364 9.87811 102.002 9.54449 101.555 9.54449H101.552ZM95.7679 12.8349H97.9508C98.3943 12.8349 98.7592 13.1657 98.7592 13.574V18.3199H94.9596V13.574C94.9596 13.1685 95.3213 12.8349 95.7679 12.8349ZM94.9596 26.6841V21.6104H98.7592V26.6841H94.9596Z" fill="#231815"/>
<path d="M118.596 23.897H106.257C106.037 23.897 105.861 24.0609 105.861 24.2594V26.8221C105.861 27.0234 106.04 27.1846 106.257 27.1846H116.995C117.322 27.1846 117.511 27.5268 117.313 27.7655L113.743 31.8585L111.312 29.0657C111.035 28.7493 110.447 28.4874 110.003 28.4874H107.134C106.691 28.4874 106.553 28.7464 106.829 29.0657L111.5 34.4328L106.785 39.8343C106.59 40.0731 106.776 40.4153 107.103 40.4153H110.604C110.73 40.4153 110.849 40.3606 110.925 40.2687L113.759 37.0271L116.206 39.8401C116.483 40.1565 117.071 40.4182 117.514 40.4182H120.386C120.829 40.4182 120.968 40.1593 120.691 39.8401L116.004 34.4557L121.16 28.5566C122.726 26.6294 121.223 23.897 118.596 23.897Z" fill="#231815"/>
<path d="M84.778 18.8117H82.5196C82.0762 18.8117 81.7113 18.481 81.7113 18.0726V10.2836C81.7113 9.87811 81.3496 9.54449 80.9029 9.54449H70.5074C70.0639 9.54449 69.6172 9.86662 69.5166 10.2635L66.7518 21.084C66.6512 21.478 66.9312 21.8031 67.3746 21.8031H69.5229C69.9664 21.8031 70.4099 21.478 70.5074 21.084L72.3538 13.5568C72.4513 13.1599 72.8947 12.8378 73.3383 12.8378H77.3078C77.7512 12.8378 78.116 13.1685 78.116 13.5769V19.6517C78.116 21.0063 79.3176 22.1022 80.7959 22.1022H84.7812C85.2246 22.1022 85.5895 21.7714 85.5895 21.363V19.5481C85.5895 19.1426 85.2278 18.8088 84.7812 18.8088L84.778 18.8117Z" fill="#231815"/>
<path d="M63.7067 9.54449H54.324C53.8805 9.54449 53.5157 9.87524 53.5157 10.2836V39.6128C53.5157 40.0184 53.8774 40.352 54.324 40.352H56.3087C56.7522 40.352 57.1171 40.0213 57.1171 39.6128V29.9745H60.9167V39.6128C60.9167 40.0184 61.2784 40.352 61.7251 40.352H63.7099C64.1533 40.352 64.5182 40.0213 64.5182 39.6128V10.2836C64.5182 9.87811 64.1564 9.54449 63.7099 9.54449H63.7067ZM57.9222 12.8349H60.1051C60.5487 12.8349 60.9136 13.1657 60.9136 13.574V18.3199H57.114V13.574C57.114 13.1685 57.4757 12.8349 57.9222 12.8349ZM57.114 26.6841V21.6104H60.9136V26.6841H57.114Z" fill="#231815"/>
<path d="M80.752 23.897H68.4126C68.1924 23.897 68.0163 24.0609 68.0163 24.2594V26.8221C68.0163 27.0234 68.1955 27.1846 68.4126 27.1846H79.1509C79.478 27.1846 79.6668 27.5268 79.4685 27.7655L75.8985 31.8585L73.4672 29.0657C73.1904 28.7493 72.6022 28.4874 72.1588 28.4874H69.2901C68.8467 28.4874 68.7083 28.7464 68.9851 29.0657L73.6559 34.4328L68.941 39.8343C68.746 40.0731 68.9316 40.4153 69.2587 40.4153H72.7595C72.8854 40.4153 73.0049 40.3606 73.0772 40.2687L75.9112 37.0271L78.3583 39.8401C78.6351 40.1565 79.2233 40.4182 79.6668 40.4182H82.5385C82.982 40.4182 83.1204 40.1593 82.8435 39.8401L78.157 34.4557L83.3122 28.5566C84.8787 26.6294 83.3751 23.897 80.7488 23.897H80.752Z" fill="#231815"/>
<path d="M17.4313 27.8749L21.4291 32.7501L39.515 20.8223C38.0587 20.6842 34.7749 21.4895 33.6708 21.7772C33.2966 20.9574 32.8845 20.1549 32.4379 19.3755C30.9909 16.7006 27.8864 12.6795 25.2097 10.8502C21.2812 8.16388 16.5411 8.23864 12.5747 10.856C11.6468 11.4687 10.7505 12.1446 9.97039 12.8982C5.21459 17.5117 2.88387 22.9938 1.86162 29.126C1.38981 31.962 1.5691 34.6858 2.39318 37.2744L17.4313 27.8778V27.8749Z" fill="#FFD228"/>
<path d="M20.857 36.1901L16.8183 31.2659L0.116382 41.7039L0.100658 41.6837L0 41.7499C0.556737 42.1267 2.58235 41.7327 4.27142 41.3127C4.67089 41.9542 5.11124 42.5841 5.59882 43.2024C11.0686 50.1543 21.593 51.6097 28.818 46.3779C33.9104 42.6876 35.9045 37.6886 36.1562 33.1585C36.1562 30.9036 35.8793 28.7205 35.3604 26.6266L20.857 36.1901Z" fill="#FFD228"/>
<path d="M35.1712 26.7474C34.7685 32.6696 32.0258 39.1584 25.1783 43.9675C21.2812 46.7029 16.6763 48.0547 12.0747 48.1237C17.4218 50.4017 23.8887 49.9472 28.8175 46.3779C33.9099 42.6876 35.9041 37.6886 36.1556 33.1585C36.1556 30.9036 35.8789 28.7205 35.3599 26.6266L35.1712 26.7502V26.7474Z" fill="#FAB939"/>
<path d="M28.88 15.0614C29.0858 12.7068 24.6904 10.4645 19.0626 10.0532C13.4349 9.64187 8.70577 11.2171 8.49998 13.5718C8.29419 15.9263 12.6895 18.1687 18.3172 18.58C23.9451 18.9913 28.6741 17.416 28.88 15.0614Z" fill="#FAB939"/>
<path d="M34.4672 10.9049V5.57523L33.5771 5.8513V10.9049H34.4672Z" fill="#231815"/>
<path d="M29.1173 6.17056L19.1464 9.26255C19.0552 9.29126 18.9577 9.30573 18.8634 9.30573C18.7691 9.30573 18.6684 9.29126 18.5772 9.26255L8.60629 6.17056V13.8185H8.61576L8.59366 13.925C8.59366 14.8338 13.1922 16.8645 18.8571 16.8645C24.5219 16.8645 29.1079 14.8338 29.1079 13.925L29.0859 13.8185H29.1205V6.17056H29.1173Z" fill="#231815"/>
<path d="M8.60276 7.23479L18.8599 10.4159L29.1168 7.23479L33.5771 5.8513L34.4672 5.57522L34.9358 5.42845L18.8599 0.478455L2.78062 5.42845L8.60276 7.23479Z" fill="#231815"/>
<path d="M32.9732 12.1533V15.2653C32.9732 15.7974 33.4418 16.226 34.0237 16.226C34.6055 16.226 35.0742 15.7945 35.0742 15.2653V12.1533C35.0742 11.8914 34.9579 11.6528 34.7722 11.4802H33.2751C33.0895 11.6528 32.9732 11.8914 32.9732 12.1533Z" fill="#1E1311"/>
<path d="M33.1401 10.9049V11.4801H33.2754H34.7726H34.9047V10.9049H34.4675H33.5774H33.1401Z" fill="#1E1311"/>
</g>
<defs>
<clipPath id="clip0_1_132">
<rect width="248.684" height="50" fill="white"/>
</clipPath>
</defs>
</svg>
