<svg width="164" height="50" viewBox="0 0 164 50" fill="none" xmlns="http://www.w3.org/2000/svg">
<g clip-path="url(#clip0_1_90)">
<path d="M69.2099 39.9183C69.2099 41.5531 69.4824 43.5967 69.6186 45.2316L68.12 41.9619L63.7603 33.9237H60.6268V49.0463H63.4878V43.0518C63.4878 41.4169 63.2153 39.5095 63.0791 37.8747L64.5777 41.1444L68.9374 49.1826H72.0709V34.0599H69.2099V40.0545V39.9183Z" fill="white"/>
<path d="M84.7412 34.6049C82.8338 33.3787 79.7003 33.3787 77.6567 34.6049C74.1145 36.6485 73.7057 42.2343 75.3406 45.6403C76.8393 49.1825 81.6076 50.2725 84.7412 48.3651C89.1008 45.6403 89.1008 37.1934 84.7412 34.6049ZM84.4687 44.1417C83.7875 46.3215 81.1989 47.4114 79.2916 46.049C77.3842 44.4142 77.248 40.8719 78.0654 38.6921C79.1553 35.5586 83.3788 35.5586 84.4687 38.6921C85.0136 40.1907 85.0136 42.7793 84.4687 44.2779V44.1417Z" fill="white"/>
<path d="M102.589 41.2807C102.316 42.9155 102.18 44.4142 101.907 46.049C101.635 44.4142 101.226 42.7793 100.954 41.2807L99.1826 33.9237H96.5941L94.823 41.2807C94.5505 42.9155 94.1418 44.4142 93.8693 46.049C93.4606 42.9155 92.5069 37.0572 91.9619 33.9237H88.8284L91.6894 49.0463H95.3679L97.0028 41.5531C97.2753 40.4632 97.4115 39.2371 97.684 38.1471C97.9565 40.4632 99.4551 46.594 100 49.0463H103.679L106.403 33.9237H103.542L102.316 41.2807H102.589Z" fill="white"/>
<path d="M117.166 39.9183C117.166 41.5531 117.439 43.5967 117.575 45.2316L116.076 41.9619L111.717 33.9237H108.583V49.0463H111.444V43.0518C111.444 41.4169 111.172 39.5095 111.036 37.8747L112.534 41.1444L116.894 49.1826H120.027V34.0599H117.166V40.0545V39.9183Z" fill="white"/>
<path d="M126.158 42.3706H131.335V39.9183H126.158V36.376H132.289V33.9237H123.161V48.9101H132.561V46.4578H126.158V42.3706Z" fill="white"/>
<path d="M147.684 41.2807C147.411 42.9155 147.275 44.4142 147.003 46.049C146.73 44.4142 146.322 42.7793 146.049 41.2807L144.278 33.9237H141.689L139.918 41.2807C139.646 42.9155 139.237 44.4142 138.965 46.049C138.556 42.9155 137.602 37.0572 137.057 33.9237H133.924L136.785 49.0463H140.463L142.098 41.5531C142.371 40.4632 142.507 39.2371 142.779 38.1471C143.052 40.4632 144.55 46.594 145.095 49.0463H148.774L151.499 33.9237H148.638L147.411 41.2807H147.684Z" fill="white"/>
<path d="M163.079 42.7793C162.125 40.5994 159.128 40.1907 157.357 39.237C156.131 38.8283 155.722 37.4659 156.812 36.6485C158.311 35.6948 160.354 36.376 161.58 37.4659L163.079 35.5586C160.763 33.1062 155.858 32.8338 153.815 35.6948C152.18 38.1471 153.679 41.0082 156.267 41.9618L158.311 42.7793C159.264 43.188 160.627 43.5967 160.627 44.8229C160.627 46.049 159.537 46.594 158.174 46.594C156.812 46.594 155.313 45.9128 154.36 44.9591L152.589 47.0027C154.632 49.0463 158.447 49.8637 161.035 48.5013C163.215 47.5477 164.169 44.8229 163.215 42.643L163.079 42.7793Z" fill="white"/>
<path d="M79.0191 5.85831C77.3842 4.76839 75.8856 3.54223 74.6594 2.17984C74.7957 1.90736 75.0681 1.63488 75.2044 1.3624L71.9346 0C69.2098 4.49591 64.3052 7.62943 59.5368 9.80926C60.3542 10.4905 61.5804 11.8529 62.1254 12.8065C64.169 11.7166 66.2126 10.4905 68.1199 8.99183V11.7166H77.6567V8.99183C79.2916 10.218 81.1989 11.5804 82.97 12.3978C83.515 11.4441 84.6049 10.218 85.5586 9.40054C83.3788 8.44687 81.1989 7.22071 79.1553 5.85831H79.0191ZM68.3924 8.71935C69.891 7.49319 71.3897 6.26703 72.6158 4.76839C73.9782 6.13079 75.4769 7.49319 76.9755 8.71935H68.3924Z" fill="white"/>
<path d="M79.7003 13.2152H62.9428V16.485H76.8393C74.9319 19.0736 72.6158 21.7984 70.5722 24.2507L73.9782 25.8855C76.9755 22.2071 80.109 18.1199 82.8338 14.3052L80.2453 13.079H79.7003V13.2152Z" fill="white"/>
<path d="M88.011 25.7493H91.417V23.9782H103.542V25.7493H107.085V2.17984H88.1472V25.7493H88.011ZM91.2807 20.5722V14.4414H103.406V20.5722H91.2807ZM103.406 5.44959V11.3079H91.2807V5.44959H103.406Z" fill="white"/>
<path d="M111.853 20.1635C111.444 20.9809 111.035 21.7984 110.491 22.4796C111.035 22.752 112.125 23.5695 112.67 23.9782C113.624 22.4796 114.85 20.1635 115.395 18.3924L112.943 17.5749C112.67 18.3924 112.262 19.346 111.853 20.1635Z" fill="white"/>
<path d="M127.793 5.1771C130.382 4.76838 133.106 4.08718 135.559 3.1335L133.106 0.681183C130.654 1.7711 127.52 2.4523 124.796 2.99726C124.659 8.03813 125.341 15.94 123.978 20.8447C123.433 19.7548 122.616 18.2561 121.935 17.3024L119.755 18.5286C120.436 19.6185 121.39 21.3896 121.935 22.6158L123.842 21.3896C123.57 22.3433 123.161 23.297 122.616 24.1144C123.433 24.5231 124.523 25.3406 125.204 26.0218C127.657 22.2071 127.793 17.03 127.929 12.534H130.518V25.8855H133.651V12.534H136.24V9.53677H128.065V5.31334L127.793 5.1771Z" fill="white"/>
<path d="M123.433 16.7575V14.0327H119.21V11.9891H123.978V9.26429H121.117C121.526 8.31061 121.935 7.35693 122.343 6.26701L120.027 5.85829H123.57V3.26974H119.619C119.346 2.31606 118.801 1.22614 118.392 0.272461L115.123 1.0899C115.395 1.7711 115.668 2.4523 115.94 3.26974H111.308V5.85829H114.986L112.67 6.40325C112.943 7.22069 113.352 8.44685 113.488 9.26429H110.899V11.9891H116.213V14.0327H111.172V16.7575H116.213V25.7493H119.346V16.7575H123.57H123.433ZM115.804 7.22069C115.668 6.67573 115.531 6.26701 115.259 5.72205H119.21C118.937 6.81197 118.392 8.03813 117.984 9.12805H113.897L115.94 8.58309C115.94 8.17437 115.804 7.76565 115.531 7.22069H115.804Z" fill="white"/>
<path d="M158.856 22.0708V19.891H156.948V13.3515H158.583V11.1717H145.232V13.3515H146.866V19.891H144.687V22.0708H154.087V25.0681H157.084V22.0708H158.992H158.856ZM149.728 16.0763H153.951V17.03H149.728V16.0763ZM153.951 13.3515V14.3052H149.728V13.3515H153.951ZM149.728 19.891V18.9373H153.951V19.891H149.728Z" fill="white"/>
<path d="M161.989 1.0899H152.725V10.218H160.218V22.4795C160.218 22.752 160.218 22.8883 159.809 22.8883C159.264 22.8883 158.174 22.8883 157.629 22.8883C158.038 23.5695 158.447 24.9319 158.447 25.7493C159.946 25.7493 161.172 25.7493 162.262 25.2043C163.352 24.5231 163.352 23.8419 163.352 22.4795V1.0899H161.853H161.989ZM160.218 3.26974V4.63214H155.722V3.26974H160.218ZM155.858 8.03813V6.67574H160.354V8.03813H155.858Z" fill="white"/>
<path d="M150.954 10.218V1.0899H140.463V25.7493H143.597V10.218H150.954ZM143.597 8.03813V6.67574H147.956V8.03813H143.597ZM147.956 3.26974V4.63214H143.597V3.26974H147.956Z" fill="white"/>
<path d="M48.5013 15.3951L13.3515 23.1608L41.2806 0.953674H48.5013V15.3951Z" fill="white"/>
<path d="M0 0.953674V23.1608L27.9292 0.953674H0Z" fill="white"/>
<path d="M35.1499 26.8392L0 34.6049V49.1826H7.22071L35.1499 26.8392Z" fill="#FBC82B"/>
<path d="M48.3651 26.9755L20.5722 49.1825H48.3651V26.9755Z" fill="#FBC82B"/>
<path d="M48.5014 15.3951L13.3515 23.1608L41.2807 0.953674H27.9292L0 23.1608V34.6049L35.1499 26.8392L7.22071 49.1826H20.5722L48.3651 26.9755L48.5014 15.3951Z" fill="#231815"/>
</g>
<defs>
<clipPath id="clip0_1_90">
<rect width="163.488" height="50" fill="white"/>
</clipPath>
</defs>
</svg>
