<svg width="160" height="80" viewBox="0 0 160 80" fill="none" xmlns="http://www.w3.org/2000/svg">
<path d="M85.3078 32.9918C85.282 32.9236 85.2366 32.8649 85.1776 32.8233C85.1186 32.7818 85.0488 32.7593 84.9771 32.7588H84.3537C84.2822 32.7589 84.2123 32.7811 84.1533 32.8223C84.0943 32.8636 84.0489 32.9221 84.0229 32.9901L78.8833 46.6889C78.8624 46.7439 78.8548 46.8033 78.8614 46.8619C78.868 46.9205 78.8884 46.9766 78.921 47.0253C78.9536 47.0741 78.9973 47.114 79.0483 47.1416C79.0994 47.1692 79.1563 47.1836 79.2141 47.1837H79.8375C79.9092 47.1832 79.979 47.1608 80.038 47.1192C80.097 47.0776 80.1424 47.0189 80.1682 46.9507L81.5209 43.3656H87.8049L89.1394 46.949C89.1652 47.0174 89.2105 47.0764 89.2695 47.1182C89.3284 47.1601 89.3983 47.1829 89.4701 47.1837H90.0936C90.151 47.1831 90.2075 47.1684 90.2581 47.1408C90.3088 47.1132 90.3522 47.0735 90.3847 47.0251C90.4171 46.9767 90.4377 46.921 90.4446 46.8628C90.4515 46.8046 90.4445 46.7455 90.4243 46.6906L85.3078 32.9918ZM81.9873 42.1108L84.6613 34.9811L87.3204 42.1108H81.9873Z" fill="white"/>
<path d="M92.6237 32.7568H92.0399C91.8436 32.7568 91.6844 32.9194 91.6844 33.1199V46.8187C91.6844 47.0192 91.8436 47.1818 92.0399 47.1818H92.6237C92.82 47.1818 92.9792 47.0192 92.9792 46.8187V33.1199C92.9792 32.9194 92.82 32.7568 92.6237 32.7568Z" fill="white"/>
<path d="M96.5942 32.7568H96.0105C95.8141 32.7568 95.6549 32.9194 95.6549 33.1199V46.8187C95.6549 47.0192 95.8141 47.1818 96.0105 47.1818H96.5942C96.7906 47.1818 96.9498 47.0192 96.9498 46.8187V33.1199C96.9498 32.9194 96.7906 32.7568 96.5942 32.7568Z" fill="white"/>
<path d="M100.272 32.7636C100.096 32.777 99.9269 32.8426 99.7864 32.9523C99.6459 33.062 99.5397 33.2111 99.4807 33.3814C99.4218 33.5517 99.4127 33.7358 99.4544 33.9113C99.4962 34.0868 99.5871 34.2461 99.716 34.3697C99.845 34.4933 100.006 34.576 100.18 34.6076C100.355 34.6392 100.534 34.6183 100.697 34.5476C100.859 34.4769 100.998 34.3593 101.097 34.2092C101.195 34.0591 101.249 33.8831 101.251 33.7025C101.25 33.5743 101.223 33.4477 101.173 33.3304C101.122 33.213 101.049 33.1072 100.958 33.0195C100.866 32.9317 100.758 32.8638 100.641 32.8198C100.523 32.7759 100.397 32.7567 100.272 32.7636Z" fill="white"/>
<path d="M100.565 37.1729H99.9811C99.7847 37.1729 99.6255 37.3354 99.6255 37.5359V46.8204C99.6255 47.021 99.7847 47.1835 99.9811 47.1835H100.565C100.761 47.1835 100.92 47.021 100.92 46.8204V37.5359C100.92 37.3354 100.761 37.1729 100.565 37.1729Z" fill="white"/>
<path d="M112.752 37.1726H112.167C112.072 37.1726 111.982 37.2109 111.915 37.279C111.849 37.3471 111.811 37.4394 111.811 37.5357V38.6908C111.121 37.9093 110.215 37.3599 109.213 37.1148C108.211 36.8697 107.16 36.9406 106.198 37.3181C105.236 37.6955 104.409 38.3619 103.826 39.2292C103.242 40.0965 102.93 41.124 102.93 42.1763C102.93 43.2285 103.242 44.2561 103.826 45.1234C104.409 45.9907 105.236 46.657 106.198 47.0345C107.16 47.4119 108.211 47.4828 109.213 47.2378C110.215 46.9927 111.121 46.4432 111.811 45.6618V46.8202C111.811 46.9165 111.849 47.0089 111.915 47.077C111.982 47.145 112.072 47.1833 112.167 47.1833H112.752C112.846 47.1828 112.937 47.1445 113.003 47.0765C113.07 47.0085 113.107 46.9164 113.108 46.8202V37.5323C113.107 37.4366 113.069 37.3451 113.002 37.2778C112.936 37.2104 112.846 37.1726 112.752 37.1726ZM108.001 38.2956C110.172 38.2956 111.805 40.0012 111.805 42.2658C111.805 44.3919 110.131 46.0586 108.001 46.0586C106.992 46.0586 106.025 45.6494 105.312 44.921C104.598 44.1926 104.198 43.2047 104.198 42.1746C104.198 41.1445 104.598 40.1566 105.312 39.4282C106.025 38.6998 106.992 38.2906 108.001 38.2906V38.2956Z" fill="white"/>
<path d="M120.088 36.9736C118.823 36.9736 117.773 37.4228 117.075 38.2199V37.536C117.075 37.4397 117.038 37.3473 116.971 37.2792C116.904 37.2112 116.814 37.1729 116.719 37.1729H116.136C116.041 37.1729 115.951 37.2112 115.884 37.2792C115.818 37.3473 115.78 37.4397 115.78 37.536V46.8239C115.78 46.9202 115.818 47.0125 115.884 47.0806C115.951 47.1487 116.041 47.1869 116.136 47.1869H116.719C116.814 47.1869 116.904 47.1487 116.971 47.0806C117.038 47.0125 117.075 46.9202 117.075 46.8239V41.523C117.163 38.61 119.212 38.2959 120.088 38.2959C121.742 38.2959 122.868 39.5236 122.868 41.3524V46.8205C122.868 46.9168 122.905 47.0091 122.972 47.0772C123.039 47.1453 123.129 47.1836 123.223 47.1836H123.812C123.906 47.1836 123.997 47.1453 124.064 47.0772C124.13 47.0091 124.168 46.9168 124.168 46.8205V41.3524C124.163 38.7738 122.489 36.9736 120.088 36.9736Z" fill="white"/>
<path d="M134.037 45.3291C133.98 45.2523 133.896 45.2013 133.804 45.1874C133.711 45.1735 133.616 45.1977 133.54 45.2548C132.841 45.7812 131.993 46.0631 131.124 46.0586C128.927 46.0586 127.333 44.4138 127.333 42.1476C127.333 39.9151 128.927 38.2956 131.124 38.2956C131.994 38.3064 132.839 38.5887 133.547 39.1045C133.585 39.1323 133.628 39.1521 133.674 39.1627C133.72 39.1733 133.767 39.1746 133.813 39.1664C133.859 39.1583 133.903 39.1408 133.943 39.1151C133.982 39.0894 134.016 39.056 134.043 39.0167L134.374 38.5388C134.401 38.4999 134.42 38.4559 134.431 38.4094C134.441 38.3629 134.442 38.3147 134.435 38.2676C134.427 38.2206 134.41 38.1756 134.385 38.1352C134.36 38.0948 134.328 38.0598 134.29 38.0322C133.367 37.3534 132.261 36.9829 131.124 36.9717C128.176 36.9717 126.038 39.1484 126.038 42.1459C126.038 45.1433 128.224 47.3809 131.124 47.3809C132.273 47.3883 133.393 47.0143 134.316 46.3153C134.391 46.2573 134.44 46.1716 134.453 46.0769C134.466 45.9821 134.443 45.8858 134.387 45.8087L134.037 45.3291Z" fill="white"/>
<path d="M140.271 36.9736C137.415 36.9736 135.341 39.1504 135.341 42.1478C135.341 45.1875 137.415 47.3828 140.271 47.3828C141.111 47.3946 141.94 47.1852 142.677 46.775C143.415 46.3648 144.037 45.7674 144.483 45.0406C144.507 45 144.524 44.955 144.531 44.9079C144.538 44.8609 144.537 44.8129 144.526 44.7666C144.515 44.7203 144.495 44.6766 144.467 44.6382C144.44 44.5997 144.405 44.5672 144.365 44.5424L143.859 44.2232C143.779 44.1717 143.681 44.155 143.588 44.1768C143.495 44.1987 143.414 44.2573 143.363 44.3398C143.035 44.8761 142.577 45.3164 142.033 45.6177C141.488 45.919 140.877 46.071 140.258 46.0589C138.316 46.0589 136.937 44.7805 136.661 42.7693H144.698C144.792 42.7693 144.883 42.731 144.949 42.6629C145.016 42.5948 145.053 42.5025 145.053 42.4062V42.1478C145.067 39.1014 143.095 36.9736 140.271 36.9736ZM136.694 41.5061C136.969 39.5422 138.338 38.2976 140.271 38.2976C142.171 38.2976 143.499 39.5438 143.744 41.5061H136.694Z" fill="white"/>
<path d="M28.2825 32.7842H31.4593V36.0282L28.2825 32.7842Z" fill="white"/>
<path d="M29.9099 43.3467L27.6294 45.6805L18.7823 36.6476L21.0693 34.3188L29.9099 43.3467Z" fill="white"/>
<path d="M26.5992 46.731L24.3122 49.0664L15.4667 40.0335L17.7537 37.7031L26.5992 46.731Z" fill="white"/>
<path d="M43.0566 35.2547C43.7046 35.2489 44.3455 35.3928 44.9314 35.6756C45.5173 35.9583 46.033 36.3727 46.44 36.8877C46.499 36.9616 46.5841 37.0089 46.6769 37.0194C46.7697 37.0298 46.8629 37.0025 46.9361 36.9434L48.4244 35.7309C48.4979 35.6705 48.5453 35.5833 48.5567 35.4877C48.5617 35.4402 48.5574 35.3922 48.544 35.3464C48.5307 35.3006 48.5086 35.2579 48.479 35.2209C47.8229 34.3972 46.9932 33.7354 46.0518 33.2848C45.1103 32.8343 44.0814 32.6065 43.0417 32.6186C41.1247 32.6186 39.2862 33.3963 37.9306 34.7806C36.5751 36.1648 35.8135 38.0423 35.8135 40C35.8135 41.9576 36.5751 43.8351 37.9306 45.2194C39.2862 46.6036 41.1247 47.3813 43.0417 47.3813C44.0812 47.3933 45.11 47.1658 46.0514 46.7155C46.9928 46.2652 47.8226 45.6039 48.479 44.7807C48.5384 44.7057 48.5664 44.6098 48.5567 44.5139C48.5457 44.4177 48.4982 44.3298 48.4244 44.269L46.9361 43.0565C46.8631 42.9972 46.7701 42.9696 46.6772 42.9798C46.5844 42.9899 46.4992 43.0368 46.44 43.1106C46.032 43.6251 45.5163 44.0397 44.9309 44.324C44.3454 44.6084 43.7049 44.7552 43.0566 44.7537C40.5497 44.7537 38.5917 42.6681 38.5917 40.0084C38.5917 37.3487 40.5497 35.2547 43.0566 35.2547Z" fill="white"/>
<path d="M55.8263 32.7637H50.6089C50.5146 32.7637 50.4242 32.8019 50.3575 32.87C50.2908 32.9381 50.2534 33.0305 50.2534 33.1267V46.8255C50.2534 46.9218 50.2908 47.0142 50.3575 47.0823C50.4242 47.1504 50.5146 47.1886 50.6089 47.1886H55.8263C59.6711 47.1886 62.2557 44.3009 62.2557 40.0065C62.2557 35.6683 59.6711 32.7637 55.8263 32.7637ZM59.5388 40.0065C59.5388 42.2238 58.5648 44.5931 55.8263 44.5931H52.9687V35.3541H55.8263C58.5648 35.3541 59.5388 37.7538 59.5388 40.0015V40.0065Z" fill="white"/>
<path d="M74.435 32.7637H72.4291C72.3348 32.7637 72.2444 32.802 72.1777 32.8701C72.1111 32.9381 72.0736 33.0305 72.0736 33.1268V41.7139L66.9257 32.9326C66.8935 32.8801 66.8486 32.8369 66.7953 32.8073C66.742 32.7777 66.6821 32.7627 66.6214 32.7637H64.68C64.5857 32.7637 64.4953 32.802 64.4286 32.8701C64.3619 32.9381 64.3245 33.0305 64.3245 33.1268V46.8256C64.3245 46.9219 64.3619 47.0142 64.4286 47.0823C64.4953 47.1504 64.5857 47.1887 64.68 47.1887H66.6859C66.7802 47.1887 66.8707 47.1504 66.9373 47.0823C67.004 47.0142 67.0415 46.9219 67.0415 46.8256V38.1507L72.2423 47.0063C72.2734 47.0604 72.3179 47.1052 72.3713 47.1363C72.4247 47.1674 72.4851 47.1837 72.5465 47.1836H74.435C74.5293 47.1836 74.6198 47.1453 74.6864 47.0772C74.7531 47.0092 74.7906 46.9168 74.7906 46.8205V33.1217C74.7893 33.0263 74.7512 32.9353 74.6847 32.8683C74.6182 32.8013 74.5285 32.7637 74.435 32.7637Z" fill="white"/>
<path d="M31.4594 43.8975V47.2191H28.2182L31.4594 43.8975Z" fill="white"/>
<path d="M20.4063 47.2159H17.2362V43.9668L20.4063 47.2159Z" fill="white"/>
<path d="M20.4774 32.7842L17.2362 36.1076V32.7842H20.4774Z" fill="white"/>
<path d="M33.2239 39.966L30.9551 42.2846L30.9435 42.2964L22.0963 33.2686L24.3834 30.9331L33.2239 39.966Z" fill="white"/>
</svg>
