<svg width="160" height="80" viewBox="0 0 160 80" fill="none" xmlns="http://www.w3.org/2000/svg">
<path d="M48.0994 42.6335L50.7843 43.0393C50.2536 44.5067 49.4731 45.5994 48.4116 46.3799C47.3501 47.1604 46.1325 47.535 44.7276 47.535C43.1354 47.535 41.9178 47.0667 41.0124 46.0989C40.107 45.1311 39.67 43.7574 39.67 41.9466C39.67 40.4793 39.9822 39.1368 40.5753 37.9192C41.1685 36.7016 42.0115 35.765 43.0729 35.1094C44.1344 34.4538 45.2896 34.1416 46.5384 34.1416C47.9433 34.1416 49.0672 34.5162 49.9414 35.2655C50.8155 36.0148 51.315 37.0451 51.4711 38.3251L48.9111 38.5749C48.755 37.8256 48.5052 37.2636 48.0994 36.9514C47.6935 36.608 47.1628 36.4519 46.4759 36.4519C45.7266 36.4519 45.0398 36.6704 44.4154 37.1387C43.791 37.5758 43.2603 38.2939 42.8856 39.2305C42.511 40.1671 42.3237 41.1349 42.3237 42.0715C42.3237 43.1018 42.5734 43.9135 43.0729 44.4754C43.5725 45.0374 44.1969 45.3184 44.9461 45.3184C45.633 45.3184 46.2574 45.0998 46.8506 44.6628C47.3813 44.1632 47.8184 43.5076 48.0994 42.6335Z" fill="white"/>
<path d="M51.7524 47.2854L54.4686 34.3291H56.9974L54.2813 47.2854H51.7524Z" fill="white"/>
<path d="M57.1533 43.414C57.1533 41.6656 57.6528 40.2919 58.6207 39.2617C59.5885 38.2314 60.8997 37.7007 62.492 37.7007C63.8656 37.7007 64.9583 38.0753 65.7388 38.8558C66.5193 39.6051 66.894 40.6354 66.894 41.9466C66.894 43.4764 66.3945 44.7876 65.4266 45.8803C64.4588 46.973 63.1476 47.535 61.5241 47.535C60.65 47.535 59.8695 47.3477 59.1826 47.0043C58.4958 46.6608 57.9963 46.1613 57.6528 45.5057C57.3406 44.8501 57.1533 44.132 57.1533 43.414ZM64.3964 41.6032C64.3964 41.01 64.2091 40.5105 63.8656 40.1671C63.5222 39.7924 63.0539 39.6363 62.5232 39.6363C61.9612 39.6363 61.4929 39.7924 61.0558 40.1358C60.6187 40.4793 60.3065 40.9788 60.0568 41.6032C59.807 42.2588 59.7134 42.852 59.7134 43.3827C59.7134 44.0384 59.9007 44.6003 60.2753 44.975C60.65 45.3808 61.0871 45.5681 61.649 45.5681C62.3359 45.5681 62.929 45.2559 63.3973 44.6628C64.053 43.8198 64.3964 42.7896 64.3964 41.6032Z" fill="white"/>
<path d="M69.7973 37.9189H72.3262L71.171 43.4761C71.0149 44.1317 70.9525 44.5688 70.9525 44.7249C70.9525 45.0059 71.0461 45.2244 71.2647 45.4118C71.452 45.5991 71.733 45.6927 72.0452 45.6927C72.2637 45.6927 72.4823 45.6615 72.7008 45.5679C72.9193 45.4742 73.1379 45.3493 73.3876 45.1932C73.6062 45.0059 73.8247 44.8186 74.012 44.6C74.1994 44.3815 74.3555 44.0693 74.5116 43.7259C74.6364 43.4449 74.7301 43.0078 74.8862 42.4146L75.8228 37.9502H78.3516L76.3848 47.3162H74.012L74.2618 46.0362C73.2315 47.0352 72.1076 47.5347 70.89 47.5347C70.1095 47.5347 69.5163 47.3162 69.0793 46.8791C68.6422 46.442 68.4236 45.8488 68.4236 45.0996C68.4236 44.7874 68.5173 44.1317 68.7358 43.1639L69.7973 37.9189Z" fill="white"/>
<path d="M87.5618 47.2854H85.1579L85.3764 46.2552C84.9081 46.6922 84.471 47.0044 84.034 47.1918C83.5969 47.3791 83.0974 47.4727 82.5354 47.4727C81.5676 47.4727 80.7871 47.1293 80.1627 46.4737C79.5695 45.8181 79.2573 44.819 79.2573 43.539C79.2573 42.0405 79.6944 40.6668 80.5373 39.4804C81.3803 38.2628 82.5042 37.6696 83.9091 37.6696C85.1579 37.6696 86.1257 38.1692 86.7501 39.1682L87.7804 34.3291H90.3092L87.5618 47.2854ZM81.6925 43.4766C81.6925 44.1322 81.8486 44.6629 82.192 45.0376C82.5354 45.4122 82.9413 45.5995 83.4408 45.5995C83.9091 45.5995 84.3149 45.4434 84.7208 45.1312C85.1267 44.819 85.4389 44.3507 85.6886 43.6951C85.9384 43.0395 86.032 42.4151 86.032 41.8219C86.032 41.1351 85.8447 40.6043 85.4701 40.1673C85.0954 39.7614 84.6896 39.5429 84.2213 39.5429C83.472 39.5429 82.8788 39.9487 82.3793 40.7917C81.9422 41.6346 81.6925 42.5088 81.6925 43.4766Z" fill="white"/>
<path d="M105.669 37.919H108.198L106.231 47.285H103.702L105.669 37.919ZM106.419 34.3599H108.947L108.479 36.6701H105.95L106.419 34.3599Z" fill="white"/>
<path d="M115.098 43.7573L117.564 44.1632C117.158 45.2559 116.565 46.0989 115.753 46.6608C114.973 47.2228 114.036 47.5038 112.975 47.5038C111.788 47.5038 110.821 47.1603 110.134 46.4423C109.447 45.7242 109.072 44.7564 109.072 43.5076C109.072 42.4773 109.291 41.5407 109.697 40.6041C110.134 39.6987 110.758 38.9807 111.601 38.4499C112.444 37.9192 113.381 37.6694 114.411 37.6694C115.504 37.6694 116.409 37.9504 117.065 38.5436C117.72 39.1056 118.095 39.8861 118.189 40.8227L115.785 41.0724C115.722 40.5417 115.566 40.167 115.316 39.9173C115.067 39.6675 114.723 39.5426 114.286 39.5426C113.787 39.5426 113.349 39.73 112.912 40.1046C112.475 40.4792 112.163 41.01 111.945 41.728C111.726 42.4461 111.601 43.1329 111.601 43.7573C111.601 44.3193 111.726 44.7252 112.007 45.0374C112.288 45.3496 112.631 45.4745 113.037 45.4745C113.443 45.4745 113.849 45.3184 114.224 45.0374C114.598 44.7876 114.91 44.3505 115.098 43.7573Z" fill="white"/>
<path d="M121.373 47.2854H118.844L121.56 34.3291H124.089L123.121 38.9497C123.683 38.5126 124.214 38.1692 124.714 37.9818C125.213 37.7945 125.744 37.7009 126.306 37.7009C127.055 37.7009 127.68 37.9194 128.117 38.3565C128.554 38.7936 128.772 39.3555 128.772 40.0736C128.772 40.4482 128.679 41.0414 128.523 41.8219L127.367 47.2854H124.839L126.025 41.697C126.15 41.1039 126.212 40.698 126.212 40.5419C126.212 40.2297 126.119 39.9799 125.931 39.7926C125.744 39.6053 125.463 39.5116 125.151 39.5116C124.714 39.5116 124.308 39.6677 123.933 39.9487C123.434 40.3234 123.028 40.8229 122.778 41.3848C122.622 41.697 122.435 42.4151 122.185 43.5702L121.373 47.2854Z" fill="white"/>
<path d="M138.981 43.3827H132.612C132.612 43.4764 132.612 43.57 132.612 43.6012C132.612 44.2256 132.799 44.7252 133.143 45.0998C133.486 45.4745 133.923 45.6618 134.454 45.6618C135.297 45.6618 135.953 45.2247 136.421 44.3505L138.7 44.7252C138.263 45.6306 137.67 46.3174 136.921 46.7857C136.171 47.254 135.36 47.4725 134.423 47.4725C133.174 47.4725 132.144 47.0667 131.363 46.2862C130.583 45.4745 130.177 44.4442 130.177 43.1329C130.177 41.8529 130.52 40.6978 131.238 39.6987C132.206 38.3563 133.611 37.6694 135.391 37.6694C136.546 37.6694 137.451 38.0129 138.138 38.7309C138.825 39.449 139.168 40.448 139.168 41.6968C139.168 42.3524 139.106 42.9144 138.981 43.3827ZM136.858 41.8529C136.858 41.728 136.858 41.6656 136.858 41.6032C136.858 40.9163 136.702 40.3856 136.39 40.0422C136.078 39.6987 135.672 39.5114 135.141 39.5114C134.61 39.5114 134.142 39.6987 133.736 40.1046C133.33 40.5105 133.049 41.0724 132.893 41.8529H136.858Z" fill="white"/>
<path d="M139.606 44.6628L142.072 44.2881C142.291 44.8189 142.571 45.1623 142.884 45.3808C143.196 45.5994 143.664 45.693 144.195 45.693C144.757 45.693 145.225 45.5681 145.569 45.3184C145.818 45.1311 145.943 44.9125 145.943 44.6628C145.943 44.5067 145.881 44.3506 145.756 44.1945C145.631 44.0696 145.288 43.9135 144.694 43.7262C143.165 43.2266 142.228 42.8208 141.853 42.5398C141.291 42.0715 141.01 41.4783 141.01 40.729C141.01 39.9797 141.291 39.3553 141.853 38.8246C142.634 38.0753 143.758 37.7007 145.288 37.7007C146.505 37.7007 147.411 37.9192 148.035 38.3563C148.659 38.7934 149.034 39.3866 149.221 40.1358L146.88 40.5417C146.755 40.1983 146.568 39.9485 146.287 39.7612C145.912 39.5427 145.444 39.4178 144.913 39.4178C144.382 39.4178 144.008 39.5114 143.758 39.6675C143.539 39.8549 143.414 40.0422 143.414 40.2919C143.414 40.5417 143.539 40.729 143.758 40.8851C143.914 40.9788 144.382 41.1349 145.194 41.3847C146.443 41.7281 147.255 42.1027 147.692 42.4461C148.285 42.9457 148.566 43.5388 148.566 44.2257C148.566 45.0998 148.191 45.8803 147.442 46.536C146.693 47.1916 145.631 47.5038 144.289 47.5038C142.946 47.5038 141.885 47.254 141.135 46.7545C140.355 46.2862 139.855 45.5681 139.606 44.6628Z" fill="white"/>
<path d="M92.9004 47.3476H90.2467L92.9316 34.5161H98.6137C99.5815 34.5161 100.362 34.6098 100.893 34.8283C101.423 35.0156 101.892 35.3903 102.204 35.921C102.547 36.4518 102.704 37.1074 102.704 37.8567C102.704 38.9494 102.391 39.8547 101.736 40.5416C101.08 41.2596 100.081 41.6967 98.7698 41.8528C99.1132 42.165 99.4254 42.5397 99.7376 43.0392C100.331 44.0382 100.986 45.4431 101.704 47.2851H98.8634C98.6449 46.5671 98.1766 45.4431 97.521 43.9134C97.1463 43.0704 96.7717 42.5397 96.3658 42.2587C96.1161 42.1026 95.679 42.0089 95.0546 42.0089H93.9931L92.9004 47.3476ZM94.399 40.1045H95.8039C97.2088 40.1045 98.1766 40.0108 98.6137 39.8547C99.082 39.6986 99.4254 39.4177 99.7064 39.0742C99.9562 38.6996 100.112 38.325 100.112 37.9503C100.112 37.482 99.9249 37.1386 99.5503 36.8888C99.3317 36.7327 98.801 36.6703 98.0517 36.6703H95.117L94.399 40.1045Z" fill="white"/>
<mask id="mask0_100_4261" style="mask-type:luminance" maskUnits="userSpaceOnUse" x="10" y="29" width="28" height="22">
<path d="M37.6408 29.3335H10.6667V51.0002H37.6408V29.3335Z" fill="white"/>
</mask>
<g mask="url(#mask0_100_4261)">
<path d="M28.7431 35.921C27.6504 34.7971 26.4953 33.8293 25.3402 32.9863C25.2465 33.4234 25.3089 33.8293 25.2465 34.2664C26.1831 34.9532 26.9948 35.7337 27.9314 36.6703C31.7403 40.3855 33.832 44.5378 32.5832 45.9427C32.1461 46.4422 31.3344 46.5358 30.3041 46.2549V50.6569C31.8964 50.9379 33.2388 50.6881 34.0505 49.7827C36.2984 47.3788 33.9257 41.166 28.7431 35.921Z" fill="white"/>
</g>
<mask id="mask1_100_4261" style="mask-type:luminance" maskUnits="userSpaceOnUse" x="10" y="29" width="28" height="22">
<path d="M37.6408 29.3335H10.6667V51.0002H37.6408V29.3335Z" fill="white"/>
</mask>
<g mask="url(#mask1_100_4261)">
<path d="M34.706 33.7041C33.5509 31.8309 31.1469 31.1128 28.3059 31.425C28.2747 31.9558 28.3371 32.4553 28.3683 32.986C29.5547 32.986 30.4601 33.3607 30.8971 34.0787C32.1147 36.0456 30.5537 40.5101 26.3702 43.3199C25.059 44.2252 24.4658 45.1931 23.1233 45.4116C22.6238 45.5053 22.2492 45.9111 21.8121 46.036C20.1262 46.5668 18.7838 46.7541 17.0354 45.755C15.5993 44.7872 15.0686 45.3804 14.7876 45.6614C14.3817 46.036 14.132 46.4731 13.7573 46.8477C13.8822 47.1599 14.0071 47.4721 14.1944 47.7843C16.3486 51.2498 22.5614 50.8439 28.2747 46.9726C33.9567 43.0701 36.8602 37.1383 34.706 33.7041Z" fill="white"/>
</g>
<mask id="mask2_100_4261" style="mask-type:luminance" maskUnits="userSpaceOnUse" x="10" y="29" width="28" height="22">
<path d="M37.6408 29.3335H10.6667V51.0002H37.6408V29.3335Z" fill="white"/>
</mask>
<g mask="url(#mask2_100_4261)">
<path d="M34.7062 33.7041C34.113 32.7363 33.2076 32.0807 32.0525 31.7061C31.99 31.7997 31.8651 31.8622 31.709 31.9246C31.0534 32.1119 30.5539 32.7988 30.0544 33.3607C30.3978 33.548 30.6788 33.7978 30.8661 34.0788C32.0837 36.0456 29.6797 39.9169 25.5275 42.7267C24.1226 43.6946 22.6864 44.5999 21.344 45.1931C21.1567 45.2868 22.2181 45.9736 21.9372 46.0985C20.9381 46.4732 18.659 46.7854 17.8473 46.4419C17.6288 47.9405 17.5351 48.44 17.4727 49.9386C20.4074 50.563 24.4972 49.5327 28.2748 46.9727C33.9569 43.0702 36.8603 37.1383 34.7062 33.7041Z" fill="white"/>
</g>
<mask id="mask3_100_4261" style="mask-type:luminance" maskUnits="userSpaceOnUse" x="10" y="29" width="28" height="22">
<path d="M37.6408 29.3335H10.6667V51.0002H37.6408V29.3335Z" fill="white"/>
</mask>
<g mask="url(#mask3_100_4261)">
<path d="M24.2164 33.3919C16.9733 33.4231 10.6668 35.4837 11.0415 38.8554C11.3849 41.9774 17.0357 43.8506 24.2788 43.8194C31.5219 43.7882 36.6419 42.1023 37.2039 39.0427C37.8283 35.7022 31.4594 33.3607 24.2164 33.3919ZM33.957 37.4505C33.9882 39.7608 27.8067 40.4789 24.1851 40.5413C21.4066 40.6037 18.7528 40.4789 17.0045 39.792C15.4747 39.1988 14.6318 38.3559 14.6006 37.4505C14.6006 36.7325 15.1625 36.0768 16.1616 35.5149C17.8475 34.5471 20.7509 33.7666 24.0603 33.829C28.8057 33.9539 33.8946 35.5461 33.957 37.4505Z" fill="white"/>
</g>
<mask id="mask4_100_4261" style="mask-type:luminance" maskUnits="userSpaceOnUse" x="10" y="29" width="28" height="22">
<path d="M37.6408 29.3335H10.6667V51.0002H37.6408V29.3335Z" fill="white"/>
</mask>
<g mask="url(#mask4_100_4261)">
<path d="M32.3023 46.2234C32.2711 46.2234 32.2399 46.2234 32.1775 46.2234C30.5852 46.9727 26.87 45.1307 23.4046 41.7277C19.5958 38.0125 17.5352 33.8603 18.784 32.4554C20.0329 31.0505 24.1539 32.9237 27.9627 36.6701C27.994 36.7013 25.59 34.6096 25.59 34.6096C25.9959 34.9218 26.7764 35.2027 27.5881 35.6398C28.2437 36.0145 28.7432 36.1081 28.8681 36.0457C28.8057 35.9832 28.7745 35.952 28.7433 35.8896C23.5607 30.6758 17.5352 28.428 15.2874 30.8631C13.0396 33.2983 15.4123 39.5111 20.5948 44.7249C25.8086 49.9386 31.8028 52.2177 34.0507 49.7825C34.7687 49.0332 34.9873 47.8781 34.8624 46.5356C34.0194 46.2546 33.1765 46.0673 32.3023 46.2234Z" fill="white"/>
</g>
<mask id="mask5_100_4261" style="mask-type:luminance" maskUnits="userSpaceOnUse" x="10" y="29" width="28" height="22">
<path d="M37.6408 29.3335H10.6667V51.0002H37.6408V29.3335Z" fill="white"/>
</mask>
<g mask="url(#mask5_100_4261)">
<path d="M26.3079 34.7036L25.5898 34.6411C27.0572 35.8899 28.4933 37.4509 29.586 39.0119L29.8982 38.5748C28.868 37.2012 27.5879 35.8275 26.3079 34.7036Z" fill="white"/>
</g>
<mask id="mask6_100_4261" style="mask-type:luminance" maskUnits="userSpaceOnUse" x="10" y="29" width="28" height="22">
<path d="M37.6408 29.3335H10.6667V51.0002H37.6408V29.3335Z" fill="white"/>
</mask>
<g mask="url(#mask6_100_4261)">
<path d="M33.145 44.3816C33.1137 44.4128 33.145 44.4753 33.145 44.5377C33.1762 44.7875 33.1762 45.0372 33.0825 45.287C33.0201 45.4743 32.8328 45.8177 32.7079 45.9738C32.6767 46.005 32.7703 45.9738 32.8015 45.9738C32.8015 45.9738 33.0825 45.7241 33.2698 45.4119C33.4884 45.0372 33.582 44.5377 33.5508 44.1318C33.4259 44.1943 33.3323 44.2567 33.2074 44.3192C33.1762 44.3504 33.145 44.3504 33.145 44.3816Z" fill="white"/>
</g>
<mask id="mask7_100_4261" style="mask-type:luminance" maskUnits="userSpaceOnUse" x="10" y="29" width="28" height="22">
<path d="M37.6408 29.3335H10.6667V51.0002H37.6408V29.3335Z" fill="white"/>
</mask>
<g mask="url(#mask7_100_4261)">
<path d="M33.9569 49.7512C33.9569 49.7512 32.9266 50.6566 31.4905 50.6566C24.747 50.6566 13.6014 39.3237 14.6941 32.4241C14.6941 32.3304 14.8814 32.7363 14.9126 32.8299C14.9439 33.0173 14.9439 33.0173 14.9439 33.0797C14.7878 39.4798 24.8718 50.2507 31.8027 50.2507C33.2388 50.2507 33.9569 49.7512 33.9569 49.7512Z" fill="white"/>
</g>
<mask id="mask8_100_4261" style="mask-type:luminance" maskUnits="userSpaceOnUse" x="10" y="29" width="28" height="22">
<path d="M37.6408 29.3335H10.6667V51.0002H37.6408V29.3335Z" fill="white"/>
</mask>
<g mask="url(#mask8_100_4261)">
<path d="M15.8492 44.4126C14.6316 42.4458 17.3165 38.793 21.4688 35.952C24.1537 34.1412 26.7762 32.8924 28.7431 32.9861C28.7743 32.9236 28.8055 32.9236 28.868 32.83C29.3675 32.3929 29.7733 31.8621 30.2729 31.4251C27.4631 31.269 23.9352 32.2992 20.6571 34.5471C14.9438 38.4184 12.0716 44.3502 14.2257 47.8156C14.7253 48.5961 15.4433 49.1893 16.3175 49.5951C16.3799 48.2527 16.2863 46.0048 15.9428 44.8185C15.8804 44.6624 15.8804 44.5063 15.8492 44.4126Z" fill="white"/>
</g>
<mask id="mask9_100_4261" style="mask-type:luminance" maskUnits="userSpaceOnUse" x="10" y="29" width="28" height="22">
<path d="M37.6408 29.3335H10.6667V51.0002H37.6408V29.3335Z" fill="white"/>
</mask>
<g mask="url(#mask9_100_4261)">
<path d="M33.988 37.5134C33.9256 37.1699 33.8944 37.1387 33.7383 36.9202C33.6134 36.7329 33.5197 36.6704 33.1451 36.327C32.6768 35.9524 31.6778 35.5153 31.6778 35.5465C31.5841 36.2646 31.3343 37.1387 30.9597 37.8568C30.6163 38.5436 29.6797 39.6676 29.2426 40.0734C30.1167 39.9798 31.7714 39.5115 32.3958 39.168C33.3012 38.7309 34.1754 38.2939 33.988 37.5134Z" fill="white"/>
</g>
<mask id="mask10_100_4261" style="mask-type:luminance" maskUnits="userSpaceOnUse" x="10" y="29" width="28" height="22">
<path d="M37.6408 29.3335H10.6667V51.0002H37.6408V29.3335Z" fill="white"/>
</mask>
<g mask="url(#mask10_100_4261)">
<path d="M26.7138 43.3511C26.183 43.4136 25.2464 43.1326 26.3079 43.6633C33.1763 43.1326 35.1744 41.353 35.1744 41.353C35.1744 41.353 32.9578 42.8204 26.7138 43.3511Z" fill="white"/>
</g>
<mask id="mask11_100_4261" style="mask-type:luminance" maskUnits="userSpaceOnUse" x="10" y="29" width="28" height="22">
<path d="M37.6408 29.3335H10.6667V51.0002H37.6408V29.3335Z" fill="white"/>
</mask>
<g mask="url(#mask11_100_4261)">
<path d="M15.2248 42.3837C16.7234 42.9456 18.3781 43.3203 19.6893 43.4139L19.3147 43.0393C19.3147 43.0393 15.5683 42.6022 14.9126 41.8529C14.7877 41.6968 14.8502 41.6968 14.8502 41.7905C14.819 41.9154 14.819 42.009 14.819 42.1339C14.819 42.1651 14.9751 42.29 15.2248 42.3837Z" fill="white"/>
</g>
<mask id="mask12_100_4261" style="mask-type:luminance" maskUnits="userSpaceOnUse" x="10" y="29" width="28" height="22">
<path d="M37.6408 29.3335H10.6667V51.0002H37.6408V29.3335Z" fill="white"/>
</mask>
<g mask="url(#mask12_100_4261)">
<path d="M11.5719 37.5444C11.5719 37.5444 11.2909 37.9191 11.2909 38.8557C11.3534 40.6977 14.0695 41.9465 14.0695 41.9465L14.1944 41.6655C14.1944 41.6655 13.6636 41.4157 13.6324 41.3845C13.1017 41.1347 12.6958 40.7913 12.29 40.3542C12.1651 40.2294 12.0714 40.1045 11.9778 39.9484C11.7904 39.6674 11.6031 39.3552 11.5407 39.043C11.4782 38.762 11.4782 38.3874 11.4782 38.1064C11.4782 37.9503 11.5095 37.763 11.5407 37.6069C11.5719 37.5757 11.5719 37.5444 11.5719 37.5444Z" fill="white"/>
</g>
<mask id="mask13_100_4261" style="mask-type:luminance" maskUnits="userSpaceOnUse" x="10" y="29" width="28" height="22">
<path d="M37.6408 29.3335H10.6667V51.0002H37.6408V29.3335Z" fill="white"/>
</mask>
<g mask="url(#mask13_100_4261)">
<path d="M19.0962 35.8896C18.8464 36.1081 18.4093 36.4516 18.1908 36.6389C17.7225 37.076 17.2854 37.5131 16.8483 38.0126C16.0054 39.0116 15.1624 40.0731 14.5693 41.2282C14.1946 41.9151 14.0385 42.477 13.7887 43.2575C13.5078 44.1629 13.4453 45.5366 13.6326 46.4732C13.82 47.441 14.2883 48.003 14.819 48.5962C15.0376 48.8459 16.1303 49.6889 14.9127 48.2528C14.4132 47.6596 13.9448 46.4732 13.8824 45.6927C13.82 44.8498 13.8824 44.319 14.1009 43.5073C14.3507 42.5395 14.7878 41.5092 15.2873 40.6975C15.5683 40.2292 16.8483 38.4497 17.1917 38.0438C17.5664 37.6067 18.1283 37.1696 18.5342 36.7638C19.0337 36.2955 19.2523 35.7647 19.0962 35.8896Z" fill="white"/>
</g>
<mask id="mask14_100_4261" style="mask-type:luminance" maskUnits="userSpaceOnUse" x="10" y="29" width="28" height="22">
<path d="M37.6408 29.3335H10.6667V51.0002H37.6408V29.3335Z" fill="white"/>
</mask>
<g mask="url(#mask14_100_4261)">
<path d="M15.6618 40.1355C16.0989 39.3863 16.9418 38.2311 17.1916 37.9501C17.9721 37.0135 18.5965 36.2955 18.8775 36.0457C19.0024 35.9521 20.6882 34.4847 20.7819 34.4535C20.9068 34.4223 21.7497 34.3911 21.937 34.3911C22.78 34.3286 24.1849 34.3286 24.1537 34.3286C23.9351 34.4223 21.0941 36.233 20.9068 36.3579C19.2209 37.5755 18.1282 38.8555 17.2853 40.0731C16.8794 40.6663 16.536 41.3219 16.3486 42.0087C16.1613 42.6019 15.974 43.2888 16.0364 43.9132C16.1613 44.9747 17.0979 46.0674 18.097 46.3796C18.6902 46.5669 19.3458 46.5981 19.939 46.5669C20.8443 46.5357 21.8746 46.161 22.0619 46.0674C22.0619 46.0674 22.6551 46.5669 23.061 46.9103C23.498 47.2849 24.0912 47.722 24.1849 47.7845C24.2785 47.8469 24.7156 48.1591 24.7468 48.1903L25.3712 48.5962C22.499 49.9699 20.376 50.0635 19.1897 50.0947C18.3467 50.0947 17.5975 49.8762 17.0355 49.7513C16.7857 49.6889 16.0052 49.3142 15.6306 49.0645C15.6306 49.0645 13.8198 47.9406 13.8198 45.0371C13.8823 42.5707 15.6618 40.1355 15.6618 40.1355Z" fill="white"/>
</g>
<mask id="mask15_100_4261" style="mask-type:luminance" maskUnits="userSpaceOnUse" x="10" y="29" width="28" height="22">
<path d="M37.6408 29.3335H10.6667V51.0002H37.6408V29.3335Z" fill="white"/>
</mask>
<g mask="url(#mask15_100_4261)">
<path d="M35.4242 35.8586C34.5501 35.2967 33.3637 34.8284 33.3637 34.8284L31.5217 34.2352C31.4593 34.204 31.3969 33.5171 29.992 32.9864C29.5237 32.799 28.9929 32.6429 27.1509 32.9551C27.0573 32.9864 26.2455 33.1425 25.465 33.4547C24.8094 33.7044 25.0904 33.4859 24.747 33.4859C24.2475 33.5171 22.4055 33.4234 22.4679 33.4234C25.2465 32.0498 25.6836 31.9249 26.9948 31.5815C28.5246 31.1756 29.8046 31.3005 30.3042 31.3317C31.3344 31.4254 31.7403 31.5815 32.2398 31.7376C32.9266 31.9873 33.4262 32.2059 33.8632 32.6429C34.7686 33.4547 35.2369 34.3288 35.4242 35.8586Z" fill="white"/>
</g>
<mask id="mask16_100_4261" style="mask-type:luminance" maskUnits="userSpaceOnUse" x="10" y="29" width="28" height="22">
<path d="M37.6408 29.3335H10.6667V51.0002H37.6408V29.3335Z" fill="white"/>
</mask>
<g mask="url(#mask16_100_4261)">
<path d="M18.4405 34.2037L18.5029 34.5159L18.5966 34.8281C20.0639 34.4534 21.9995 34.3598 23.9664 34.3285C29.2114 34.2349 34.0193 35.9208 33.9881 37.7627C34.0817 37.5754 33.9568 37.0759 33.8632 36.7949C33.6446 36.2017 32.6144 35.3588 30.9909 34.8905C29.6797 34.4846 27.5255 33.8602 24.5596 33.7666C22.9674 33.7354 19.5644 33.9227 18.4405 34.2037Z" fill="white"/>
</g>
<mask id="mask17_100_4261" style="mask-type:luminance" maskUnits="userSpaceOnUse" x="10" y="29" width="28" height="22">
<path d="M37.6408 29.3335H10.6667V51.0002H37.6408V29.3335Z" fill="white"/>
</mask>
<g mask="url(#mask17_100_4261)">
<path d="M15.0062 36.2954L15.1311 36.6388C15.1311 36.6388 14.9125 36.8574 14.8813 36.9198C14.6003 37.232 14.6003 37.5442 14.6003 37.5442C14.6003 37.5442 14.4442 37.0135 15.0062 36.2954Z" fill="white"/>
</g>
<mask id="mask18_100_4261" style="mask-type:luminance" maskUnits="userSpaceOnUse" x="10" y="29" width="28" height="22">
<path d="M37.6408 29.3335H10.6667V51.0002H37.6408V29.3335Z" fill="white"/>
</mask>
<g mask="url(#mask18_100_4261)">
<path d="M27.026 33.5171C27.026 33.5171 22.3117 33.1112 18.4092 33.8917L18.4717 34.3288C18.4717 34.3288 20.1263 33.9542 22.3429 33.8917C22.9673 33.8917 24.06 33.8293 24.622 33.8605C26.0269 33.923 26.7138 33.8917 27.8065 34.0791" fill="white"/>
</g>
</svg>
