<svg width="192" height="48" viewBox="0 0 192 48" fill="none" xmlns="http://www.w3.org/2000/svg">
<g clip-path="url(#clip0_2325_15394)">
<path d="M107.075 20.3623H111.522L113.781 27.5967L115.875 20.3623H120.013L115.669 31.9748C115.175 33.2956 114.67 34.1894 114.153 34.6561C113.424 35.3102 112.314 35.6373 110.822 35.6373C109.881 35.6105 108.941 35.5281 108.01 35.3904L107.678 32.4873C108.334 32.6845 109.016 32.7803 109.7 32.7717C110.125 32.7928 110.546 32.6743 110.897 32.4342C111.27 32.1163 111.542 31.6973 111.681 31.2279L107.075 20.3623Z" fill="white"/>
<path d="M103.063 24.9344C102.982 24.126 102.766 23.5469 102.416 23.1969C102.237 23.0201 102.024 22.8823 101.79 22.7919C101.555 22.7016 101.305 22.6607 101.054 22.6719C100.748 22.665 100.445 22.7339 100.173 22.8724C99.9 23.0109 99.6658 23.2147 99.4911 23.4656C99.2045 23.904 99.0405 24.4112 99.0161 24.9344H103.063ZM107.244 26.9094H99.0224C99.0435 27.4592 99.2237 27.9911 99.5411 28.4406C99.7291 28.6715 99.968 28.8556 100.239 28.9787C100.51 29.1018 100.806 29.1604 101.104 29.15C101.508 29.1477 101.904 29.0399 102.254 28.8375C102.533 28.6588 102.777 28.4299 102.972 28.1625L107 28.4969C106.498 29.4872 105.728 30.3173 104.779 30.8937C103.904 31.3646 102.654 31.601 101.029 31.6031C99.6057 31.6031 98.488 31.401 97.6755 30.9969C96.8283 30.554 96.124 29.88 95.6442 29.0531C95.097 28.0929 94.8215 27.0018 94.8474 25.8969C94.8474 24.1875 95.3724 22.8375 96.4411 21.7844C97.5099 20.7313 98.9974 20.1875 100.891 20.1875C102.425 20.1875 103.654 20.425 104.541 20.8969C105.415 21.3553 106.125 22.0738 106.572 22.9531C107.078 24.0517 107.317 25.2541 107.269 26.4625L107.244 26.9094Z" fill="white"/>
<path d="M82.2314 20.3624H86.0939V22.2937C86.5861 21.6361 87.2057 21.0845 87.9158 20.6718C88.5943 20.3342 89.3459 20.1699 90.1033 20.1937C91.2658 20.1937 92.1741 20.5426 92.8283 21.2405C93.4825 21.9385 93.8127 23.0082 93.8189 24.4499V31.4405H89.6189V25.3968C89.6189 24.7093 89.4689 24.2155 89.2158 23.9343C89.0802 23.7864 88.9134 23.6704 88.7275 23.5947C88.5416 23.5191 88.3412 23.4856 88.1408 23.4968C87.9015 23.489 87.6637 23.5375 87.4466 23.6385C87.2294 23.7394 87.0391 23.89 86.8908 24.078C86.5762 24.4655 86.4189 25.1593 86.4189 26.1593V31.4405H82.2314V20.3624Z" fill="white"/>
<path d="M73.1817 25.9211C73.1817 26.8961 73.3776 27.6159 73.7692 28.0805C73.9501 28.3039 74.1794 28.4833 74.4398 28.6051C74.7002 28.7269 74.9849 28.788 75.2724 28.7836C75.5566 28.7901 75.8386 28.7312 76.0965 28.6115C76.3544 28.4917 76.5814 28.3143 76.7599 28.093C77.1505 27.6336 77.3474 26.8992 77.3474 25.8836C77.3474 24.9378 77.1515 24.2346 76.7599 23.7742C76.5865 23.5545 76.3651 23.3775 76.1127 23.2566C75.8602 23.1358 75.5834 23.0745 75.3036 23.0773C75.0133 23.0701 74.7253 23.1305 74.4623 23.2536C74.1993 23.3767 73.9684 23.5592 73.788 23.7867C73.3838 24.2513 73.1817 24.9628 73.1817 25.9211ZM68.9724 25.9211C68.9485 25.1552 69.0867 24.3929 69.3781 23.6841C69.6695 22.9754 70.1073 22.3363 70.663 21.8086C71.7901 20.7273 73.314 20.1857 75.2349 20.1836C77.4286 20.1836 79.0869 20.818 80.2099 22.0867C81.137 23.2151 81.6158 24.6455 81.5547 26.1047C81.4936 27.5638 80.8969 28.9492 79.8786 29.9961C78.7661 31.0628 77.2224 31.5961 75.2474 31.5961C73.4849 31.5961 72.0599 31.1503 70.9724 30.2586C70.3274 29.7406 69.8112 29.0803 69.4642 28.3293C69.1172 27.5784 68.9489 26.7573 68.9724 25.9305V25.9211Z" fill="white"/>
<path d="M51.5156 16.334H57.5562L59.9375 25.4809L62.2562 16.334H68.3V31.4402H64.5562L64.5219 19.9434L61.6312 31.4402H58.2125L55.2906 19.9434L55.2969 31.4402H51.5156V16.334Z" fill="white"/>
<path d="M46.616 25.2465L50.6785 26.4684C50.4539 27.4958 50.014 28.464 49.3879 29.309C48.815 30.0569 48.0626 30.6481 47.2004 31.0277C46.1455 31.4453 45.0154 31.639 43.8816 31.5965C42.2483 31.5965 40.9118 31.3621 39.8723 30.8934C38.7559 30.3398 37.8269 29.4705 37.2004 28.3934C36.4483 27.2059 36.0723 25.6861 36.0723 23.834C36.0723 21.3632 36.7316 19.4663 38.0504 18.1434C39.3691 16.8204 41.2441 16.1548 43.6754 16.1465C45.565 16.1465 47.0504 16.5267 48.1316 17.2871C49.2129 18.0475 50.0191 19.2152 50.5504 20.7902L46.4504 21.6965C46.3546 21.3413 46.2027 21.0037 46.0004 20.6965C45.7569 20.355 45.4356 20.0764 45.0629 19.884C44.4339 19.583 43.7184 19.5158 43.0444 19.6945C42.3704 19.8732 41.782 20.286 41.3848 20.859C40.9598 21.484 40.7598 22.4652 40.7598 23.8027C40.7598 25.459 41.0118 26.5954 41.516 27.2121C41.7764 27.5189 42.1044 27.7612 42.4742 27.9201C42.8439 28.079 43.2454 28.15 43.6473 28.1277C44.5368 28.1277 45.2066 27.8798 45.6566 27.384C46.1594 26.7686 46.4904 26.0312 46.616 25.2465Z" fill="white"/>
<path d="M12.7311 16.2129L8.7873 20.9098H4.2373L9.09043 16.2129H12.7311Z" fill="white"/>
<path d="M23.0873 20.9098L19.1436 16.2129H22.7842L27.6373 20.9098H23.0873Z" fill="white"/>
<path d="M23.1096 22.0684H27.6377L18.2783 34.7559L23.1096 22.0684Z" fill="white"/>
<path d="M17.616 16.2129L21.5066 20.9098H10.3691L14.2598 16.2129H17.616Z" fill="white"/>
<path d="M8.7873 22.0684L13.5967 34.7559L4.2373 22.0684H8.7873Z" fill="white"/>
<path d="M15.9379 36.9996L10.3691 22.0684H21.5066L15.9379 36.9996Z" fill="white"/>
<path d="M18.0189 11.0688L17.1127 9.29688L15.9377 7L14.7627 9.29688L13.8564 11.0688C15.237 10.8729 16.6384 10.8729 18.0189 11.0688Z" fill="white"/>
<path d="M8.91211 10.8496L6.72461 9.44336L6.86522 12.0152L6.97461 13.9996C8.07199 13.1409 9.28766 12.4451 10.584 11.934L8.91211 10.8496Z" fill="white"/>
<path d="M2.59687 16.2598L0 16.1191L1.42187 18.2754L2.51562 19.9348C3.03217 18.6503 3.73331 17.4481 4.59688 16.366L2.59687 16.2598Z" fill="white"/>
<path d="M31.8752 16.1191L29.2783 16.2598L27.2783 16.366C28.1419 17.4481 28.843 18.6503 29.3596 19.9348L30.4533 18.2754L31.8752 16.1191Z" fill="white"/>
<path d="M24.9973 12.0152L25.1379 9.44336L22.9504 10.8496L21.2754 11.934C22.5684 12.4459 23.7809 13.1416 24.8754 13.9996L24.9973 12.0152Z" fill="white"/>
</g>
<path d="M136.08 16.2V25.9H140.18V27.74H135.86V29.68H140.18V31.54H135.1V33.56H147.24V31.54H142.26V29.68H146.56V27.74H142.26V25.9H146.32V16.2H136.08ZM144.32 24.06H142.26V21.94H144.32V24.06ZM140.18 24.06H138.08V21.94H140.18V24.06ZM138.08 20.16V18.04H140.18V20.16H138.08ZM142.26 18.04H144.32V20.16H142.26V18.04ZM129.22 22.76V24.76H131.12V29.16C130.34 29.36 129.54 29.52 128.72 29.66L129.24 31.66C131.32 31.16 133.28 30.56 135.12 29.84V27.82C134.5 28.08 133.88 28.32 133.24 28.54V24.76H135.18V22.76H133.24V18.68H135.42V16.7H128.92V18.68H131.12V22.76H129.22ZM161.92 21.14C160.84 24.54 159.14 27.32 156.82 29.48L157.94 31.36C160.18 29.04 161.88 26.18 163 22.78V31.14C163 31.78 162.72 32.12 162.16 32.12C161.5 32.12 160.82 32.06 160.1 31.98L160.52 33.9H162.84C164.28 33.9 165 33.14 165 31.64V21.14H167.2V19.24H165V15.7H163V19.24H157.78V21.14H161.92ZM149.82 16.2V28.84H157.04V16.2H149.82ZM155.02 27H151.84V25.12H155.02V27ZM151.84 23.4V21.6H155.02V23.4H151.84ZM151.84 19.88V18.04H155.02V19.88H151.84ZM155.56 29.14L154.04 30.1C154.9 31.36 155.58 32.52 156.1 33.56L157.68 32.46C157.18 31.52 156.48 30.42 155.56 29.14ZM151.18 29.36C150.64 30.54 149.92 31.74 149.02 32.98L150.74 33.88C151.6 32.68 152.3 31.44 152.86 30.16L151.18 29.36ZM179.7 20.16H180.98V20.76H179.14C179.34 20.6 179.52 20.4 179.7 20.16ZM178.62 20.76H177.66V22.06H180.98V22.96H179.78V22.38H178.12V24.12H185.72V22.38H184.08V22.96H182.88V22.06H186V20.76H182.88V20.16H184.94V19.72H186.7V16.56H179.06C178.88 16.12 178.7 15.74 178.54 15.4L176.44 15.76C176.6 16 176.76 16.26 176.92 16.56H169.48V19.72H170.6V20.06H172.98V20.7H170.98V22.02H172.98V22.74L170.18 22.8L170.38 24.26C173.66 24.16 175.96 24.06 177.3 23.94V22.56C176.58 22.6 175.74 22.64 174.78 22.68V22.02H176.76V20.7H174.78V20.06H177.24V18.7H171.4V18.08H184.76V18.92H180.34C180.38 18.8 180.42 18.64 180.46 18.48L178.94 18.22C178.74 18.98 178.3 19.6 177.64 20.06L178.62 20.76ZM171.68 24.7V31.8H174.68C173.28 32.2 171.4 32.54 169.04 32.82L169.86 34.24C172.7 33.84 174.86 33.34 176.38 32.72L175.68 31.8H180.26L179.72 32.8C182.04 33.14 184.28 33.62 186.4 34.22L187.04 32.72C185.34 32.32 183.56 32.02 181.7 31.8H184.58V24.7H171.68ZM182.6 30.42H173.66V29.68H182.6V30.42ZM173.66 28.5V27.8H182.6V28.5H173.66ZM173.66 26.62V25.98H182.6V26.62H173.66Z" fill="white"/>
<defs>
<clipPath id="clip0_2325_15394">
<rect width="120" height="30" fill="white" transform="translate(0 7)"/>
</clipPath>
</defs>
</svg>
