<svg width="160" height="80" viewBox="0 0 160 80" fill="none" xmlns="http://www.w3.org/2000/svg">
<path d="M58.3404 62.564C58.0965 63.1911 57.783 63.8181 57.4346 64.4104V70.1934H57.0514V65.0026C56.703 65.4903 56.3546 65.9432 55.9714 66.3264C55.9366 66.2568 55.7972 66.0477 55.6927 65.9432C56.5985 65.1071 57.4346 63.7833 57.9572 62.4595L58.3404 62.564ZM63.6357 65.4903H62.9389V68.0335H62.5209V67.5457H60.3958C60.1868 68.556 59.5945 69.5315 58.1662 70.2282C58.0965 70.1586 57.992 69.9844 57.8875 69.9147C59.2113 69.3225 59.7687 68.4515 59.9777 67.5806H58.3752V67.1974H60.0823C60.1519 66.7793 60.1519 66.3961 60.1519 66.0129V65.5252H57.8875V65.142H60.1519V63.4349H58.5146V63.0517H62.9389V65.1071H63.6357V65.4903ZM62.5557 65.4903H60.57V65.9781C60.57 66.3613 60.57 66.7445 60.5003 67.1625H62.5557V65.4903ZM60.5351 65.0723H62.5209V63.4349H60.5351V65.0723Z" fill="white"/>
<path d="M76.665 69.7055C77.0482 69.7055 77.1179 69.5313 77.1527 68.3817C77.2572 68.4514 77.4314 68.521 77.5359 68.5559C77.4663 69.81 77.3618 70.0887 76.6998 70.0887H75.2018C74.5051 70.0887 74.3309 69.9494 74.3309 69.4268V67.2669H72.8677C72.6587 68.7649 72.0665 69.7404 70.0807 70.1932C70.0459 70.0887 69.9414 69.9145 69.8369 69.81C71.7181 69.4268 72.2406 68.5559 72.4148 67.2321H70.9517V64.8283H73.4251V63.7135H69.9762V63.3303H73.4251V62.3896H73.8432V63.3303H77.3269V63.7135H73.8432V64.8283H76.3515V67.2321H74.7141V69.392C74.7141 69.6358 74.7838 69.6707 75.2018 69.6707H76.665V69.7055ZM71.3697 66.8837H75.9334V65.2463H71.3697V66.8837Z" fill="white"/>
<path d="M90.4954 65.0721H86.3149L86.6633 65.1766C86.4891 65.4553 86.2801 65.7688 86.0362 66.0475H89.729L89.7987 66.0127L90.0774 66.1869C89.0322 68.6603 86.5936 69.7054 83.8763 70.1583C83.8414 70.0538 83.7369 69.8796 83.6324 69.81C84.9214 69.6009 86.1756 69.2526 87.2207 68.6952C86.8375 68.2423 86.1756 67.65 85.6182 67.232L85.9317 67.023C86.4891 67.441 87.1858 68.0332 87.5691 68.4861C88.3703 67.9636 89.0322 67.3017 89.4503 66.4307H85.653C85.1653 66.8836 84.573 67.3017 84.0156 67.6152C83.946 67.5107 83.8414 67.3713 83.7718 67.3017C84.8169 66.7791 85.7923 65.9082 86.2452 65.0721H83.9111V62.8076H90.4954V65.0721ZM85.9317 63.1908H84.3292V64.7237H85.9317V63.1908ZM87.9871 63.1908H86.3149V64.7237H87.9871V63.1908ZM90.0774 63.1908H88.3703V64.7237H90.0774V63.1908Z" fill="white"/>
<path d="M98.9261 64.4102C98.7171 64.7934 98.4384 65.2115 98.1597 65.5947V70.1932H97.7765V66.1173C97.4281 66.5353 97.1146 66.9534 96.7662 67.2669C96.7314 67.1972 96.592 67.023 96.4875 66.9185C97.2191 66.2566 98.0203 65.2463 98.5429 64.2709L98.9261 64.4102ZM98.7519 62.5987C98.2294 63.2954 97.4281 64.0967 96.7313 64.6192C96.6965 64.5496 96.592 64.3754 96.4875 64.3057C97.1146 63.818 97.9158 63.0516 98.3339 62.4245L98.7519 62.5987ZM98.5777 69.7055C98.9261 69.2875 99.2396 68.5907 99.4138 68.103L99.7622 68.2423C99.5532 68.7649 99.3093 69.4617 98.9609 69.9145L98.5777 69.7055ZM104.361 66.9882V67.3366H98.8913V66.9882H104.361ZM101.156 64.2709C101.191 64.0618 101.225 63.818 101.295 63.5393H98.9609V63.1909H101.33C101.365 62.9122 101.4 62.6335 101.434 62.3896L101.852 62.4245C101.818 62.6684 101.783 62.9122 101.748 63.1909H104.326V63.5393H101.678C101.643 63.818 101.574 64.0618 101.539 64.2709H103.978V66.3263H99.379V64.2709H101.156ZM100.738 64.6192H99.6925V65.9779H100.738V64.6192ZM102.34 69.7055C102.619 69.7055 102.689 69.601 102.723 68.8346C102.828 68.9043 102.967 68.9391 103.072 68.9739C103.037 69.8449 102.898 70.0539 102.375 70.0539H100.982C100.354 70.0539 100.18 69.9494 100.18 69.4965V68.0682H100.563V69.4965C100.563 69.6707 100.633 69.7055 100.982 69.7055H102.34ZM101.365 67.4759C101.609 67.8243 101.922 68.2772 102.061 68.5559L101.748 68.7301C101.609 68.4514 101.295 67.9636 101.086 67.6153L101.365 67.4759ZM102.166 64.6192H101.086V65.9779H102.166V64.6192ZM102.48 65.9779H103.559V64.6192H102.48V65.9779ZM103.49 67.9985C103.803 68.521 104.187 69.2178 104.361 69.6358L104.012 69.81C103.838 69.392 103.49 68.6604 103.176 68.1378L103.49 67.9985Z" fill="white"/>
<path d="M43.7434 56.6068C43.1164 57.3383 42.3151 57.6867 41.27 57.6867C40.4687 57.6867 39.8068 57.408 39.2494 56.8855C38.692 56.3629 38.4133 55.6313 38.3785 54.7604H43.7783C44.684 54.7604 45.346 53.8894 44.9976 53.0882C44.7886 52.6353 44.5099 52.2172 44.1266 51.8689C43.3951 51.1721 42.4544 50.8237 41.3745 50.8237C40.3294 50.8237 39.3191 51.1721 38.5875 51.8689C37.7514 52.6353 37.3333 53.6107 37.3333 54.7255C37.3333 55.7707 37.7165 56.6764 38.483 57.4429C39.2494 58.2093 40.19 58.5925 41.3396 58.5925C42.977 58.5925 44.1963 57.8609 45.0324 56.3977C44.6144 56.119 44.057 56.2235 43.7434 56.6068ZM41.3396 51.6947C42.0364 51.6947 42.6635 51.9037 43.2209 52.2869C43.5344 52.5308 43.7783 52.8095 43.9873 53.1578C44.1615 53.5062 43.8828 53.9243 43.4647 53.9243H38.483C38.9359 52.4263 39.8765 51.6947 41.3396 51.6947Z" fill="white"/>
<path d="M54.6475 56.6414C53.8463 57.3033 52.9057 57.6169 51.8257 57.6169C50.6064 57.6169 49.5613 57.2337 48.7252 56.4324C47.8891 55.6311 47.5058 54.6557 47.5058 53.4712C47.5058 52.3216 47.9239 51.3113 48.76 50.51C49.5961 49.7088 50.6064 49.2907 51.756 49.2907C52.8708 49.2907 53.8463 49.6391 54.6475 50.3358C55.0307 50.6842 55.623 50.6842 56.0062 50.3707C55.5185 49.7088 54.9262 49.221 54.1598 48.8727C53.4282 48.5243 52.5921 48.3501 51.7212 48.3501C50.7457 48.3501 49.84 48.5591 49.0387 49.012C48.2374 49.4649 47.5755 50.0571 47.1226 50.8236C46.6698 51.59 46.4259 52.4609 46.4259 53.3667C46.4259 54.8647 46.9136 56.084 47.9239 57.0595C48.8994 58.0349 50.1883 58.5226 51.756 58.5226C52.6618 58.5226 53.4631 58.3485 54.1947 58.0349C54.9262 57.7214 55.5533 57.2337 56.041 56.6066C55.6578 56.293 55.0656 56.3279 54.6475 56.6414Z" fill="white"/>
<path d="M57.8526 49.3254V58.5573C58.41 58.5573 58.828 58.1393 58.828 57.6167V48.3848C58.2706 48.3848 57.8526 48.8028 57.8526 49.3254Z" fill="white"/>
<path d="M67.3632 51.9382C66.562 51.137 65.5865 50.7886 64.4021 50.7886C63.3569 50.8234 62.3466 51.2415 61.6499 51.9731C60.8835 52.7395 60.5351 53.6452 60.5351 54.6904C60.5351 55.7355 60.9183 56.6413 61.6847 57.4077C62.4512 58.1741 63.3918 58.5573 64.5414 58.5573C65.691 58.5573 66.6317 58.1741 67.3981 57.4077C68.1645 56.6413 68.5477 55.7355 68.5477 54.6904C68.5477 53.6104 68.1645 52.7046 67.3632 51.9382ZM66.6665 56.7806C66.0743 57.338 65.3775 57.6516 64.5414 57.6516C63.6705 57.6516 62.9737 57.3729 62.3815 56.7806C61.8241 56.2232 61.5454 55.5613 61.5105 54.7601C61.5105 53.9588 61.8241 53.1924 62.3815 52.6001C62.9737 52.0079 63.6705 51.7292 64.5066 51.7292C65.3078 51.7292 66.0046 52.0079 66.6317 52.6001C67.2239 53.1924 67.5374 53.8891 67.5374 54.6904C67.5374 55.5265 67.2587 56.2232 66.6665 56.7806Z" fill="white"/>
<path d="M76.9436 50.9977C76.421 50.9977 75.9681 51.4158 75.9681 51.9035C75.9681 51.9035 76.0378 55.5614 75.8636 56.0492C75.7591 56.3279 75.6546 56.6066 75.4455 56.8504C75.2365 57.0943 74.9927 57.2685 74.6791 57.4078C74.3656 57.5472 74.0172 57.6169 73.5992 57.6169C73.216 57.6169 72.8327 57.5472 72.554 57.4078C72.2405 57.2685 71.9966 57.0943 71.7876 56.8504C71.5786 56.6066 71.4392 56.3279 71.3696 56.0143C71.2302 55.4569 71.265 50.9629 71.265 50.9629H71.2302C70.7076 50.9629 70.2548 51.3809 70.2548 51.8687V54.5512C70.2548 55.5963 70.3941 56.3975 70.638 56.9201C70.9167 57.4427 71.2999 57.8607 71.7876 58.1046C72.3102 58.3833 72.9024 58.5226 73.5992 58.5226C74.3307 58.5226 74.9578 58.3833 75.4455 58.1046C75.9333 57.8259 76.3165 57.4427 76.5952 56.9201C76.839 56.3975 76.9784 55.6311 76.9784 54.586V50.9629H76.9436V50.9977Z" fill="white"/>
<path d="M85.9316 49.2909V52.3218C85.1652 51.3115 84.12 50.789 82.8659 50.789C81.7511 50.789 80.7756 51.207 79.9744 52.0083C79.2428 52.7399 78.8596 53.7153 78.8944 54.7256C78.9293 55.7707 79.3125 56.6417 80.0441 57.4081C80.8105 58.1745 81.7511 58.5577 82.8311 58.5577C84.0155 58.5577 85.0607 58.07 85.9316 57.0597V58.5577C86.4542 58.5577 86.907 58.1048 86.907 57.5823V48.42C86.3496 48.3852 85.9316 48.8032 85.9316 49.2909ZM85.0607 56.8158C84.4336 57.3732 83.7368 57.6519 82.9356 57.6519C82.0995 57.6519 81.3679 57.3732 80.7756 56.7462C80.1834 56.1539 79.8699 55.4572 79.8699 54.6559C79.8699 53.8547 80.1486 53.1579 80.7408 52.5657C81.3331 51.9734 82.0646 51.6947 82.9356 51.6947C83.8065 51.6947 84.5381 51.9734 85.1303 52.5657C85.7226 53.1579 86.0013 53.8546 86.0013 54.6907C85.9664 55.5617 85.6529 56.2584 85.0607 56.8158Z" fill="white"/>
<path d="M117.46 55.9794C116.937 55.7356 116.31 55.8401 115.927 56.2581C115.404 56.8852 114.707 57.1639 113.836 57.1639C113.175 57.1639 112.617 56.9549 112.164 56.502C111.746 56.1188 111.537 55.5962 111.433 55.004H116.136C116.658 55.004 117.111 54.7601 117.39 54.3421C117.634 53.9588 117.669 53.506 117.529 53.0879C117.32 52.635 117.041 52.217 116.658 51.8686C115.927 51.2067 115.021 50.8235 113.941 50.8235C112.896 50.7886 111.886 51.1718 111.189 51.8686C110.388 52.635 109.969 53.5756 109.969 54.6904C109.969 55.7356 110.353 56.6413 111.084 57.4078C111.816 58.1742 112.791 58.5226 113.941 58.5226C115.543 58.5226 116.763 57.791 117.599 56.3626L117.738 56.1188L117.46 55.9794ZM113.871 52.1821C114.463 52.1821 114.986 52.3563 115.439 52.6699C115.718 52.8789 115.892 53.1227 116.066 53.4014C116.101 53.4711 116.066 53.5408 116.066 53.5756C116.031 53.6453 115.927 53.715 115.822 53.715H111.642C112.025 52.7047 112.756 52.1821 113.871 52.1821ZM109.029 51.3809C108.855 51.1022 108.576 50.9628 108.262 50.9628H108.088L105.998 55.5265C105.963 55.631 105.824 55.631 105.789 55.5265L103.699 50.9628H103.525C103.211 50.9628 102.897 51.1022 102.758 51.3809C102.619 51.6247 102.584 51.9383 102.688 52.1821L105.684 58.3832C105.789 58.5574 106.033 58.5574 106.137 58.3832L109.099 52.1821C109.203 51.9383 109.168 51.6247 109.029 51.3809ZM100.633 51.9731C99.8317 51.2067 98.8563 50.8235 97.7067 50.8235C96.6615 50.8583 95.6861 51.2764 94.9545 52.0079C94.2229 52.7395 93.8397 53.6801 93.8397 54.6904C93.8397 55.7356 94.2229 56.6413 94.9893 57.4078C95.7558 58.1742 96.6964 58.5226 97.8112 58.5226C98.926 58.5226 99.8666 58.1393 100.633 57.4078C101.399 56.6413 101.783 55.7356 101.783 54.6904C101.783 53.6453 101.399 52.7047 100.633 51.9731ZM99.5879 56.4671C99.1002 56.9549 98.5079 57.1987 97.8112 57.1987C97.0796 57.1987 96.4873 56.9549 95.9996 56.4671C95.5467 56.0143 95.3029 55.4569 95.3029 54.7601C95.3029 54.0982 95.5816 53.4363 96.0345 52.9486C96.5222 52.4608 97.1144 52.217 97.8112 52.217C98.5079 52.217 99.0653 52.4608 99.5879 52.9486C100.076 53.4363 100.319 54.0285 100.319 54.6904C100.319 55.3872 100.076 55.9794 99.5879 56.4671ZM92.8642 51.6944C92.6204 51.5899 92.4114 51.5551 92.2023 51.5551C91.7843 51.5551 91.4359 51.6596 91.1572 51.8338C91.0527 51.9034 90.9482 51.9731 90.8785 52.0428V50.9628H90.5998C89.9379 50.9628 89.3805 51.4854 89.3805 52.1125V58.5574H90.8437V55.7007C90.8437 54.5859 91.0527 53.7498 91.5056 53.2969C91.7494 53.0182 91.9933 52.9137 92.2372 52.9834C92.3417 53.0182 92.4462 52.9486 92.481 52.8789L92.9688 52.0776C93.0733 51.9383 93.0384 51.7641 92.8642 51.6944ZM122.511 51.6944C122.267 51.5899 122.058 51.5551 121.849 51.5551C121.431 51.5551 121.083 51.6596 120.804 51.8338C120.699 51.9034 120.595 51.9731 120.525 52.0428V50.9628H120.247C119.585 50.9628 119.027 51.4854 119.027 52.1125V58.5574H120.49V55.7007C120.49 54.5859 120.699 53.7498 121.117 53.2969C121.361 53.0182 121.605 52.9137 121.849 52.9834C121.954 53.0182 122.058 52.9486 122.093 52.8789L122.581 52.0776C122.72 51.9383 122.685 51.7641 122.511 51.6944Z" fill="white"/>
<path d="M80.3577 27.6217C80.6712 27.9701 80.6364 28.4578 80.3228 28.7714C78.3023 30.6526 71.6483 36.8188 67.6071 40.5813C66.0743 42.0096 64.1234 42.776 62.0331 42.776C57.3998 42.776 53.6025 39.1529 53.4283 34.5195C53.3238 31.7674 54.2644 29.2242 56.0759 27.3082C57.8875 25.427 60.4306 24.347 63.0086 24.347C64.4369 24.347 65.8304 24.6605 67.0846 25.3224C66.9801 24.6954 66.9452 24.0335 66.9452 23.3715C66.9452 16.8918 71.7528 10.1681 79.8003 10.1333H79.9048C82.5873 10.1333 85.0607 10.9346 87.1858 12.3629C87.6387 12.6764 87.6387 13.3383 87.2207 13.6867C86.942 13.8957 86.5587 13.8957 86.28 13.6867C84.4685 12.4326 82.2737 11.7358 79.9396 11.7358H79.8699C72.8328 11.7707 68.6523 17.6582 68.6523 23.3367C68.6523 24.5212 68.8265 25.7057 69.1748 26.8205C69.3142 27.2037 69.14 27.6217 68.7568 27.7959C68.4432 27.9353 68.0949 27.8656 67.851 27.6566C66.4575 26.5418 64.8201 25.9495 63.0783 25.9495C60.9183 25.9495 58.8281 26.8553 57.3301 28.423C55.8321 29.9907 55.0308 32.1158 55.1353 34.415C55.2747 38.1775 58.3404 41.1038 62.1028 41.1038C63.7402 41.1038 65.3427 40.4768 66.562 39.362C70.6032 35.5995 77.2571 29.4333 79.2777 27.552C79.5216 27.2733 80.0441 27.3082 80.3577 27.6217Z" fill="white"/>
<path d="M106.625 34.1013C106.625 38.9089 102.793 42.8107 98.0551 42.8107H84.6775C82.4828 42.8107 80.497 41.5565 79.5564 39.536C78.581 37.4806 78.8597 35.0768 80.288 33.3349C82.8311 30.1995 82.9356 30.0602 82.9356 30.0602C83.2143 29.7118 83.7369 29.6421 84.0853 29.9208C84.4337 30.1995 84.5033 30.7221 84.2246 31.0705C84.2246 31.0705 84.155 31.175 81.577 34.3452C80.5319 35.6342 80.3577 37.3412 81.0544 38.8044C81.7512 40.2676 83.1098 41.1385 84.7124 41.1385H98.09C101.887 41.1385 104.988 37.9683 104.988 34.0665C104.988 29.7815 102.096 26.9596 98.8215 26.1932C98.2293 26.0539 97.9854 25.392 98.3338 24.9042C98.5428 24.6604 98.8564 24.521 99.1699 24.5907C100.772 24.9739 102.305 25.7752 103.559 26.9248C105.406 28.6318 106.625 31.0705 106.625 34.1013Z" fill="white"/>
<path d="M97.9854 15.0108C97.9157 14.9411 97.8112 14.8714 97.7067 14.9062C97.3583 14.9062 96.8358 14.9411 96.1739 15.0108C94.7804 15.1849 92.7598 15.603 90.7741 16.6481C90.3212 16.8571 89.9031 17.1358 89.4502 17.4145C88.9625 17.7281 88.5096 18.0765 88.0567 18.4945H88.0219C86.5936 18.3552 85.2001 18.808 84.0853 19.7487C83.9807 19.8532 83.9111 19.9577 83.9111 20.097C83.9111 20.2712 84.0156 20.4454 84.1898 20.5151L87.36 21.7692C87.8129 21.9434 88.2309 22.2221 88.5793 22.5705C88.8928 22.884 89.1367 23.2324 89.3109 23.6505C89.4154 23.8595 89.4851 24.0685 89.5199 24.3124L90.2515 27.6568C90.3212 28.0051 90.7044 28.1097 90.9831 27.9006C91.0179 27.8658 91.0528 27.831 91.0876 27.831C91.5753 27.3781 91.9934 26.8555 92.3069 26.2633C92.4811 25.8801 92.6553 25.4968 92.725 25.1136C92.7946 24.8349 92.8295 24.5562 92.8643 24.2775V24.2427C96.6268 21.2815 97.7416 16.7526 98.0203 15.3591C98.0899 15.1849 98.0551 15.0804 97.9854 15.0108ZM94.0836 20.0622C93.7004 20.4106 93.143 20.4802 92.6901 20.2712C92.4811 20.2015 92.3069 20.0622 92.1676 19.888C92.0282 19.7138 91.9237 19.5048 91.8889 19.2958C91.7843 18.8429 91.9585 18.3203 92.3417 18.0068C92.6553 17.7281 93.1082 17.6236 93.4914 17.7281C93.7701 17.7978 94.0488 17.9371 94.2578 18.181C94.3623 18.2855 94.432 18.4248 94.4668 18.5293C94.6759 19.0519 94.5365 19.679 94.0836 20.0622Z" fill="white"/>
<path d="M87.2555 26.1237C85.7923 27.0295 84.4685 26.6115 84.4685 26.6115C84.4685 26.6115 84.3291 25.7754 84.8168 24.7999C84.9562 24.5212 85.1304 24.2425 85.4091 23.929C85.6181 23.6851 86.0013 23.6154 86.28 23.7896C86.5239 23.929 86.7329 24.1032 86.9071 24.3122C87.1858 24.5909 87.3948 24.9393 87.5342 25.2876C87.569 25.3225 87.569 25.3922 87.569 25.427C87.6038 25.7057 87.4993 25.9844 87.2555 26.1237Z" fill="white"/>
</svg>
