<svg width="160" height="80" viewBox="0 0 160 80" fill="none" xmlns="http://www.w3.org/2000/svg">
<path d="M76.839 49.6105C75.9259 49.8937 75.0829 50.0353 74.3102 50.0353C72.5541 50.0353 71.2195 49.5397 70.1658 48.5487C69.1824 47.6285 68.6205 46.4251 68.6205 44.9385C68.6205 44.0183 68.8312 43.2396 69.2527 42.3902C69.6741 41.6115 70.3766 40.9744 71.2898 40.5497C72.2029 40.0542 73.2566 39.8418 74.4507 39.8418C75.1532 39.8418 75.9259 39.9834 76.839 40.1957V42.4609C76.2771 42.107 75.6449 41.8946 74.9424 41.8946C74.0995 41.8946 73.4673 42.1778 72.9756 42.7441C72.4839 43.3104 72.2732 44.0183 72.2732 45.0801C72.2732 45.9296 72.4839 46.6374 72.9756 47.2037C73.4673 47.6993 74.0995 47.9824 74.8722 47.9824C75.4341 47.9824 76.1366 47.77 76.839 47.4161V49.6105Z" fill="white"/>
<path d="M78.1736 40.0542H81.2644V49.8937H78.1736V40.0542Z" fill="white"/>
<path d="M86.7434 44.7263C86.3922 44.7263 86.041 44.8678 85.9005 45.2218C85.6897 45.5049 85.6195 45.9296 85.6195 46.5667C85.6195 47.133 85.6897 47.6286 85.9005 47.9117C86.1112 48.1949 86.3922 48.3364 86.8136 48.3364C87.1649 48.3364 87.5161 48.1949 87.7268 47.9117C87.9375 47.6286 88.0078 47.2038 88.0078 46.5667C88.0078 46.0004 87.9375 45.5049 87.7268 45.2218C87.3756 44.8678 87.0946 44.7263 86.7434 44.7263ZM86.6732 43.0273C87.9375 43.0273 89.0614 43.3105 89.8341 43.9476C90.6771 44.5847 91.0985 45.4341 91.0985 46.4959C91.0985 47.5578 90.7473 48.4072 89.9044 49.0443C89.1317 49.6814 88.0078 50.0353 86.6732 50.0353C85.3385 50.0353 84.2146 49.6814 83.5122 49.0443C82.7395 48.4072 82.3883 47.5578 82.3883 46.5667C82.3883 45.5049 82.7395 44.6555 83.5824 44.0184C84.3551 43.3105 85.4088 43.0273 86.6732 43.0273Z" fill="white"/>
<path d="M92.1522 43.1689H95.2429V47.3454C95.2429 47.5578 95.3132 47.7702 95.3834 47.9117C95.5239 48.0533 95.5941 48.1241 95.8049 48.1241C96.0156 48.1241 96.2263 48.0533 96.3668 47.9117C96.5073 47.7702 96.5776 47.5578 96.5776 47.3454V43.1689H99.7385V49.8938H97.0693L96.7883 49.1859C96.5073 49.4691 96.1561 49.6814 95.8049 49.823C95.4537 49.9646 95.1024 50.0354 94.681 50.0354C93.9785 50.0354 93.3463 49.823 92.8546 49.3275C92.3629 48.9028 92.1522 48.3365 92.1522 47.6994V43.1689Z" fill="white"/>
<path d="M106.06 45.2217C105.92 45.0801 105.78 45.0093 105.639 44.9386C105.499 44.8678 105.288 44.8678 105.147 44.8678C104.796 44.8678 104.515 45.0093 104.304 45.2925C104.094 45.5757 103.953 46.0004 103.953 46.4959C103.953 46.9914 104.094 47.3453 104.304 47.6993C104.515 47.9824 104.796 48.124 105.077 48.124C105.358 48.124 105.639 47.9824 105.78 47.7701C105.92 47.5577 105.99 47.2746 105.99 46.9914L106.06 45.2217ZM106.06 40.0542H109.221V49.8937H106.482L106.131 49.115C105.85 49.3982 105.499 49.6813 105.218 49.8229C104.866 49.9645 104.515 50.0353 104.094 50.0353C103.11 50.0353 102.338 49.6813 101.776 48.9735C101.214 48.2656 100.862 47.4869 100.862 46.5667C100.862 45.6464 101.214 44.797 101.846 44.0891C102.478 43.3812 103.321 43.0273 104.304 43.0273C104.585 43.0273 104.866 43.0273 105.218 43.1689C105.569 43.2397 105.85 43.3812 106.131 43.5936V40.0542H106.06Z" fill="white"/>
<path d="M102.338 55.6983C102.197 56.123 102.057 56.5477 101.916 56.7601C101.776 56.477 101.705 56.0522 101.495 55.6983L100.581 53.2915H99.8088L101.495 57.6804H102.267L103.953 53.2915H103.18L102.338 55.6983Z" fill="white"/>
<path d="M107.255 55.7691V56.6185C107.255 56.6185 107.184 56.6893 107.114 56.7601C107.044 56.8309 106.974 56.9017 106.833 56.9725C106.763 57.0432 106.622 57.114 106.482 57.114C106.341 57.1848 106.201 57.1848 106.06 57.1848C105.92 57.1848 105.85 57.1848 105.709 57.114C105.569 57.114 105.499 57.0432 105.499 56.9725C105.428 56.9017 105.358 56.8309 105.288 56.7601C105.288 56.6185 105.218 56.5477 105.218 56.4062C105.218 56.1938 105.288 55.9814 105.428 55.8399C105.569 55.6983 105.85 55.6983 106.131 55.6983C106.341 55.6983 106.552 55.6983 106.693 55.7691C106.974 55.6983 107.114 55.7691 107.255 55.7691ZM107.887 54.0702C107.746 53.787 107.536 53.5746 107.255 53.4331C106.974 53.2915 106.552 53.2207 106.131 53.2207C105.99 53.2207 105.92 53.2207 105.78 53.2207C105.639 53.2207 105.569 53.2207 105.428 53.2915C105.288 53.2915 105.218 53.3623 105.077 53.3623C104.937 53.3623 104.866 53.4331 104.796 53.4331V54.1409H104.866C105.077 54.0702 105.288 53.9994 105.428 53.9994C105.639 53.9286 105.85 53.9286 106.06 53.9286C106.341 53.9286 106.622 53.9994 106.763 54.0702C106.903 54.2117 107.044 54.2825 107.114 54.4241C107.114 54.4949 107.184 54.5657 107.184 54.6365C107.184 54.778 107.184 54.8488 107.184 54.9904V55.2028C107.044 55.132 106.903 55.0612 106.693 55.0612C106.482 55.0612 106.271 54.9904 106.06 54.9904C105.85 54.9904 105.639 54.9904 105.358 55.0612C105.147 55.132 105.007 55.2028 104.796 55.3443C104.656 55.4859 104.585 55.5567 104.445 55.7691C104.375 55.9106 104.304 56.123 104.304 56.3354C104.304 56.5477 104.375 56.7601 104.445 56.9017C104.515 57.114 104.656 57.2556 104.796 57.3972C104.937 57.5388 105.077 57.6096 105.218 57.6803C105.428 57.7511 105.639 57.8219 105.85 57.8219C105.99 57.8219 106.131 57.8219 106.271 57.7511C106.412 57.7511 106.552 57.6803 106.622 57.6096C106.763 57.5388 106.833 57.468 106.974 57.3972C107.044 57.3264 107.114 57.2556 107.184 57.1848L107.255 57.6803H107.957V54.778C107.957 54.6365 107.957 54.4949 107.957 54.4241C107.957 54.2117 107.957 54.1409 107.887 54.0702Z" fill="white"/>
<path d="M109.292 57.6804H110.064V51.0264H109.292V57.6804Z" fill="white"/>
<path d="M111.399 57.6804H112.172V51.0264H111.399V57.6804Z" fill="white"/>
<path d="M115.192 53.8578C115.333 53.8578 115.543 53.8578 115.614 53.9286C115.754 53.9994 115.824 54.0702 115.965 54.1409C116.035 54.2825 116.105 54.3533 116.176 54.4949C116.246 54.6365 116.246 54.778 116.246 54.9196H114.139C114.139 54.778 114.209 54.6365 114.279 54.4949C114.349 54.3533 114.42 54.2117 114.49 54.1409C114.63 53.9994 114.7 53.9286 114.841 53.8578C114.911 53.8578 114.981 53.8578 115.192 53.8578ZM116.457 53.7162C116.316 53.5039 116.105 53.4331 115.895 53.3623C115.684 53.2915 115.473 53.2207 115.192 53.2207C114.911 53.2207 114.63 53.2915 114.42 53.3623C114.209 53.5039 113.998 53.6454 113.787 53.8578C113.577 54.0702 113.436 54.2825 113.366 54.5657C113.225 54.8488 113.225 55.2028 113.225 55.6275C113.225 55.9814 113.296 56.3354 113.366 56.6185C113.506 56.9017 113.647 57.1848 113.858 57.3264C114.068 57.5388 114.279 57.6096 114.63 57.6803C114.911 57.7511 115.192 57.8219 115.543 57.8219C115.824 57.8219 116.035 57.8219 116.316 57.7511C116.527 57.7511 116.738 57.6096 116.878 57.6096V56.9725H116.808C116.597 57.0432 116.457 57.114 116.246 57.114C116.035 57.1848 115.824 57.1848 115.614 57.1848C115.403 57.1848 115.192 57.1848 114.981 57.114C114.771 57.0432 114.63 56.9725 114.49 56.9017C114.349 56.7601 114.279 56.6185 114.139 56.4769C114.068 56.2646 113.998 56.0522 113.998 55.8399H117.019C117.019 55.6983 117.019 55.6983 117.019 55.6275V55.5567C117.019 55.2028 116.948 54.8488 116.878 54.5657C116.808 54.0702 116.667 53.8578 116.457 53.7162Z" fill="white"/>
<path d="M120.952 53.2915L119.618 56.6185L118.283 53.2915H118.213H117.44L119.196 57.5388L118.283 59.6624L118.213 59.7332H119.056L121.795 53.3623V53.2915H120.952Z" fill="white"/>
<path d="M122.568 42.4609C122.217 41.753 121.655 41.0451 121.022 40.4788C120.32 39.9125 119.618 39.417 118.775 39.1339C118.634 39.0631 118.494 38.9923 118.353 38.9923C118.423 38.6384 118.494 38.2136 118.494 37.7889C118.494 37.081 118.353 36.4439 118.072 35.8068C117.651 34.6742 116.808 33.754 115.684 33.0461C114.56 32.3382 113.296 31.9843 111.891 31.9843C110.907 31.9843 109.994 32.1967 109.081 32.5506C108.87 31.9843 108.589 31.418 108.238 30.9225C107.395 29.6483 106.201 28.5865 104.726 27.8078C103.251 27.0291 101.495 26.6044 99.8088 26.6044C98.4741 26.6044 97.1395 26.8168 95.8751 27.3123C94.681 27.8078 93.6273 28.4449 92.7141 29.2943C92.1522 29.8607 91.5902 30.4977 91.239 31.1348C89.9746 30.3562 88.4995 29.9314 86.8839 29.9314C86.4624 29.9314 85.9707 29.9314 85.5493 30.073C85.4088 28.4449 84.8468 26.8876 83.9337 25.4718C82.88 23.9145 81.3346 22.7111 79.5785 21.8616C78.8059 21.5077 78.0332 21.2245 77.12 21.0122C76.2068 20.8706 75.2937 20.7998 74.3805 20.7998C73.0459 20.7998 71.7815 20.9414 70.5171 21.3661C69.3229 21.72 68.2693 22.2864 67.2859 22.9942C66.162 23.8437 65.2488 24.7639 64.5463 25.8965C64.1249 26.5336 63.8439 27.2415 63.6332 27.9494C63.0712 27.8078 62.5093 27.737 61.9473 27.737C60.9639 27.737 60.0507 27.8786 59.1376 28.2325C58.2946 28.5865 57.522 29.0112 56.8898 29.5775C56.1873 30.1438 55.6956 30.8517 55.3444 31.5596C54.9932 32.3382 54.7824 33.1877 54.7824 34.0371C54.7824 34.3911 54.7824 34.6742 54.8527 34.9574C55.2741 34.8866 55.6956 34.8158 56.1171 34.8158C57.241 34.8158 58.2244 35.1697 59.1376 35.6653C59.0673 35.099 59.1376 34.6034 59.278 34.0371C59.4185 33.6832 59.559 33.3293 59.7698 32.9753C60.0507 32.4798 60.4722 32.0551 60.8937 31.7011C61.1746 31.4888 61.4556 31.3472 61.8068 31.1348C62.158 30.9933 62.5795 30.8517 63.001 30.7809C63.282 30.7101 63.5629 30.7101 63.9141 30.7101C64.8273 30.7101 65.7405 31.1348 66.3727 31.8427C66.7239 28.091 69.7444 24.41 73.5376 23.6313C73.959 23.5605 74.4507 23.4897 74.9424 23.4897C76.2771 23.4897 77.5415 23.7729 78.6654 24.41C79.6488 24.9055 80.4917 25.6134 81.1941 26.4628C81.4049 26.746 81.6156 27.0291 81.8263 27.3831C83.2312 29.5067 83.3015 32.1967 83.161 34.6742C83.7229 33.8248 84.5659 33.4 85.479 33.1877C85.8303 33.1169 86.1112 33.1169 86.4624 33.1169C86.8839 33.1169 87.3756 33.1877 87.7971 33.3293C88.1483 33.4 88.4995 33.5416 88.7805 33.6832C89.9044 34.2495 90.7473 35.3113 90.9581 36.5855C91.3093 34.8158 92.3629 33.1877 93.6273 31.9135C93.9083 31.5596 94.2595 31.3472 94.6107 31.064C94.962 30.7809 95.3834 30.5685 95.8049 30.3562C96.2263 30.1438 96.6478 30.0022 97.1395 29.9314C97.6312 29.7899 98.0527 29.7899 98.5444 29.7899C101.003 29.7899 103.391 31.1348 104.515 33.4C105.218 34.745 105.78 36.2316 105.499 37.7889C106.06 36.7979 106.974 36.0192 107.957 35.5237C108.308 35.3821 108.66 35.3113 109.011 35.2405C109.713 35.1697 110.486 35.2405 111.188 35.6653C111.399 35.8068 111.68 35.8776 111.891 36.09C112.101 36.2316 112.312 36.4439 112.453 36.6563C112.593 36.7979 112.734 37.0102 112.874 37.1518C113.998 38.9923 113.296 41.3991 111.891 42.8148C112.663 42.744 113.436 42.5317 114.279 42.6733C114.56 42.744 114.841 42.8148 115.122 42.9564C115.614 43.1688 116.105 43.5227 116.527 43.8767C116.948 44.3014 117.229 44.7261 117.51 45.2924C117.721 45.8587 117.861 46.4958 117.861 47.1329C117.861 48.3363 117.44 49.4689 116.597 50.3183C116.035 50.9554 115.262 51.3802 114.349 51.5925C114.7 51.5925 115.122 51.5925 115.473 51.5925C115.684 51.5925 115.895 51.5925 116.105 51.5925C116.738 51.5217 117.37 51.451 118.002 51.3802C118.142 51.3802 118.283 51.3094 118.423 51.3094C119.337 51.097 120.109 50.4599 120.812 49.9644C120.952 49.8228 121.022 49.752 121.163 49.6813C122.498 48.4779 123.2 46.8497 123.2 45.1508C123.2 44.2306 122.989 43.3103 122.568 42.4609Z" fill="white"/>
<path d="M52.7453 40.6909C52.3239 40.337 51.9024 40.1954 51.4107 40.337C50.8488 40.4078 50.4273 40.6201 50.0761 41.0448C49.7951 41.4696 49.7249 42.0359 49.7249 42.8145L53.4478 42.319V41.9651C53.3073 41.3988 53.0966 40.9741 52.7453 40.6909Z" fill="white"/>
<path d="M61.6663 41.3281C61.7366 41.045 61.7366 40.7618 61.7366 40.4787C61.7366 37.364 59.278 34.8864 56.1873 34.8864C54.8527 34.8864 53.5883 35.3819 52.6751 36.1606C51.481 34.3909 49.5141 33.1875 47.1961 33.1875C43.6136 33.1875 40.6634 36.1606 40.6634 39.7708C40.6634 40.3371 40.7336 40.9034 40.8741 41.3989C38.4858 42.036 36.8 44.1596 36.8 46.6372C36.8 49.6103 39.1883 52.0171 42.1385 52.0171H61.3854C64.2654 52.0171 66.6536 49.6103 66.6536 46.708C66.5834 43.8057 64.4058 41.5405 61.6663 41.3281ZM51.5512 46.2125C52.1132 46.4956 52.8156 46.6372 53.6585 46.4956C54.2907 46.4248 54.9229 46.2125 55.4146 45.9293C55.9063 45.6462 56.5385 45.1507 57.3815 44.4428L57.8029 47.9114C56.1171 48.9732 54.4312 49.5395 52.8858 49.7519C50.8488 50.035 49.1629 49.6811 47.758 48.7608C46.3532 47.8406 45.5805 46.4956 45.3697 44.8675C45.159 43.2394 45.5805 41.7528 46.6341 40.4787C47.6878 39.2045 49.2332 38.4258 51.2702 38.1427C53.0263 37.9303 54.5015 38.2134 55.6956 39.0629C56.8897 39.9123 57.5922 41.1865 57.8029 42.8147L57.9434 43.7349L50.3571 44.7259C50.4975 45.4338 50.9893 45.9293 51.5512 46.2125Z" fill="white"/>
</svg>
