<svg width="300" height="69" viewBox="0 0 300 69" fill="none" xmlns="http://www.w3.org/2000/svg">
<g>
<path d="M178.835 0.441895H176.727C176.552 0.441895 176.454 0.64529 176.573 0.778548L178.835 3.39463V4.68513H162.014V11.4603H178.835V45.6447H186.174V0.441895H178.835Z" fill="#003880"/>
<path d="M168.372 13.1855L162.917 25.6908H168.435L170.361 21.2723L172.14 25.6978H177.658L175.095 19.2944H171.223L173.891 13.1855H168.372Z" fill="#003880"/>
<path d="M194.738 21.2723L196.517 25.6978H202.036L199.472 19.2944H195.607L198.268 13.1855H192.757L187.301 25.6908H192.813L194.738 21.2723Z" fill="#003880"/>
<path d="M160.27 43.3862H169.906L178.835 28.1597H169.199L160.27 43.3862Z" fill="#003880"/>
<path d="M186.181 28.1597L195.11 43.3862H204.739L195.81 28.1597H186.181Z" fill="#003880"/>
<path d="M203.66 4.68506H187.946V11.4602H203.66V4.68506Z" fill="#003880"/>
<path d="M112.979 44.0175H122.622L131.229 29.324H121.6L112.979 44.0175Z" fill="#003880"/>
<path d="M138.631 29.324V0.441895H129.191C129.016 0.441895 128.918 0.64529 129.037 0.778548L131.299 3.38762V5.92655H114.456V12.7999H131.299V19.049H113.609V25.9224H131.299V45.6447H138.638V29.4292L147.195 44.0245H156.824L148.218 29.331H138.638L138.631 29.324Z" fill="#003880"/>
<path d="M155.648 5.92651H140.409V12.7999H155.648V5.92651Z" fill="#003880"/>
<path d="M156.495 19.0491H140.409V25.9224H156.495V19.0491Z" fill="#003880"/>
<path d="M249.929 15.6475V45.6447L248.052 45.6307H241.077L239.901 40.616H243.598V15.6475H249.929Z" fill="#003880"/>
<path d="M234.697 4.68514V0.441895H225.243C225.068 0.441895 224.977 0.64529 225.089 0.778548L227.351 3.39463V4.68514H208.955V10.4573H218.549L221.581 15.6474H210.964V45.6236H217.526V21.1531H221.399L219.025 28.8681H226.238L228.535 21.1531H231.434V28.812H243.017L241.399 24.1269H237.786V21.1531H241.791V15.6474H240.482L243.535 10.4573H251.883V4.68514H234.697ZM233.409 15.6474H228.654L225.601 10.4573H236.483C236.483 10.4573 233.451 15.6474 233.409 15.6474Z" fill="#003880"/>
<path d="M221.322 29.9832L221.28 43.7579H239.011L239.053 29.9832H221.322ZM227.358 39.3814L227.323 34.3597H232.982L233.01 39.3814H227.358Z" fill="#003880"/>
<path d="M277.275 26.6729C277.654 25.5156 279.993 14.5112 279.993 14.5112H277.275H273.669L279.684 1.65527H256.028C255.853 1.65527 255.755 1.85867 255.874 1.99193L258.136 4.60099V7.27318H270.854L268.634 12.0144L266.757 8.8793H261.246L264.614 14.4972H257.331L256.063 14.5042C255.888 14.5042 255.79 14.7076 255.909 14.8409L257.338 16.4891V20.4518H261.631L256.575 32.9711H262.086L265.258 25.1228V40.5949H259.145L260.643 45.6096H271.799V20.4728H273.487L272.73 23.6991L277.289 26.6729H277.275Z" fill="#003880"/>
<path d="M295.126 10.0014H297.892L299.993 4.12398H286.218L287.941 0.434814H281.743H279.888C279.712 0.434814 279.614 0.638209 279.733 0.771468L280.938 2.16017L277.275 9.99438H287.682L286.477 13.0313L280.483 11.2989V17.1693L284.39 18.2985L282.612 22.7872H290.217L291.183 20.2623L298.564 22.3945V16.5241L293.214 14.974L295.126 9.98737V10.0014Z" fill="#003880"/>
<path d="M289.271 27.1709L290.35 24.5898H282.885L281.82 27.1709H276.344V32.8379H279.481L274.866 44.0176H282.255L286.912 32.8379H292.983V40.616H284.881L286.379 45.6307H292.983V45.6447H298.536V32.8379V27.1709H292.983H289.271Z" fill="#003880"/>
<path d="M123.406 55.4358V52.6794H115.08V68.7476H119.212V61.8533H123.07V59.0268H119.212V55.4358H123.406Z" fill="#003880"/>
<path d="M135.234 64.2449V52.6794H131.131V64.8551C131.131 65.339 131.131 65.7879 130.626 66.0404C130.339 66.2017 130.052 66.2227 129.933 66.2227C129.744 66.2227 129.023 66.2017 128.757 65.5424C128.637 65.2689 128.637 64.834 128.637 64.792V52.6794H124.562V64.3571C124.562 65.2198 124.562 66.1105 124.968 66.9311C125.57 68.1375 127.104 69.0001 130.003 69.0001C133.484 69.0001 134.73 67.7938 135.087 66.1105C135.255 65.3601 135.234 64.3992 135.234 64.2449Z" fill="#003880"/>
<path d="M136.726 52.6794V55.4779H140.08V68.7476H144.233V55.4779H147.616V52.6794H136.726Z" fill="#003880"/>
<path d="M159.731 64.2449V52.6794H155.627V64.8551C155.627 65.339 155.627 65.7879 155.123 66.0404C154.836 66.2017 154.548 66.2227 154.429 66.2227C154.233 66.2227 153.519 66.2017 153.253 65.5424C153.134 65.2689 153.134 64.834 153.134 64.792V52.6794H149.058V64.3571C149.058 65.2198 149.058 66.1105 149.464 66.9311C150.06 68.1375 151.6 69.0001 154.499 69.0001C157.98 69.0001 159.226 67.7938 159.584 66.1105C159.752 65.3601 159.731 64.3992 159.731 64.2449Z" fill="#003880"/>
<path d="M170.144 61.3974C171.797 60.6469 172.28 59.7141 172.28 57.2102C172.28 55.9338 172.161 55.05 171.895 54.4328C171.37 53.2265 170.144 52.6794 167.889 52.6794H162.105V68.7476H165.942V61.8953H166.615L168.919 68.7476H173.001L170.144 61.3974ZM167.217 59.146H165.942V55.4568H167.196C168.078 55.4568 168.491 55.6813 168.561 56.2073C168.61 56.4808 168.631 57.0489 168.631 57.4838C168.631 58.7813 168.295 59.146 167.217 59.146Z" fill="#003880"/>
<path d="M183.387 55.4989V52.6794H174.633V68.7476H183.387V65.9071H178.737V62.0356H183.121V59.2091H178.737V55.4989H183.387Z" fill="#003880"/>
<path d="M198.093 62.6247V64.6305C198.093 65.1987 198.121 65.907 197.4 66.1525C197.162 66.2226 196.846 66.2226 196.797 66.2226C195.579 66.2226 195.432 65.6545 195.432 64.6305V56.642C195.432 56.5509 195.362 55.7092 195.887 55.3656C196.125 55.2042 196.391 55.1832 196.706 55.1832C197.302 55.1832 197.904 55.2744 198.072 55.9337C198.121 56.1651 198.121 56.3685 198.121 56.5929V58.6199H202.148V56.6841C202.148 55.9337 202.127 55.2533 201.762 54.545C201.167 53.3176 199.704 52.3848 196.727 52.3848C194.451 52.3848 193.247 52.9318 192.484 53.6612C191.475 54.5941 191.356 55.618 191.356 56.8875V64.8129C191.356 65.9982 191.475 66.5172 191.762 67.0643C192.028 67.5693 192.386 67.8638 192.554 67.976C193.345 68.6143 194.451 68.958 196.58 68.958C198.072 68.958 199.872 68.9089 201.048 67.8638C202.197 66.8398 202.246 65.4301 202.246 64.0624V62.6247H198.093Z" fill="#003880"/>
<path d="M214.578 55.0921C214.263 54.2294 213.737 53.7244 213.45 53.4789C212.295 52.5181 210.838 52.3638 209.375 52.3638C207.547 52.3638 205.747 52.6303 204.648 54.1803C203.947 55.1622 203.856 56.074 203.856 57.2102V63.831C203.856 65.2197 203.975 65.8369 204.262 66.4962C204.55 67.2046 205.033 67.6324 205.243 67.8148C206.447 68.8177 207.932 68.958 209.466 68.958C212.008 68.958 213.212 68.2917 213.976 67.3378C214.844 66.2437 214.865 65.0374 214.865 63.7188V57.5749C214.865 56.7332 214.865 55.9127 214.578 55.0921ZM210.789 64.7638C210.789 65.2478 210.74 65.7458 210.208 65.9982C209.9 66.1315 209.445 66.1315 209.375 66.1315C207.932 66.1315 207.981 65.4021 207.981 64.7638V56.5228C207.981 56.4808 207.911 55.6391 208.485 55.3656C208.793 55.2043 209.228 55.2253 209.298 55.2253C209.9 55.2253 210.544 55.2744 210.74 55.9547C210.789 56.1371 210.789 56.1862 210.789 56.5228V64.7638Z" fill="#003880"/>
<path d="M227.652 52.6794L225.131 64.4693L222.617 52.6794H217.148V68.7476H220.719V57.1892L223.332 68.7476H226.931L229.55 57.1892V68.7476H233.192V52.6794H227.652Z" fill="#003880"/>
<path d="M246.154 52.6794L243.633 64.4693L241.112 52.6794H235.643V68.7476H239.221V57.1892L241.833 68.7476H245.433L248.045 57.1892V68.7476H251.694V52.6794H246.154Z" fill="#003880"/>
<path d="M262.877 55.4989V52.6794H254.117V68.7476H262.877V65.9071H258.22V62.0356H262.611V59.2091H258.22V55.4989H262.877Z" fill="#003880"/>
<path d="M272.618 61.3974C274.271 60.6469 274.747 59.7141 274.747 57.2102C274.747 55.9338 274.628 55.05 274.369 54.4328C273.837 53.2265 272.618 52.6794 270.363 52.6794H264.579V68.7476H268.417V61.8953H269.089L271.393 68.7476H275.469L272.618 61.3974ZM269.691 59.146H268.417V55.4568H269.663C270.553 55.4568 270.959 55.6813 271.029 56.2073C271.078 56.4808 271.106 57.0489 271.106 57.4838C271.106 58.7813 270.77 59.146 269.691 59.146Z" fill="#003880"/>
<path d="M283.578 62.6247V64.6305C283.578 65.1987 283.606 65.907 282.885 66.1525C282.647 66.2226 282.332 66.2226 282.283 66.2226C281.064 66.2226 280.917 65.6545 280.917 64.6305V56.642C280.917 56.5509 280.847 55.7092 281.372 55.3656C281.61 55.2042 281.876 55.1832 282.192 55.1832C282.787 55.1832 283.389 55.2744 283.557 55.9337C283.606 56.1651 283.606 56.3685 283.606 56.5929V58.6199H287.633V56.6841C287.633 55.9337 287.612 55.2533 287.248 54.545C286.652 53.3176 285.189 52.3848 282.213 52.3848C279.937 52.3848 278.732 52.9318 277.969 53.6612C276.96 54.5941 276.841 55.618 276.841 56.8875V64.8129C276.841 65.9982 276.96 66.5172 277.247 67.0643C277.514 67.5693 277.871 67.8638 278.039 67.976C278.83 68.6143 279.937 68.958 282.065 68.958C283.557 68.958 285.357 68.9089 286.533 67.8638C287.682 66.8398 287.731 65.4301 287.731 64.0624V62.6247H283.578Z" fill="#003880"/>
<path d="M298.361 55.4989V52.6794H289.601V68.7476H298.361V65.9071H293.704V62.0356H298.095V59.2091H293.704V55.4989H298.361Z" fill="#003880"/>
<path d="M47.207 58.6479L37.4378 68.4529H34.9168L0 33.462L33.4111 0H36.4294L45.9465 9.53852L22.0593 33.462L47.207 58.6479Z" fill="#0C5CA6"/>
<path d="M105.647 36.4217V38.7783L76.0242 68.4529H73.3701L38.4253 33.455V27.9142L46.8008 19.5189L66.2971 0H69.2874L78.9304 9.65775L57.9356 30.6846L74.6936 47.4542L95.6675 26.4413L105.647 36.4217Z" fill="#0C5CA6"/>
<path d="M67.2354 25.5016L48.6705 27.6197L38.4392 23.6359L57.0041 21.5178L67.2354 25.5016Z" fill="white"/>
<path d="M67.2354 25.5015L67.1654 46.0584L48.6075 48.1765L48.6706 27.6196L67.2354 25.5015Z" fill="#00AFE8"/>
<path d="M48.6706 27.6197L48.6076 48.1766L38.3762 44.1929L38.4392 23.636L48.6706 27.6197Z" fill="#003881"/>
</g>

</svg>
