<svg width="200" height="55" viewBox="0 0 200 55" fill="none" xmlns="http://www.w3.org/2000/svg">
<path d="M112.508 28.6698L112.484 28.8453C112.475 28.9175 112.477 28.9896 112.492 29.0618C113.044 31.6587 115.009 34.1883 116.986 35.5805C117.091 35.6526 117.153 35.7753 117.153 35.9075V38.0692C117.153 38.3842 116.816 38.5742 116.57 38.3938C114.744 37.0521 113.022 35.0803 111.911 32.9956C111.763 32.7167 111.382 32.7287 111.251 33.0196C109.884 36.083 107.503 38.6463 104.213 40.4233C104.182 40.4401 104.142 40.416 104.142 40.3776V37.8768C104.142 37.6941 104.233 37.5258 104.381 37.432C107.68 35.2799 109.616 32.3824 110.228 28.79C110.269 28.552 110.089 28.3356 109.86 28.3356H104.211C104.01 28.3356 103.848 28.1649 103.848 27.9533V26.3422C103.848 26.1354 104.008 25.9671 104.204 25.9671H110.061C110.266 25.9671 110.433 25.7916 110.433 25.5752V20.6891C110.433 20.4727 110.266 20.2972 110.061 20.2972H108.258C108.129 20.2972 108.009 20.3693 107.943 20.4847C107.025 22.0621 105.892 23.5337 104.479 24.7889C104.431 24.8322 104.357 24.7937 104.357 24.7288V21.8938C104.357 21.7567 104.407 21.6221 104.491 21.5187C106.157 19.4965 107.015 17.7339 107.747 15.0649C107.816 14.8076 108.036 14.6296 108.289 14.6296C108.705 14.6296 109.334 14.6296 109.767 14.6296C110.008 14.6296 110.19 14.8725 110.125 15.1178C109.919 15.9161 109.661 16.6976 109.365 17.4694C109.265 17.7291 109.441 18.0128 109.709 18.0128H116.565C116.771 18.0128 116.938 18.1884 116.938 18.4048V19.9052C116.938 20.1216 116.771 20.2972 116.565 20.2972H113.053C112.848 20.2972 112.681 20.4727 112.681 20.6891V25.5752C112.681 25.7916 112.848 25.9671 113.053 25.9671H116.993C117.199 25.9671 117.366 26.1426 117.366 26.359V27.9436C117.366 28.16 117.199 28.3356 116.993 28.3356H112.874C112.688 28.3356 112.532 28.4799 112.506 28.6722L112.508 28.6698ZM118.915 39.7596V15.6876C118.915 15.4592 119.082 15.2741 119.288 15.2741H128.847C129.053 15.2741 129.22 15.4592 129.22 15.6876V39.7596C129.22 39.988 129.053 40.1732 128.847 40.1732H119.288C119.082 40.1732 118.915 39.988 118.915 39.7596ZM126.598 18.1355H121.506C121.301 18.1355 121.133 18.3206 121.133 18.5491V37.1338C121.133 37.3623 121.301 37.5474 121.506 37.5474H126.598C126.804 37.5474 126.971 37.3623 126.971 37.1338V18.5491C126.971 18.3206 126.804 18.1355 126.598 18.1355Z" fill="#231815"/>
<path d="M104.194 40.6685C104.143 40.6685 104.093 40.6541 104.045 40.6276C103.959 40.5747 103.904 40.4786 103.904 40.3776V37.8768C103.904 37.6123 104.033 37.3719 104.251 37.23C107.457 35.1381 109.391 32.2863 109.993 28.7492C110 28.7035 109.988 28.6578 109.959 28.6241C109.945 28.6073 109.912 28.576 109.861 28.576H104.213C103.88 28.576 103.61 28.2971 103.61 27.9533V26.3422C103.61 26.0032 103.878 25.7266 104.206 25.7266H110.062C110.136 25.7266 110.194 25.6593 110.194 25.5752V20.6891C110.194 20.6049 110.134 20.5376 110.062 20.5376H108.26C108.217 20.5376 108.176 20.5641 108.15 20.6049C107.153 22.3146 105.972 23.7838 104.638 24.9668C104.547 25.0486 104.416 25.0678 104.306 25.0173C104.194 24.9668 104.12 24.8514 104.12 24.7263V21.8914C104.12 21.699 104.186 21.5115 104.308 21.3624C105.91 19.4195 106.78 17.6954 107.516 14.9975C107.614 14.6369 107.932 14.3868 108.289 14.3868H109.766C109.952 14.3868 110.127 14.4733 110.244 14.6248C110.363 14.7811 110.407 14.9831 110.356 15.1755C110.153 15.957 109.895 16.7553 109.589 17.5536C109.567 17.6065 109.575 17.6666 109.606 17.7123C109.62 17.7339 109.654 17.77 109.708 17.77H116.564C116.901 17.77 117.174 18.0537 117.174 18.4024V19.9028C117.174 20.2515 116.899 20.5352 116.564 20.5352H113.053C112.979 20.5352 112.919 20.6025 112.919 20.6867V25.5728C112.919 25.6569 112.979 25.7242 113.053 25.7242H116.992C117.329 25.7242 117.604 26.008 117.604 26.3566V27.9412C117.604 28.2899 117.329 28.5736 116.992 28.5736H112.873C112.809 28.5736 112.752 28.6289 112.742 28.7035L112.718 28.8766C112.711 28.9223 112.713 28.968 112.723 29.0113C113.289 31.6755 115.34 34.1306 117.121 35.3833C117.289 35.5011 117.389 35.6983 117.389 35.9051V38.0668C117.389 38.3097 117.258 38.5285 117.047 38.6367C116.846 38.7377 116.61 38.7208 116.428 38.5862C114.54 37.1988 112.816 35.2006 111.7 33.1062C111.664 33.0389 111.607 33.0269 111.583 33.0317C111.559 33.0317 111.501 33.0413 111.47 33.1158C110.062 36.2706 107.593 38.8699 104.33 40.6325C104.287 40.6565 104.241 40.6661 104.194 40.6661V40.6685ZM104.206 26.2051C104.141 26.2051 104.088 26.2653 104.088 26.3398V27.9509C104.088 28.0302 104.143 28.0927 104.213 28.0927H109.861C110.038 28.0927 110.208 28.1721 110.325 28.3115C110.445 28.4558 110.495 28.6434 110.464 28.8285C109.838 32.5027 107.834 35.4651 104.512 37.6316C104.433 37.6845 104.382 37.7783 104.382 37.8744V40.053C107.414 38.3457 109.708 35.8835 111.033 32.9187C111.131 32.6998 111.334 32.5604 111.566 32.5508C111.793 32.5411 112.008 32.6686 112.12 32.8802C113.203 34.912 114.874 36.8501 116.708 38.1966C116.756 38.2327 116.801 38.2207 116.83 38.2063C116.849 38.1966 116.911 38.1582 116.911 38.0668V35.9051C116.911 35.8522 116.887 35.8041 116.846 35.7753C114.989 34.4696 112.85 31.9015 112.254 29.1098C112.233 29.0137 112.23 28.9127 112.245 28.8117L112.269 28.6386C112.312 28.3284 112.57 28.0927 112.873 28.0927H116.992C117.066 28.0927 117.126 28.0254 117.126 27.9412V26.3566C117.126 26.2725 117.066 26.2051 116.992 26.2051H113.053C112.716 26.2051 112.441 25.9214 112.441 25.5728V20.6867C112.441 20.338 112.716 20.0543 113.053 20.0543H116.564C116.639 20.0543 116.696 19.987 116.696 19.9028V18.4024C116.696 18.3182 116.636 18.2509 116.564 18.2509H109.708C109.508 18.2509 109.326 18.1547 109.211 17.984C109.092 17.8061 109.065 17.58 109.142 17.378C109.443 16.599 109.697 15.8151 109.893 15.0528C109.905 15.0048 109.893 14.9567 109.866 14.9182C109.852 14.8989 109.818 14.8653 109.766 14.8653H108.289C108.145 14.8653 108.018 14.9687 107.978 15.1226C107.22 17.8902 106.326 19.6648 104.677 21.6654C104.624 21.7279 104.598 21.8072 104.598 21.889V24.3512C105.781 23.2476 106.835 21.9058 107.739 20.3573C107.849 20.1697 108.047 20.0519 108.26 20.0519H110.062C110.399 20.0519 110.672 20.3356 110.672 20.6843V25.5703C110.672 25.919 110.397 26.2027 110.062 26.2027H104.206V26.2051ZM128.844 40.4136H119.285C118.948 40.4136 118.675 40.1203 118.675 39.7596V15.6876C118.675 15.327 118.95 15.0336 119.285 15.0336H128.844C129.181 15.0336 129.456 15.327 129.456 15.6876V39.7596C129.456 40.1203 129.181 40.4136 128.844 40.4136ZM119.285 15.5145C119.213 15.5145 119.153 15.5939 119.153 15.6876V39.7596C119.153 39.8534 119.213 39.9327 119.285 39.9327H128.844C128.916 39.9327 128.978 39.8534 128.978 39.7596V15.6876C128.978 15.5939 128.918 15.5145 128.844 15.5145H119.285ZM126.597 37.7903H121.506C121.168 37.7903 120.894 37.4969 120.894 37.1362V18.5491C120.894 18.1884 121.168 17.895 121.506 17.895H126.597C126.934 17.895 127.207 18.1884 127.207 18.5491V37.1338C127.207 37.4945 126.932 37.7879 126.597 37.7879V37.7903ZM121.506 18.3783C121.434 18.3783 121.372 18.4577 121.372 18.5515V37.1338C121.372 37.2276 121.431 37.307 121.506 37.307H126.597C126.669 37.307 126.729 37.2276 126.729 37.1338V18.5491C126.729 18.4553 126.669 18.3759 126.597 18.3759H121.506V18.3783Z" fill="#231815"/>
<path d="M134.194 20.9007V19.4964C134.194 19.3305 134.321 19.1983 134.479 19.1983H141.727C141.885 19.1983 142.011 19.3329 142.011 19.4964V20.9007C142.011 21.0666 141.885 21.1989 141.727 21.1989H134.479C134.321 21.1989 134.194 21.0642 134.194 20.9007ZM134.837 39.5696V31.8198C134.837 31.6538 134.964 31.5216 135.122 31.5216H141.139C141.296 31.5216 141.423 31.6562 141.423 31.8198V39.5696C141.423 39.7355 141.296 39.8678 141.139 39.8678H135.122C134.964 39.8678 134.837 39.7331 134.837 39.5696ZM134.89 16.8683V15.5482C134.89 15.3822 135.017 15.25 135.174 15.25H141.084C141.241 15.25 141.368 15.3846 141.368 15.5482V16.8683C141.368 17.0342 141.241 17.1664 141.084 17.1664H135.174C135.017 17.1664 134.89 17.0318 134.89 16.8683ZM134.89 24.962V23.6419C134.89 23.476 135.017 23.3437 135.174 23.3437H141.084C141.241 23.3437 141.368 23.4784 141.368 23.6419V24.962C141.368 25.1279 141.241 25.2601 141.084 25.2601H135.174C135.017 25.2601 134.89 25.1255 134.89 24.962ZM134.89 29.0521V27.732C134.89 27.5661 135.017 27.4339 135.174 27.4339H141.084C141.241 27.4339 141.368 27.5685 141.368 27.732V29.0521C141.368 29.218 141.241 29.3503 141.084 29.3503H135.174C135.017 29.3503 134.89 29.2156 134.89 29.0521ZM139.451 33.4116H136.886C136.728 33.4116 136.602 33.5462 136.602 33.7097V37.6796C136.602 37.8456 136.728 37.9778 136.886 37.9778H139.451C139.609 37.9778 139.735 37.8432 139.735 37.6796V33.7097C139.735 33.5438 139.609 33.4116 139.451 33.4116ZM157.21 40.4064C156.149 40.4064 155.015 39.6009 154.102 37.1603C154.026 36.9559 153.775 36.9054 153.631 37.0641C152.321 38.5068 150.858 39.7476 149.274 40.5699C149.082 40.6685 148.86 40.5266 148.86 40.303V38.2351C148.886 38.2062 148.941 38.2062 148.968 38.1798H143.364C143.206 38.1798 143.08 38.0451 143.08 37.8816V27.001C143.08 26.8351 143.206 26.7029 143.364 26.7029H150.639C150.796 26.7029 150.923 26.8375 150.923 27.001V36.297C150.923 36.5495 151.205 36.689 151.389 36.5279C152.068 35.9387 152.673 35.2655 153.244 34.5417C153.299 34.472 153.321 34.3782 153.302 34.2892C152.847 32.1564 152.515 29.2757 152.352 25.5246C152.345 25.3659 152.221 25.2385 152.07 25.2385C150.615 25.2385 143.723 25.2385 142.238 25.2385C142.081 25.2385 141.956 25.1038 141.956 24.9403V23.4784C141.956 23.3125 142.083 23.1802 142.241 23.1802H144.034C144.208 23.1802 144.342 23.0143 144.313 22.8339C144.12 21.6269 143.773 19.9846 143.508 18.7871C143.479 18.6524 143.364 18.5562 143.233 18.5562H142.724C142.566 18.5562 142.439 18.4216 142.439 18.2581V16.8827C142.439 16.7168 142.566 16.5845 142.724 16.5845H145.903C146.061 16.5845 146.187 16.4499 146.187 16.2864V14.7114C146.187 14.5455 146.314 14.4132 146.472 14.4132H148.045C148.203 14.4132 148.329 14.5479 148.329 14.7114V16.2864C148.329 16.4523 148.456 16.5845 148.614 16.5845H151.339C151.497 16.5845 151.623 16.7192 151.623 16.8827V18.2581C151.623 18.424 151.497 18.5562 151.339 18.5562H150.765C150.627 18.5562 150.507 18.662 150.486 18.8063L149.857 22.8339C149.828 23.0167 149.962 23.1802 150.137 23.1802H152.001C152.161 23.1802 152.288 23.0431 152.283 22.8748C152.264 22.0404 152.264 21.1796 152.264 20.2755V14.7378C152.264 14.5719 152.391 14.4397 152.549 14.4397H154.043C154.2 14.4397 154.327 14.5743 154.327 14.7378V20.2491C154.327 21.1844 154.327 22.0525 154.346 22.8917C154.351 23.0528 154.475 23.1826 154.631 23.1826H158.728C158.886 23.1826 159.012 23.3173 159.012 23.4808V24.9427C159.012 25.1087 158.886 25.2409 158.728 25.2409H154.705C154.542 25.2409 154.413 25.3852 154.42 25.5559C154.511 27.7609 154.65 29.5955 154.827 31.1152C154.86 31.4086 155.235 31.4759 155.362 31.2138C155.988 29.9129 156.49 28.5423 156.844 27.102C156.878 26.9698 156.988 26.8784 157.117 26.8784H158.233C158.415 26.8784 158.551 27.0539 158.513 27.2391C157.987 29.7591 156.945 32.3127 155.525 34.5489C155.479 34.6211 155.465 34.71 155.486 34.7918C156.046 37.004 156.777 37.7903 157.461 37.7903C157.805 37.7903 158.372 37.319 159.024 36.5495C159.199 36.3451 159.522 36.4702 159.522 36.7467V38.8026C159.522 38.8771 159.495 38.9517 159.447 39.007C158.781 39.762 157.839 40.416 157.22 40.416L157.21 40.4064ZM148.817 28.5063H145.21C145.052 28.5063 144.925 28.6409 144.925 28.8044V31.3941C144.925 31.5601 145.052 31.6923 145.21 31.6923H148.817C148.975 31.6923 149.101 31.5577 149.101 31.3941V28.8044C149.101 28.6385 148.975 28.5063 148.817 28.5063ZM148.817 33.1591H145.21C145.052 33.1591 144.925 33.2937 144.925 33.4573V36.0734C144.925 36.2393 145.052 36.3716 145.21 36.3716H148.817C148.975 36.3716 149.101 36.2369 149.101 36.0734V33.4573C149.101 33.2913 148.975 33.1591 148.817 33.1591ZM145.267 18.9121C145.518 20.1288 145.86 21.7182 146.063 22.9301C146.087 23.0744 146.204 23.1778 146.343 23.1778H147.842C147.98 23.1778 148.1 23.072 148.121 22.9253L148.726 18.8977C148.752 18.7174 148.621 18.5514 148.446 18.5514C147.77 18.5514 146.235 18.5514 145.542 18.5514C145.36 18.5514 145.226 18.727 145.265 18.9121H145.267ZM157.272 21.4994C157.019 20.1913 156.278 17.0847 155.867 15.5169C155.816 15.3269 155.953 15.1394 156.139 15.1394H157.239C157.365 15.1394 157.475 15.2259 157.511 15.3534C157.922 16.8322 158.675 19.9557 158.981 21.3744C159.022 21.5619 158.888 21.7375 158.706 21.7375C158.362 21.7375 157.846 21.7375 157.549 21.7375C157.416 21.7375 157.301 21.6389 157.272 21.4994Z" fill="#231815"/>
<path d="M149.145 40.8392C149.052 40.8392 148.959 40.8128 148.875 40.7623C148.715 40.6637 148.619 40.4906 148.619 40.3006V38.4178H143.36C143.071 38.4178 142.837 38.175 142.837 37.8792V26.9986C142.837 26.7005 143.071 26.46 143.36 26.46H150.634C150.924 26.46 151.158 26.7029 151.158 26.9986V36.2946C151.158 36.3307 151.177 36.3451 151.189 36.3499C151.208 36.3595 151.218 36.3499 151.23 36.3427C151.839 35.8137 152.435 35.1741 153.054 34.3902C153.066 34.3758 153.07 34.3566 153.066 34.3373C152.588 32.0987 152.267 29.1363 152.112 25.5319C152.112 25.4982 152.088 25.4741 152.069 25.4741H142.237C141.95 25.4741 141.716 25.2313 141.716 24.9355V23.4736C141.716 23.1754 141.95 22.9349 142.239 22.9349H144.032C144.032 22.9349 144.053 22.9301 144.063 22.9205C144.07 22.9133 144.082 22.8941 144.077 22.8676C143.924 21.9178 143.654 20.5592 143.274 18.8328C143.269 18.8087 143.25 18.7919 143.231 18.7919H142.722C142.433 18.7919 142.198 18.549 142.198 18.2533V16.8779C142.198 16.5797 142.433 16.3393 142.722 16.3393H145.901C145.925 16.3393 145.947 16.3128 145.947 16.2815V14.709C145.947 14.4108 146.181 14.1703 146.47 14.1703H148.043C148.332 14.1703 148.567 14.4132 148.567 14.709V16.2815C148.567 16.3128 148.586 16.3393 148.612 16.3393H151.337C151.627 16.3393 151.861 16.5821 151.861 16.8779V18.2533C151.861 18.5514 151.627 18.7919 151.337 18.7919H150.764C150.742 18.7919 150.723 18.8111 150.721 18.84L150.092 22.8676C150.087 22.8965 150.099 22.9157 150.106 22.9229C150.116 22.9325 150.125 22.9373 150.135 22.9373H151.999C151.999 22.9373 152.019 22.9325 152.026 22.9253C152.033 22.9181 152.042 22.9037 152.042 22.8772C152.023 22.0404 152.023 21.182 152.023 20.2731V14.7354C152.023 14.4373 152.258 14.1968 152.547 14.1968H154.041C154.33 14.1968 154.564 14.4397 154.564 14.7354V20.2467C154.564 21.1724 154.564 22.0453 154.584 22.8844C154.584 22.9157 154.605 22.9397 154.629 22.9397H158.726C159.016 22.9397 159.25 23.1826 159.25 23.4784V24.9403C159.25 25.2385 159.016 25.479 158.726 25.479H154.703C154.703 25.479 154.684 25.4838 154.677 25.491C154.672 25.4982 154.658 25.515 154.658 25.5415C154.744 27.6455 154.88 29.509 155.062 31.0816C155.064 31.1104 155.078 31.1272 155.102 31.1321C155.126 31.1369 155.138 31.1224 155.145 31.1056C155.779 29.7903 156.271 28.4221 156.611 27.0395C156.67 26.7991 156.876 26.6331 157.115 26.6331H158.231C158.387 26.6331 158.535 26.7053 158.635 26.8279C158.738 26.9553 158.779 27.1213 158.745 27.2848C158.208 29.8552 157.163 32.4113 155.726 34.6764C155.717 34.6908 155.714 34.7124 155.717 34.7317C156.168 36.5231 156.804 37.5498 157.459 37.5498C157.526 37.5498 157.906 37.4945 158.841 36.3932C158.984 36.2249 159.209 36.1648 159.415 36.2393C159.625 36.3163 159.759 36.5158 159.759 36.7467V38.8026C159.759 38.9396 159.711 39.0671 159.623 39.1657C158.989 39.8822 157.966 40.6541 157.218 40.6541C155.851 40.6541 154.729 39.5095 153.888 37.2516C153.878 37.2276 153.864 37.2204 153.854 37.218C153.843 37.218 153.831 37.218 153.819 37.2324C152.384 38.8122 150.895 40.0097 149.394 40.7887C149.317 40.8272 149.236 40.8488 149.155 40.8488L149.145 40.8392ZM149.1 38.377V40.2982C149.1 40.3295 149.117 40.3439 149.126 40.3511C149.145 40.3631 149.16 40.3559 149.167 40.3511C150.618 39.5961 152.062 38.4347 153.458 36.8958C153.582 36.7587 153.761 36.6986 153.938 36.7323C154.117 36.7659 154.263 36.8934 154.33 37.0689C155.086 39.0911 156.082 40.1587 157.213 40.1587C157.713 40.1587 158.592 39.5889 159.262 38.8314C159.271 38.8218 159.276 38.805 159.276 38.7881V36.7323C159.276 36.6962 159.259 36.6818 159.245 36.6769C159.224 36.6697 159.212 36.6794 159.202 36.6914C158.456 37.5714 157.868 38.0163 157.457 38.0163C156.525 38.0163 155.784 36.9463 155.251 34.8375C155.212 34.6908 155.239 34.5321 155.32 34.4046C156.728 32.1877 157.749 29.6893 158.274 27.1742C158.279 27.1477 158.267 27.1261 158.263 27.1213C158.255 27.114 158.246 27.1044 158.231 27.1044H157.115C157.096 27.1044 157.082 27.1213 157.074 27.1453C156.728 28.5592 156.223 29.9586 155.576 31.3052C155.473 31.5192 155.253 31.637 155.023 31.5961C154.792 31.5577 154.617 31.3677 154.588 31.1272C154.404 29.5426 154.268 27.6647 154.182 25.5511C154.175 25.402 154.232 25.2553 154.333 25.1471C154.431 25.0437 154.564 24.986 154.703 24.986H158.726C158.748 24.986 158.772 24.962 158.772 24.9283V23.4663C158.772 23.4303 158.748 23.4086 158.726 23.4086H154.629C154.342 23.4086 154.113 23.1778 154.105 22.882C154.086 22.0404 154.086 21.1628 154.086 20.2346V14.7234C154.086 14.6921 154.067 14.6657 154.041 14.6657H152.547C152.523 14.6657 152.501 14.6921 152.501 14.7234V20.2611C152.501 21.1676 152.501 22.0236 152.521 22.8556C152.523 23.0023 152.468 23.1465 152.368 23.2499C152.27 23.3509 152.138 23.4062 151.999 23.4062H150.135C149.984 23.4062 149.841 23.3389 149.743 23.2235C149.64 23.1033 149.595 22.9422 149.621 22.781L150.25 18.7534C150.29 18.4913 150.508 18.299 150.766 18.299H151.34C151.361 18.299 151.385 18.2749 151.385 18.2413V16.8659C151.385 16.8322 151.361 16.8081 151.34 16.8081H148.615C148.325 16.8081 148.091 16.5653 148.091 16.2695V14.6969C148.091 14.6657 148.072 14.6392 148.046 14.6392H146.473C146.449 14.6392 146.427 14.6657 146.427 14.6969V16.2695C146.427 16.5677 146.193 16.8081 145.904 16.8081H142.724C142.7 16.8081 142.679 16.8346 142.679 16.8659V18.2413C142.679 18.2773 142.703 18.299 142.724 18.299H143.234C143.48 18.299 143.688 18.4721 143.743 18.7174C144.125 20.4534 144.398 21.8192 144.551 22.7786C144.577 22.9373 144.532 23.0984 144.429 23.2211C144.328 23.3389 144.185 23.4062 144.034 23.4062H142.241C142.22 23.4062 142.196 23.4303 142.196 23.4639V24.9259C142.196 24.9572 142.215 24.9836 142.239 24.9836H152.071C152.351 24.9836 152.578 25.2096 152.592 25.5006C152.748 29.0786 153.063 32.0145 153.534 34.2267C153.568 34.3878 153.529 34.5513 153.431 34.6788C152.793 35.4891 152.176 36.1479 151.545 36.6986C151.39 36.8332 151.18 36.8645 150.995 36.7779C150.804 36.689 150.685 36.5014 150.685 36.285V26.989C150.685 26.9529 150.661 26.9313 150.639 26.9313H143.365C143.344 26.9313 143.32 26.9553 143.32 26.989V37.8696C143.32 37.9057 143.344 37.9273 143.365 37.9273H149.525L149.143 38.3337C149.128 38.3481 149.117 38.3601 149.102 38.3698L149.1 38.377ZM141.137 40.1082H135.12C134.831 40.1082 134.597 39.8654 134.597 39.5696V31.8198C134.597 31.5216 134.831 31.2811 135.12 31.2811H141.137C141.426 31.2811 141.661 31.524 141.661 31.8198V39.5696C141.661 39.8678 141.426 40.1082 141.137 40.1082ZM135.12 31.7596C135.099 31.7596 135.075 31.7837 135.075 31.8174V39.5672C135.075 39.6033 135.099 39.6249 135.12 39.6249H141.137C141.161 39.6249 141.182 39.5985 141.182 39.5672V31.8174C141.182 31.7813 141.159 31.7596 141.137 31.7596H135.12ZM139.452 38.2183H136.887C136.598 38.2183 136.363 37.9754 136.363 37.6796V33.7097C136.363 33.4116 136.598 33.1711 136.887 33.1711H139.452C139.741 33.1711 139.975 33.414 139.975 33.7097V37.6796C139.975 37.9778 139.741 38.2183 139.452 38.2183ZM136.887 33.6496C136.865 33.6496 136.841 33.6737 136.841 33.7073V37.6772C136.841 37.7133 136.865 37.735 136.887 37.735H139.452C139.473 37.735 139.497 37.7109 139.497 37.6772V33.7073C139.497 33.6713 139.473 33.6496 139.452 33.6496H136.887ZM148.818 36.612H145.21C144.921 36.612 144.687 36.3692 144.687 36.0734V33.4573C144.687 33.1591 144.921 32.9186 145.21 32.9186H148.818C149.107 32.9186 149.341 33.1615 149.341 33.4573V36.0734C149.341 36.3716 149.107 36.612 148.818 36.612ZM145.21 33.3971C145.187 33.3971 145.165 33.4236 145.165 33.4548V36.071C145.165 36.1071 145.189 36.1287 145.21 36.1287H148.818C148.839 36.1287 148.863 36.1047 148.863 36.071V33.4548C148.863 33.4188 148.839 33.3971 148.818 33.3971H145.21ZM148.818 31.9304H145.21C144.921 31.9304 144.687 31.6875 144.687 31.3917V28.802C144.687 28.5039 144.921 28.2634 145.21 28.2634H148.818C149.107 28.2634 149.341 28.5063 149.341 28.802V31.3917C149.341 31.6899 149.107 31.9304 148.818 31.9304ZM145.21 28.7443C145.189 28.7443 145.165 28.7684 145.165 28.802V31.3917C145.165 31.423 145.184 31.4495 145.21 31.4495H148.818C148.842 31.4495 148.863 31.423 148.863 31.3917V28.802C148.863 28.766 148.839 28.7443 148.818 28.7443H145.21ZM141.084 29.5907H135.175C134.886 29.5907 134.652 29.3479 134.652 29.0521V27.732C134.652 27.4339 134.886 27.1934 135.175 27.1934H141.084C141.374 27.1934 141.608 27.4363 141.608 27.732V29.0521C141.608 29.3503 141.374 29.5907 141.084 29.5907ZM135.175 27.6719C135.154 27.6719 135.13 27.6959 135.13 27.7296V29.0497C135.13 29.0858 135.154 29.1074 135.175 29.1074H141.084C141.106 29.1074 141.13 29.0834 141.13 29.0497V27.7296C141.13 27.6935 141.106 27.6719 141.084 27.6719H135.175ZM141.084 25.5006H135.175C134.886 25.5006 134.652 25.2577 134.652 24.962V23.6419C134.652 23.3437 134.886 23.1033 135.175 23.1033H141.084C141.374 23.1033 141.608 23.3461 141.608 23.6419V24.962C141.608 25.2601 141.374 25.5006 141.084 25.5006ZM135.175 23.5818C135.154 23.5818 135.13 23.6058 135.13 23.6395V24.9596C135.13 24.9908 135.149 25.0173 135.175 25.0173H141.084C141.106 25.0173 141.13 24.9932 141.13 24.9596V23.6395C141.13 23.6034 141.106 23.5818 141.084 23.5818H135.175ZM147.845 23.4134H146.346C146.09 23.4134 145.875 23.2259 145.832 22.9662C145.669 22.002 145.418 20.7925 145.196 19.7273L145.036 18.9578C145.002 18.7943 145.043 18.6284 145.146 18.5009C145.246 18.3783 145.392 18.3086 145.548 18.3086H148.452C148.603 18.3086 148.744 18.3759 148.842 18.4913C148.944 18.6116 148.99 18.7727 148.966 18.9314L148.361 22.959C148.321 23.2235 148.103 23.4158 147.845 23.4158V23.4134ZM145.548 18.7895C145.548 18.7895 145.526 18.7943 145.516 18.8063C145.512 18.8135 145.497 18.8328 145.505 18.8616L145.665 19.6311C145.887 20.7011 146.14 21.9154 146.303 22.8893C146.308 22.9157 146.324 22.9349 146.346 22.9349H147.845C147.866 22.9349 147.885 22.9133 147.888 22.8868L148.493 18.8592C148.497 18.8304 148.483 18.8111 148.478 18.8039C148.471 18.7943 148.462 18.7895 148.45 18.7895H145.545H145.548ZM158.707 21.9755H157.55C157.304 21.9755 157.089 21.7928 157.039 21.5427C156.79 20.2611 156.047 17.1376 155.635 15.5746C155.592 15.4087 155.626 15.2356 155.729 15.1009C155.829 14.9711 155.977 14.8965 156.14 14.8965H157.239C157.471 14.8965 157.679 15.0576 157.741 15.2861C158.155 16.7745 158.91 19.9028 159.214 21.3215C159.25 21.485 159.209 21.6533 159.106 21.7808C159.006 21.9034 158.86 21.9755 158.705 21.9755H158.707ZM157.51 21.4489C157.514 21.4754 157.531 21.4946 157.553 21.4946H158.71C158.71 21.4946 158.731 21.4898 158.741 21.4778C158.745 21.4706 158.76 21.4513 158.753 21.4225C158.449 20.0086 157.696 16.8971 157.285 15.4135C157.278 15.3895 157.261 15.375 157.244 15.375H156.145C156.133 15.375 156.121 15.3798 156.113 15.3919C156.109 15.3991 156.094 15.4207 156.104 15.4496C156.525 17.0534 157.259 20.136 157.514 21.4489H157.51ZM141.728 21.4393H134.48C134.19 21.4393 133.956 21.1964 133.956 20.9007V19.4964C133.956 19.1983 134.19 18.9578 134.48 18.9578H141.728C142.017 18.9578 142.251 19.2007 142.251 19.4964V20.9007C142.251 21.1989 142.017 21.4393 141.728 21.4393ZM134.48 19.4363C134.458 19.4363 134.434 19.4604 134.434 19.494V20.8983C134.434 20.9295 134.453 20.956 134.48 20.956H141.728C141.751 20.956 141.773 20.9295 141.773 20.8983V19.494C141.773 19.4628 141.754 19.4363 141.728 19.4363H134.48ZM141.084 17.4069H135.175C134.886 17.4069 134.652 17.164 134.652 16.8683V15.5482C134.652 15.25 134.886 15.0095 135.175 15.0095H141.084C141.374 15.0095 141.608 15.2524 141.608 15.5482V16.8683C141.608 17.1664 141.374 17.4069 141.084 17.4069ZM135.175 15.488C135.151 15.488 135.13 15.5145 135.13 15.5458V16.8659C135.13 16.9019 135.154 16.9236 135.175 16.9236H141.084C141.106 16.9236 141.13 16.8995 141.13 16.8659V15.5458C141.13 15.5145 141.111 15.488 141.084 15.488H135.175Z" fill="#231815"/>
<path d="M168.539 18.2942C168.446 18.2942 168.369 18.3735 168.369 18.4721V25.9094C168.369 33.1255 167.272 37.6869 164.642 40.2766C164.532 40.3848 164.355 40.3055 164.355 40.1492V36.7684C164.355 36.7299 164.367 36.6962 164.389 36.665C165.599 34.9553 166.203 31.3605 166.203 25.8806V16.4138C166.203 16.3153 166.28 16.2359 166.373 16.2359H175.964C176.057 16.2359 176.133 16.1566 176.133 16.058V14.6657C176.133 14.5671 176.21 14.4878 176.303 14.4878H178.347C178.44 14.4878 178.517 14.5671 178.517 14.6657V16.058C178.517 16.1566 178.593 16.2359 178.686 16.2359H188.946C189.04 16.2359 189.116 16.3153 189.116 16.4138V18.1163C189.116 18.2148 189.04 18.2942 188.946 18.2942H168.544H168.539ZM180.092 37.4801V40.368C180.092 40.4666 180.016 40.5459 179.922 40.5459H178.065C177.972 40.5459 177.895 40.4666 177.895 40.368V37.4801C177.895 37.3815 177.819 37.3022 177.725 37.3022H169.366C169.273 37.3022 169.196 37.2228 169.196 37.1242V35.393C169.196 35.2944 169.273 35.215 169.366 35.215H177.725C177.819 35.215 177.895 35.1357 177.895 35.0371V33.4477C177.895 33.3491 177.819 33.2697 177.725 33.2697H170.65C170.556 33.2697 170.48 33.1904 170.48 33.0918V24.3657C170.48 24.2671 170.556 24.1878 170.65 24.1878H177.725C177.819 24.1878 177.895 24.1084 177.895 24.0098V22.5599C177.895 22.4613 177.819 22.3819 177.725 22.3819H169.98C169.887 22.3819 169.811 22.3026 169.811 22.204V20.7276C169.811 20.629 169.887 20.5497 169.98 20.5497H177.725C177.819 20.5497 177.895 20.4703 177.895 20.3717V19.0637C177.895 18.9651 177.972 18.8857 178.065 18.8857H179.922C180.016 18.8857 180.092 18.9651 180.092 19.0637V20.3717C180.092 20.4703 180.169 20.5497 180.262 20.5497H188.781C188.875 20.5497 188.951 20.629 188.951 20.7276V22.204C188.951 22.3026 188.875 22.3819 188.781 22.3819H180.262C180.169 22.3819 180.092 22.4613 180.092 22.5599V24.0098C180.092 24.1084 180.169 24.1878 180.262 24.1878H187.632C187.725 24.1878 187.801 24.2671 187.801 24.3657V33.0918C187.801 33.1904 187.725 33.2697 187.632 33.2697H180.262C180.169 33.2697 180.092 33.3491 180.092 33.4477V35.0371C180.092 35.1357 180.169 35.215 180.262 35.215H188.944C189.037 35.215 189.114 35.2944 189.114 35.393V37.1242C189.114 37.2228 189.037 37.3022 188.944 37.3022H180.262C180.169 37.3022 180.092 37.3815 180.092 37.4801Z" fill="#231815"/>
<path d="M179.923 40.7839H178.065C177.841 40.7839 177.656 40.5964 177.656 40.3655V37.5402H169.366C169.142 37.5402 168.957 37.3526 168.957 37.1218V35.3905C168.957 35.1597 169.142 34.9721 169.366 34.9721H177.656V33.5078H170.65C170.425 33.5078 170.241 33.3202 170.241 33.0894V24.3633C170.241 24.1324 170.425 23.9449 170.65 23.9449H177.654V22.62H169.981C169.756 22.62 169.572 22.4324 169.572 22.2016V20.7252C169.572 20.4943 169.756 20.3068 169.981 20.3068H177.654V19.0612C177.654 18.8304 177.838 18.6428 178.063 18.6428H179.92C180.145 18.6428 180.329 18.8304 180.329 19.0612V20.3068H188.779C189.004 20.3068 189.188 20.4943 189.188 20.7252V22.2016C189.188 22.4324 189.004 22.62 188.779 22.62H180.329V23.9449H187.63C187.854 23.9449 188.038 24.1324 188.038 24.3633V33.0894C188.038 33.3202 187.854 33.5078 187.63 33.5078H180.329V34.9721H188.94C189.164 34.9721 189.348 35.1597 189.348 35.3905V37.1218C189.348 37.3526 189.164 37.5402 188.94 37.5402H180.329V40.3655C180.329 40.5964 180.145 40.7839 179.92 40.7839H179.923ZM178.137 40.303H179.853V37.4777C179.853 37.2468 180.037 37.0593 180.262 37.0593H188.873V35.4531H180.262C180.037 35.4531 179.853 35.2655 179.853 35.0347V33.4453C179.853 33.2144 180.037 33.0269 180.262 33.0269H187.563V24.4258H180.262C180.037 24.4258 179.853 24.2382 179.853 24.0074V22.5574C179.853 22.3266 180.037 22.1391 180.262 22.1391H188.712V20.7877H180.262C180.037 20.7877 179.853 20.6001 179.853 20.3693V19.1237H178.137V20.3693C178.137 20.6001 177.953 20.7877 177.728 20.7877H170.055V22.1391H177.728C177.953 22.1391 178.137 22.3266 178.137 22.5574V24.0074C178.137 24.2382 177.953 24.4258 177.728 24.4258H170.722V33.0269H177.726C177.951 33.0269 178.135 33.2144 178.135 33.4453V35.0347C178.135 35.2655 177.951 35.4531 177.726 35.4531H169.436V37.0593H177.726C177.951 37.0593 178.135 37.2468 178.135 37.4777V40.303H178.137ZM164.526 40.5627C164.473 40.5627 164.42 40.5531 164.37 40.5315C164.217 40.4665 164.119 40.3151 164.119 40.1443V36.7635C164.119 36.677 164.145 36.5928 164.196 36.5207C165.369 34.8591 165.965 31.2788 165.965 25.8757V16.4138C165.965 16.183 166.149 15.9954 166.373 15.9954H175.895V14.6657C175.895 14.4349 176.079 14.2473 176.303 14.2473H178.347C178.572 14.2473 178.756 14.4349 178.756 14.6657V15.9954H188.947C189.171 15.9954 189.356 16.183 189.356 16.4138V18.1162C189.356 18.3471 189.171 18.5346 188.947 18.5346H168.613V25.9094C168.613 33.3755 167.442 37.86 164.815 40.4473C164.736 40.5243 164.633 40.5651 164.53 40.5651L164.526 40.5627ZM164.595 36.7852V39.9832C167.04 37.4729 168.13 33.1182 168.13 25.907V18.4697C168.13 18.2389 168.314 18.0513 168.539 18.0513H188.873V16.4739H178.682C178.457 16.4739 178.273 16.2864 178.273 16.0555V14.7258H176.37V16.0555C176.37 16.2864 176.186 16.4739 175.962 16.4739H166.44V25.8781C166.44 31.4423 165.836 35.0106 164.595 36.7852Z" fill="#231815"/>
<path d="M184.938 26.1835H173.368C172.936 26.1835 172.586 26.5356 172.586 26.9698V30.3939C172.586 30.8282 172.936 31.1802 173.368 31.1802H184.938C185.369 31.1802 185.719 30.8282 185.719 30.3939V26.9698C185.719 26.5356 185.369 26.1835 184.938 26.1835Z" fill="white"/>
<path d="M172.39 30.9998L176.841 29.3455C177.072 29.2589 177.335 29.3864 177.429 29.6244L178.129 31.4543C178.22 31.6947 178.485 31.8198 178.717 31.7332L192.859 27.0564L194.432 26.5201C194.664 26.436 194.659 26.3109 194.423 26.246L188.432 22.8724C188.195 22.8051 188.062 22.9518 188.136 23.1995L188.872 25.6449L180.226 28.2153C179.994 28.2971 179.728 28.1697 179.637 27.9292L178.939 26.1017C178.849 25.8613 178.583 25.7363 178.351 25.8228L170.688 28.6698" fill="#231815"/>
<path d="M99.193 22.3266H97.4766C97.1396 22.3266 96.8623 22.0501 96.8623 21.7087V15.1971C96.8623 14.8581 96.5874 14.5792 96.2479 14.5792H88.3474C88.0103 14.5792 87.6708 14.8485 87.5944 15.1803L85.4931 24.2262C85.4166 24.5556 85.6294 24.8274 85.9664 24.8274H87.5967C87.9338 24.8274 88.2709 24.5556 88.345 24.2262L89.7482 17.9335C89.8223 17.6017 90.1593 17.3324 90.4964 17.3324H93.5132C93.8503 17.3324 94.1276 17.6089 94.1276 17.9503V23.0288C94.1276 24.1613 95.0407 25.0774 96.1643 25.0774H99.193C99.5301 25.0774 99.8074 24.8009 99.8074 24.4595V22.9422C99.8074 22.6032 99.5325 22.3242 99.193 22.3242V22.3266Z" fill="#231815"/>
<path d="M83.1798 14.5792H76.0489C75.7119 14.5792 75.4346 14.8557 75.4346 15.1971V39.7163C75.4346 40.0554 75.7095 40.3343 76.0489 40.3343H77.5573C77.8944 40.3343 78.1717 40.0578 78.1717 39.7163V31.6587H81.0594V39.7163C81.0594 40.0554 81.3343 40.3343 81.6737 40.3343H83.1821C83.5192 40.3343 83.7965 40.0578 83.7965 39.7163V15.1971C83.7965 14.8581 83.5216 14.5792 83.1821 14.5792H83.1798ZM78.7836 17.33H80.4426C80.7797 17.33 81.057 17.6065 81.057 17.9479V21.9154H78.1693V17.9479C78.1693 17.6089 78.4442 17.33 78.7836 17.33ZM78.1693 28.9079V24.6663H81.057V28.9079H78.1693Z" fill="#231815"/>
<path d="M96.1332 26.5779H86.7553C86.588 26.5779 86.4541 26.7149 86.4541 26.8809V29.0233C86.4541 29.1916 86.5904 29.3263 86.7553 29.3263H94.9164C95.165 29.3263 95.3085 29.6124 95.1579 29.812L92.4447 33.2337L90.5968 30.8989C90.3865 30.6344 89.9394 30.4155 89.6024 30.4155H87.4222C87.0852 30.4155 86.98 30.632 87.1904 30.8989L90.7402 35.3858L87.1569 39.9015C87.0087 40.1011 87.1497 40.3872 87.3983 40.3872H90.059C90.1546 40.3872 90.2454 40.3415 90.3028 40.2646L92.4566 37.5547L94.3164 39.9063C94.5268 40.1708 94.9738 40.3896 95.3109 40.3896H97.4934C97.8304 40.3896 97.9356 40.1732 97.7253 39.9063L94.1634 35.405L98.0814 30.4733C99.2719 28.8622 98.1292 26.5779 96.1332 26.5779Z" fill="#231815"/>
<path d="M70.4313 22.3266H68.7149C68.3779 22.3266 68.1006 22.0501 68.1006 21.7087V15.1971C68.1006 14.8581 67.8257 14.5792 67.4862 14.5792H59.5856C59.2486 14.5792 58.9091 14.8485 58.8326 15.1803L56.7314 24.2262C56.6549 24.5556 56.8677 24.8274 57.2047 24.8274H58.8374C59.1745 24.8274 59.5115 24.5556 59.5856 24.2262L60.9889 17.9335C61.063 17.6017 61.4 17.3324 61.7371 17.3324H64.7539C65.0909 17.3324 65.3682 17.6089 65.3682 17.9503V23.0288C65.3682 24.1613 66.2814 25.0774 67.4049 25.0774H70.4337C70.7707 25.0774 71.048 24.8009 71.048 24.4595V22.9422C71.048 22.6032 70.7731 22.3242 70.4337 22.3242L70.4313 22.3266Z" fill="#231815"/>
<path d="M54.4171 14.5792H47.2862C46.9492 14.5792 46.6719 14.8557 46.6719 15.1971V39.7163C46.6719 40.0554 46.9468 40.3343 47.2862 40.3343H48.7946C49.1317 40.3343 49.409 40.0578 49.409 39.7163V31.6587H52.2967V39.7163C52.2967 40.0554 52.5716 40.3343 52.9111 40.3343H54.4195C54.7565 40.3343 55.0338 40.0578 55.0338 39.7163V15.1971C55.0338 14.8581 54.7589 14.5792 54.4195 14.5792H54.4171ZM50.0209 17.33H51.6799C52.017 17.33 52.2943 17.6065 52.2943 17.9479V21.9154H49.4066V17.9479C49.4066 17.6089 49.6815 17.33 50.0209 17.33ZM49.4066 28.9079V24.6663H52.2943V28.9079H49.4066Z" fill="#231815"/>
<path d="M67.3715 26.5779H57.9936C57.8262 26.5779 57.6924 26.7149 57.6924 26.8809V29.0233C57.6924 29.1916 57.8286 29.3263 57.9936 29.3263H66.1547C66.4033 29.3263 66.5468 29.6124 66.3961 29.812L63.6829 33.2337L61.8351 30.8989C61.6247 30.6344 61.1777 30.4155 60.8407 30.4155H58.6605C58.3235 30.4155 58.2183 30.632 58.4287 30.8989L61.9785 35.3858L58.3952 39.9015C58.247 40.1011 58.388 40.3872 58.6366 40.3872H61.2972C61.3929 40.3872 61.4837 40.3415 61.5387 40.2646L63.6925 37.5547L65.5523 39.9063C65.7627 40.1708 66.2097 40.3896 66.5468 40.3896H68.7293C69.0663 40.3896 69.1715 40.1732 68.9611 39.9063L65.3993 35.405L69.3173 30.4733C70.5078 28.8622 69.3651 26.5779 67.3691 26.5779H67.3715Z" fill="#231815"/>
<path d="M19.2478 29.9034L22.2861 33.9791L36.0314 24.0074C34.9246 23.892 32.4289 24.5652 31.5898 24.8057C31.3054 24.1204 30.9922 23.4495 30.6528 22.7979C29.5531 20.5617 27.1937 17.2001 25.1594 15.6708C22.1737 13.425 18.5712 13.4875 15.5568 15.6756C14.8516 16.1878 14.1704 16.7529 13.5775 17.3829C9.96309 21.2398 8.19174 25.8228 7.41483 30.9493C7.05626 33.3202 7.19252 35.5973 7.81882 37.7614L19.2478 29.9058V29.9034Z" fill="#FFD228"/>
<path d="M21.8513 36.8549L18.7819 32.7383L6.08845 41.4645L6.0765 41.4476L6 41.5029C6.42312 41.8179 7.96259 41.4885 9.24628 41.1374C9.54988 41.6737 9.88454 42.2003 10.2551 42.7172C14.4121 48.529 22.4107 49.7457 27.9017 45.3719C31.7719 42.2868 33.2874 38.1077 33.4787 34.3205C33.4787 32.4354 33.2683 30.6103 32.8739 28.8598L21.8513 36.8549Z" fill="#FFD228"/>
<path d="M32.7301 28.9608C32.4241 33.9118 30.3396 39.3364 25.1355 43.3568C22.1737 45.6436 18.674 46.7737 15.1768 46.8314C19.2406 48.7358 24.1554 48.3559 27.9013 45.3719C31.7715 42.2868 33.2871 38.1077 33.4783 34.3205C33.4783 32.4354 33.268 30.6103 32.8735 28.8598L32.7301 28.9632V28.9608Z" fill="#FAB939"/>
<path d="M27.9488 19.1913C28.1052 17.2229 24.7647 15.3483 20.4876 15.0045C16.2105 14.6606 12.6164 15.9775 12.46 17.946C12.3036 19.9144 15.644 21.789 19.9211 22.1329C24.1983 22.4767 27.7923 21.1598 27.9488 19.1913Z" fill="#FAB939"/>
<path d="M32.1951 15.7165V11.2609L31.5186 11.4917V15.7165H32.1951Z" fill="#231815"/>
<path d="M28.1292 11.7586L20.5513 14.3435C20.482 14.3675 20.4079 14.3796 20.3362 14.3796C20.2645 14.3796 20.188 14.3675 20.1187 14.3435L12.5408 11.7586V18.1523H12.548L12.5312 18.2413C12.5312 19.0011 16.0261 20.6987 20.3314 20.6987C24.6367 20.6987 28.122 19.0011 28.122 18.2413L28.1053 18.1523H28.1316V11.7586H28.1292Z" fill="#231815"/>
<path d="M12.5381 12.6483L20.3335 15.3077L28.1288 12.6483L31.5186 11.4917L32.1951 11.2609L32.5512 11.1382L20.3335 7L8.11328 11.1382L12.5381 12.6483Z" fill="#231815"/>
<path d="M31.0596 16.7601V19.3618C31.0596 19.8066 31.4158 20.1649 31.858 20.1649C32.3002 20.1649 32.6564 19.8042 32.6564 19.3618V16.7601C32.6564 16.5412 32.568 16.3417 32.4269 16.1974H31.2891C31.148 16.3417 31.0596 16.5412 31.0596 16.7601Z" fill="#1E1311"/>
<path d="M31.1865 15.7165V16.1974H31.2893H32.4272H32.5276V15.7165H32.1953H31.5188H31.1865Z" fill="#1E1311"/>
</svg>
