<?xml version="1.0" encoding="UTF-8"?>
<svg id="_圖層_2" data-name="圖層_2" xmlns="http://www.w3.org/2000/svg" width="120" height="36.7" version="1.1" viewBox="0 0 120 36.7">
  <!-- Generator: Adobe Illustrator 29.5.1, SVG Export Plug-In . SVG Version: 2.1.0 Build 141)  -->
  <defs>
    <style>
      .st0, .st1 {
        fill: none;
      }

      .st1 {
        display: none;
      }

      .st2 {
        fill: #231815;
      }

      .st3 {
        fill: #fff;
      }

      .st4 {
        fill: #fbc82b;
      }
    </style>
  </defs>
  <g>
    <g>
      <path class="st1" d="M61,27c-.8-.6-2.1-.6-2.8,0-1.5,1.1-1.5,3.8-.9,5.4.5,1.6,2.4,2.4,3.8,1.4,1.7-1.4,1.7-5.4,0-6.7Z"/>
      <path class="st3" d="M50.8,29.3c0,1.2.2,2.7.3,3.9h0l-1.1-2.4-3.2-5.9h-2.3v11.1h2.1v-4.4c0-1.2-.2-2.6-.3-3.8h0l1.1,2.4,3.2,5.9h2.3v-11.1h-2.1v4.4Z"/>
      <path class="st3" d="M62.2,25.4c-1.4-.9-3.7-.9-5.2,0-2.6,1.5-2.9,5.6-1.7,8.1,1.1,2.6,4.6,3.4,6.9,2,3.2-2,3.2-8.2,0-10.1ZM62,32.4c-.5,1.6-2.4,2.4-3.8,1.4-1.4-1.2-1.5-3.8-.9-5.4.8-2.3,3.9-2.3,4.7,0,.4,1.1.4,3,0,4.1Z"/>
      <path class="st3" d="M75.3,30.3c-.2,1.2-.3,2.3-.5,3.5h0c-.2-1.2-.5-2.4-.7-3.5l-1.3-5.4h-1.9l-1.3,5.4c-.2,1.2-.5,2.3-.7,3.5h0c-.3-2.3-1-6.6-1.4-8.9h-2.3l2.1,11.1h2.7l1.2-5.5c.2-.8.3-1.7.5-2.5h0c.2,1.7,1.3,6.2,1.7,8h2.7l2-11.1h-2.1l-.9,5.4Z"/>
      <path class="st3" d="M86,29.3c0,1.2.2,2.7.3,3.9h0l-1.1-2.4-3.2-5.9h-2.3v11.1h2.1v-4.4c0-1.2-.2-2.6-.3-3.8h0l1.1,2.4,3.2,5.9h2.3v-11.1h-2.1v4.4Z"/>
      <polygon class="st3" points="92.6 31.1 96.4 31.1 96.4 29.3 92.6 29.3 92.6 26.7 97.1 26.7 97.1 24.9 90.4 24.9 90.4 35.9 97.3 35.9 97.3 34.1 92.6 34.1 92.6 31.1"/>
      <path class="st3" d="M108.4,30.3c-.2,1.2-.3,2.3-.5,3.5h0c-.2-1.2-.5-2.4-.7-3.5l-1.3-5.4h-1.9l-1.3,5.4c-.2,1.2-.5,2.3-.7,3.5h0c-.3-2.3-1-6.6-1.4-8.9h-2.3l2.1,11.1h2.7l1.2-5.5c.2-.8.3-1.7.5-2.5h0c.2,1.7,1.3,6.2,1.7,8h2.7l2-11.1h-2.1l-.9,5.4Z"/>
      <path class="st3" d="M119.7,31.4c-.7-1.6-2.9-1.9-4.2-2.6-.9-.3-1.2-1.3-.4-1.9,1.1-.7,2.6-.2,3.5.6l1.1-1.4c-1.7-1.8-5.3-2-6.8.1-1.2,1.8-.1,3.9,1.8,4.6l1.5.6c.7.3,1.7.6,1.7,1.5,0,.9-.8,1.3-1.8,1.3-1,0-2.1-.5-2.8-1.2l-1.3,1.5c1.5,1.5,4.3,2.1,6.2,1.1,1.6-.7,2.3-2.7,1.6-4.3Z"/>
    </g>
    <g>
      <rect class="st0" x="105.4" y="2.4" width="3.2" height="1"/>
      <rect class="st0" x="114.4" y="2.4" width="3.3" height="1"/>
      <g>
        <path class="st0" d="M54,4.1c-.2-.2-.4-.4-.6-.7-.9,1.1-2,2-3.1,2.9h6.3c-.9-.7-1.7-1.5-2.6-2.2Z"/>
        <path class="st3" d="M58,4.3c-1.2-.8-2.3-1.7-3.2-2.7.1-.2.3-.4.4-.6L52.8,0c-2,3.3-5.6,5.6-9.1,7.2.6.5,1.5,1.5,1.9,2.2,1.5-.8,3-1.7,4.4-2.8v2h7v-2c1.2.9,2.6,1.9,3.9,2.5.4-.7,1.2-1.6,1.9-2.2-1.6-.7-3.2-1.6-4.7-2.6ZM50.2,6.4c1.1-.9,2.2-1.8,3.1-2.9,1,1,2.1,2,3.2,2.9h-6.3Z"/>
        <path class="st3" d="M58.5,9.7h-12.3v2.4h10.2c-1.4,1.9-3.1,3.9-4.6,5.7l2.5,1.2c2.2-2.7,4.5-5.7,6.5-8.5l-1.9-.9h-.4Z"/>
      </g>
      <path class="st3" d="M64.6,18.9h2.5v-1.3h8.9v1.3h2.6V1.6h-13.9v17.3ZM67,15.1v-4.5h8.9v4.5h-8.9ZM75.9,4v4.3h-8.9V4h8.9Z"/>
      <g>
        <path class="st0" d="M86.7,6.8c.3-.8.7-1.7.9-2.5h-2.9c.3.6.5,1.5.6,2.1l-1.5.4h3Z"/>
        <path class="st3" d="M82.1,14.8c-.3.6-.6,1.2-1,1.7.4.2,1.2.8,1.6,1.1.7-1.1,1.6-2.8,2-4.1l-1.8-.6c-.2.6-.5,1.3-.8,1.9Z"/>
        <path class="st3" d="M93.8,3.8c1.9-.3,3.9-.8,5.7-1.5l-1.8-1.8c-1.8.8-4.1,1.3-6.1,1.7-.1,3.7.4,9.5-.6,13.1-.4-.8-1-1.9-1.5-2.6l-1.6.9c.5.8,1.2,2.1,1.6,3l1.4-.9c-.2.7-.5,1.4-.9,2,.6.3,1.4.9,1.9,1.4,1.8-2.8,1.9-6.6,2-9.9h1.9v9.8h2.3v-9.8h1.9v-2.2h-6v-3.1Z"/>
        <path class="st3" d="M90.6,12.3v-2h-3.1v-1.5h3.5v-2h-2.1c.3-.7.6-1.4.9-2.2l-1.7-.3h2.6v-1.9h-2.9c-.2-.7-.6-1.5-.9-2.2l-2.4.6c.2.5.4,1,.6,1.6h-3.4v1.9h2.7l-1.7.4c.2.6.5,1.5.6,2.1h-1.9v2h3.9v1.5h-3.7v2h3.7v6.6h2.3v-6.6h3.1ZM85,5.3c-.1-.4-.2-.7-.4-1.1h2.9c-.2.8-.6,1.7-.9,2.5h-3l1.5-.4c0-.3-.1-.6-.3-1Z"/>
      </g>
      <g>
        <rect class="st0" x="105.4" y="4.9" width="3.2" height="1"/>
        <rect class="st0" x="109.9" y="11.8" width="3.1" height=".7"/>
        <rect class="st0" x="114.4" y="4.9" width="3.3" height="1"/>
        <rect class="st0" x="109.9" y="9.8" width="3.1" height=".7"/>
        <rect class="st0" x="109.9" y="13.8" width="3.1" height=".7"/>
        <path class="st3" d="M116.6,16.2v-1.6h-1.4v-4.8h1.2v-1.6h-9.8v1.6h1.2v4.8h-1.6v1.6h6.9v2.2h2.2v-2.2h1.4ZM109.9,11.8h3.1v.7h-3.1v-.7ZM113,9.8v.7h-3.1v-.7h3.1ZM109.9,14.6v-.7h3.1v.7h-3.1Z"/>
        <path class="st3" d="M118.9.8h-6.8v6.7h5.5v9c0,.2,0,.3-.3.3-.4,0-1.2,0-1.6,0,.3.5.6,1.5.6,2.1,1.1,0,2,0,2.8-.4.8-.5.8-1,.8-2,0,0,0-15.7,0-15.7h-1.1ZM117.6,2.4v1h-3.3v-1h3.3ZM114.4,5.9v-1h3.3v1h-3.3Z"/>
        <path class="st3" d="M110.8,7.5V.8h-7.7v18.1h2.3V7.5h5.4ZM105.4,5.9v-1h3.2v1h-3.2ZM108.6,2.4v1h-3.2v-1h3.2Z"/>
      </g>
    </g>
  </g>
  <g>
    <g>
      <polygon class="st3" points="35.6 11.3 9.8 17 30.3 .7 35.6 .7 35.6 11.3"/>
      <polygon class="st3" points="0 .7 0 17 20.5 .7 0 .7"/>
      <polygon class="st4" points="25.8 19.7 0 25.4 0 36.1 5.3 36.1 25.8 19.7"/>
      <polygon class="st4" points="35.5 19.8 15.1 36.1 35.5 36.1 35.5 19.8"/>
    </g>
    <polygon class="st2" points="35.6 11.3 9.8 17 30.3 .7 20.5 .7 0 17 0 25.4 25.8 19.7 5.3 36.1 15.1 36.1 35.5 19.8 35.6 11.3"/>
  </g>
</svg>