<svg width="160" height="80" viewBox="0 0 160 80" fill="none" xmlns="http://www.w3.org/2000/svg">
<path d="M106.949 49.628V31.4434H111.355V49.628H106.949Z" fill="white"/>
<path d="M126.696 40.0479C125.748 39.3348 124.657 38.8356 123.497 38.5848L121.563 38.155C120.995 38.075 120.439 37.9222 119.91 37.7004C119.703 37.6039 119.521 37.4614 119.378 37.2837C119.234 37.1061 119.134 36.898 119.083 36.6755C119.062 36.427 119.113 36.1776 119.23 35.9575C119.348 35.7375 119.526 35.5562 119.745 35.4356C120.309 35.1233 120.943 34.9585 121.588 34.9562C122.227 34.9913 122.843 35.2062 123.365 35.5761C123.794 35.9515 124.116 36.4333 124.299 36.973L124.679 38.0476L127.68 35.2537V35.1876C127.217 34.1515 126.476 33.2643 125.539 32.6252C124.373 31.8447 122.999 31.4355 121.596 31.4515C120.041 31.4173 118.515 31.8711 117.232 32.7492C116.588 33.1867 116.059 33.7741 115.692 34.4609C115.325 35.1476 115.13 35.9133 115.124 36.692C115.118 37.4002 115.262 38.1017 115.547 38.75C115.832 39.3984 116.251 39.9788 116.777 40.4529C117.716 41.1984 118.822 41.7034 120.001 41.9242L122.596 42.5937C123.894 42.883 124.547 43.3128 124.547 43.8832C124.548 44.1381 124.487 44.3895 124.367 44.6146C124.247 44.8397 124.073 45.0314 123.861 45.1726C123.14 45.561 122.321 45.7305 121.505 45.6603C121.024 45.6594 120.545 45.6067 120.075 45.5033C119.633 45.3482 119.228 45.1034 118.885 44.7841C118.543 44.4037 118.264 43.9712 118.058 43.5029L117.794 42.6185V42.5689L114.818 45.3214L114.769 45.371V45.4371C115.256 46.5953 116.033 47.6087 117.025 48.3797C118.432 49.2035 120.032 49.6378 121.662 49.6378C123.292 49.6378 124.893 49.2035 126.299 48.3797C126.988 47.8546 127.543 47.1745 127.919 46.3947C128.295 45.6148 128.482 44.7572 128.465 43.8914C128.483 43.1582 128.333 42.4306 128.027 41.7644C127.72 41.0981 127.265 40.5109 126.696 40.0479Z" fill="white"/>
<path d="M77.2504 31.4351H82.7141L76.7545 49.6197H70.9685L65.0337 31.4351H70.5552L73.0349 40.6514C73.4201 42.0552 73.6964 43.4867 73.8615 44.933C73.9194 44.3544 74.0351 43.627 74.2087 42.7591C74.3822 41.8912 74.5393 41.2052 74.6715 40.7009L77.2504 31.4351Z" fill="white"/>
<path d="M103.511 49.6279H97.0637L90.4511 36.8078H90.3436C90.5007 38.8246 90.5751 40.3621 90.5751 41.4283V49.6279H86.186V31.4433H92.6332L99.2458 44.0899H99.3202C99.2045 42.2549 99.1466 40.7836 99.1466 39.6677V31.4351H103.527L103.511 49.6279Z" fill="white"/>
<path d="M54.4704 44.6849L54.4539 34.08L45.2541 28.7982V23.4668L59.0579 31.4184L59.0744 47.3465L54.4704 44.6849Z" fill="white"/>
<path d="M45.2705 39.395L40.559 36.6921L36.0542 34.0884L31.4667 31.4517V36.7583V47.3797L40.6912 52.7111L45.2705 55.3231V39.395ZM36.0624 44.7264V39.4033L40.6747 42.0649V47.4211L36.0624 44.7264Z" fill="white"/>
<path d="M45.2622 34.0884L49.8166 36.7665L49.8497 42.0317L45.2787 44.7181L40.6664 42.0648L40.5755 36.6921L45.2622 34.0884Z" fill="white"/>
<path d="M45.2622 34.0884L45.2704 39.395L40.6664 42.0648L40.5755 36.6921L45.2622 34.0884Z" fill="white"/>
<path d="M45.2703 39.395L49.8496 42.0318L45.2786 44.7182L40.6663 42.0649L45.2703 39.395Z" fill="white"/>
<path d="M67.0754 52.2231L68.1416 55.05L69.1914 52.2231H69.7617L68.4061 55.5294H67.8358L66.4802 52.2231H67.0754Z" fill="white"/>
<path d="M70.1752 53.1243H70.605V53.4632C70.7176 53.3346 70.8555 53.2305 71.01 53.1573C71.1627 53.0972 71.3253 53.0663 71.4894 53.0664C71.639 53.0493 71.7905 53.0733 71.9274 53.1359C72.0643 53.1986 72.1815 53.2974 72.2664 53.4218C72.3512 53.5966 72.391 53.7898 72.3821 53.9839V55.5379H71.9192V54.05C71.9256 53.9271 71.9 53.8046 71.8448 53.6946C71.802 53.6178 71.7379 53.555 71.6601 53.514C71.5823 53.4729 71.4943 53.4552 71.4068 53.4632C71.3192 53.449 71.2299 53.449 71.1423 53.4632C71.0146 53.4945 70.8994 53.5636 70.8116 53.6615C70.7409 53.7296 70.6896 53.8151 70.6628 53.9095C70.6469 54.0302 70.6469 54.1525 70.6628 54.2732V55.5379H70.2082L70.1752 53.1243Z" fill="white"/>
<path d="M74.7294 53.2232C74.8891 53.2876 75.0288 53.3932 75.1345 53.5291C75.2263 53.657 75.2884 53.8039 75.3163 53.9589C75.348 54.1361 75.3618 54.3161 75.3576 54.4961H73.3904C73.3861 54.7076 73.4531 54.9143 73.5805 55.083C73.6501 55.1617 73.7373 55.2229 73.8349 55.2617C73.9325 55.3005 74.0379 55.3157 74.1426 55.3062C74.2454 55.3116 74.3482 55.296 74.4448 55.2605C74.5414 55.225 74.6298 55.1702 74.7046 55.0995C74.78 55.0162 74.8364 54.9175 74.8699 54.8102H75.3163C75.3008 54.9169 75.2612 55.0187 75.2006 55.1078C75.1396 55.209 75.0645 55.3008 74.9774 55.3806C74.8296 55.5026 74.6533 55.585 74.4649 55.6203C74.3441 55.6337 74.2221 55.6337 74.1012 55.6203C73.7946 55.6225 73.4988 55.5072 73.2747 55.2979C73.1541 55.177 73.0602 55.0321 72.9989 54.8727C72.9377 54.7132 72.9106 54.5427 72.9192 54.3722C72.9132 54.1994 72.9415 54.0271 73.0025 53.8654C73.0635 53.7036 73.156 53.5556 73.2747 53.4299C73.3943 53.3093 73.5375 53.2147 73.6954 53.1521C73.8533 53.0895 74.0224 53.0603 74.1922 53.0662C74.3802 53.0806 74.5632 53.1341 74.7294 53.2232ZM74.8865 54.1655C74.8778 54.0174 74.8354 53.8732 74.7625 53.744C74.6935 53.6457 74.5999 53.5673 74.4912 53.5165C74.3824 53.4658 74.2622 53.4444 74.1426 53.4547C74.0468 53.4514 73.9513 53.4672 73.8617 53.5014C73.7721 53.5355 73.6902 53.5872 73.6209 53.6534C73.5516 53.7197 73.4962 53.7991 73.4581 53.887C73.4199 53.975 73.3997 54.0697 73.3986 54.1655H74.8865Z" fill="white"/>
<path d="M76.0274 52.4463H76.4821V53.1241H76.9284V53.4547H76.4903V55.0335C76.4861 55.0681 76.4936 55.1032 76.5116 55.1331C76.5295 55.1631 76.557 55.1862 76.5895 55.1988C76.6468 55.2108 76.7059 55.2108 76.7631 55.1988H76.9284V55.5211H76.7631H76.5813C76.5018 55.5305 76.4212 55.5221 76.3454 55.4963C76.2696 55.4706 76.2005 55.4282 76.1432 55.3724C76.0663 55.261 76.0285 55.1273 76.0357 54.9921V53.4547H75.6638V53.1241H76.0357L76.0274 52.4463Z" fill="white"/>
<path d="M77.5811 53.124L78.1019 55.0251L78.6309 53.124H79.1434L79.6724 55.0169L80.2344 53.124H80.6891L79.9038 55.5376H79.4079L78.8541 53.6696L78.3251 55.5376H77.8456L77.0687 53.124H77.5811Z" fill="white"/>
<path d="M83.0777 53.3641C83.1998 53.4822 83.2949 53.6254 83.3562 53.7838C83.4176 53.9422 83.4438 54.1121 83.4332 54.2816C83.4462 54.6285 83.3348 54.9685 83.1191 55.2404C82.995 55.3746 82.8418 55.4787 82.6713 55.5446C82.5008 55.6105 82.3175 55.6365 82.1354 55.6207C81.9732 55.6293 81.8109 55.6044 81.6588 55.5475C81.5066 55.4906 81.3678 55.403 81.251 55.29C81.0284 55.041 80.9126 54.7144 80.9286 54.3808C80.9116 54.0267 81.0332 53.6798 81.2675 53.4137C81.3878 53.2916 81.5323 53.1962 81.6918 53.1335C81.8513 53.0709 82.0221 53.0424 82.1933 53.05C82.5167 53.0423 82.8316 53.1541 83.0777 53.3641ZM82.7884 54.9677C82.9028 54.7605 82.9599 54.5265 82.9537 54.2899C82.9641 54.0984 82.9243 53.9074 82.838 53.7361C82.7715 53.625 82.6749 53.5349 82.5593 53.4764C82.4437 53.4179 82.314 53.3933 82.185 53.4055C82.0686 53.3948 81.9514 53.4151 81.8454 53.4645C81.7394 53.5139 81.6484 53.5905 81.5816 53.6865C81.4526 53.8917 81.3865 54.1302 81.3915 54.3725C81.3849 54.6022 81.4515 54.828 81.5816 55.0173C81.6516 55.1063 81.7426 55.1764 81.8466 55.2211C81.9506 55.2659 82.0641 55.2839 82.1768 55.2735C82.2974 55.2871 82.4193 55.2654 82.5279 55.2111C82.6364 55.1568 82.7269 55.0723 82.7884 54.9677Z" fill="white"/>
<path d="M84.0037 53.1242H84.4335V53.5375C84.4988 53.4155 84.5889 53.3085 84.698 53.2234C84.8317 53.1096 85.0019 53.048 85.1775 53.0498H85.3262V53.4797H85.194C85.098 53.4734 85.0019 53.4879 84.912 53.5221C84.8221 53.5563 84.7407 53.6095 84.6732 53.678C84.5522 53.7984 84.4838 53.9619 84.4831 54.1327V55.5378H84.0285L84.0037 53.1242Z" fill="white"/>
<path d="M85.7065 52.2231H86.1446V54.1491L87.3101 53.1241H87.8887L86.8472 54.0499L87.9466 55.5708H87.3597L86.5331 54.3392L86.1612 54.6615V55.5708H85.7231L85.7065 52.2231Z" fill="white"/>
<path d="M89.9221 52.2231H90.4263V55.5294H89.9221V52.2231Z" fill="white"/>
<path d="M91.1866 53.1243H91.6164V53.4632C91.729 53.3346 91.8669 53.2305 92.0214 53.1573C92.1741 53.0972 92.3367 53.0663 92.5008 53.0664C92.6504 53.0493 92.8019 53.0733 92.9388 53.1359C93.0757 53.1986 93.193 53.2974 93.2778 53.4218C93.3626 53.5966 93.4024 53.7898 93.3935 53.9839V55.5379H92.9307V54.05C92.937 53.9271 92.9114 53.8046 92.8563 53.6946C92.8134 53.6178 92.7493 53.555 92.6715 53.514C92.5938 53.4729 92.5058 53.4552 92.4182 53.4632C92.3306 53.449 92.2413 53.449 92.1537 53.4632C92.026 53.4945 91.9108 53.5636 91.823 53.6615C91.7524 53.7296 91.701 53.8151 91.6743 53.9095C91.6583 54.0302 91.6583 54.1525 91.6743 54.2732V55.5379H91.2196L91.1866 53.1243Z" fill="white"/>
<path d="M94.1539 52.4463H94.6168V53.1241H95.0466V53.4547H94.6168V55.0335C94.6133 55.067 94.6201 55.1008 94.6364 55.1304C94.6526 55.1599 94.6775 55.1838 94.7077 55.1988C94.7678 55.2098 94.8295 55.2098 94.8896 55.1988H95.0466V55.5211H94.8813H94.6995C94.6212 55.5305 94.5419 55.5219 94.4674 55.4962C94.393 55.4704 94.3254 55.4281 94.2696 55.3724C94.1898 55.262 94.1491 55.1282 94.1539 54.9921V53.4547H93.7902V53.1241H94.1539V52.4463Z" fill="white"/>
<path d="M97.1791 53.2232C97.3387 53.2876 97.4785 53.3932 97.5841 53.5291C97.676 53.657 97.7381 53.8039 97.766 53.9589C97.7977 54.1361 97.8115 54.3161 97.8073 54.4961H95.8401C95.8358 54.7076 95.9028 54.9143 96.0302 55.083C96.1006 55.1607 96.1879 55.2212 96.2853 55.2599C96.3827 55.2986 96.4877 55.3144 96.5923 55.3062C96.695 55.3116 96.7979 55.296 96.8945 55.2605C96.9911 55.225 97.0795 55.1702 97.1543 55.0995C97.2297 55.0162 97.2861 54.9175 97.3196 54.8102H97.766C97.7505 54.9169 97.7109 55.0187 97.6503 55.1078C97.5893 55.209 97.5142 55.3008 97.4271 55.3806C97.2822 55.5022 97.1087 55.5848 96.9229 55.6203C96.7992 55.6333 96.6746 55.6333 96.5509 55.6203C96.2443 55.6225 95.9485 55.5072 95.7243 55.2979C95.6052 55.1763 95.5129 55.0311 95.4531 54.8717C95.3933 54.7123 95.3674 54.5421 95.3772 54.3722C95.3696 54.1999 95.3963 54.0279 95.4559 53.8661C95.5155 53.7043 95.6068 53.556 95.7243 53.4299C95.8439 53.3093 95.9872 53.2147 96.1451 53.1521C96.303 53.0895 96.4721 53.0603 96.6418 53.0662C96.8299 53.0806 97.0129 53.1341 97.1791 53.2232ZM97.3362 54.1655C97.3274 54.0174 97.285 53.8732 97.2122 53.744C97.1432 53.6457 97.0496 53.5673 96.9408 53.5165C96.8321 53.4658 96.7119 53.4444 96.5923 53.4547C96.4964 53.4514 96.4009 53.4672 96.3114 53.5014C96.2218 53.5355 96.1399 53.5872 96.0706 53.6534C96.0013 53.7197 95.9459 53.7991 95.9078 53.887C95.8696 53.975 95.8494 54.0697 95.8483 54.1655H97.3362Z" fill="white"/>
<path d="M98.4191 53.1243H98.8489V53.5376C98.9161 53.4215 99.0061 53.3203 99.1134 53.24C99.2471 53.1262 99.4173 53.0646 99.5929 53.0664H99.7416V53.4963H99.5846C99.4886 53.49 99.3925 53.5045 99.3026 53.5387C99.2128 53.5729 99.1313 53.6261 99.0639 53.6946C98.9428 53.815 98.8744 53.9785 98.8737 54.1493V55.5379H98.4191V53.1243Z" fill="white"/>
<path d="M100.072 53.1243H100.51V53.4632C100.621 53.3327 100.76 53.2283 100.915 53.1573C101.068 53.0956 101.231 53.0647 101.395 53.0664C101.544 53.0493 101.696 53.0733 101.833 53.1359C101.97 53.1986 102.087 53.2974 102.172 53.4218C102.253 53.5975 102.29 53.7906 102.279 53.9839V55.5379H101.816V54.05C101.823 53.9271 101.797 53.8046 101.742 53.6946C101.701 53.6163 101.637 53.5523 101.559 53.511C101.481 53.4697 101.392 53.453 101.304 53.4632C101.216 53.449 101.127 53.449 101.039 53.4632C100.913 53.4983 100.799 53.5669 100.709 53.6615C100.638 53.7296 100.587 53.8151 100.56 53.9095C100.548 54.0305 100.548 54.1523 100.56 54.2732V55.5379H100.072V53.1243Z" fill="white"/>
<path d="M104.66 53.2234C104.822 53.2875 104.964 53.393 105.073 53.5292C105.165 53.6571 105.227 53.804 105.255 53.959C105.272 54.1377 105.272 54.3176 105.255 54.4963H103.321C103.319 54.7087 103.389 54.9155 103.519 55.0831C103.587 55.1612 103.673 55.222 103.769 55.2608C103.865 55.2996 103.969 55.3152 104.073 55.3063C104.234 55.3241 104.397 55.2841 104.532 55.1933C104.666 55.1024 104.764 54.9668 104.808 54.8104H105.255C105.236 54.9161 105.197 55.0172 105.139 55.1079C105.078 55.2091 105.003 55.301 104.916 55.3807C104.768 55.5027 104.592 55.5852 104.403 55.6204C104.28 55.6344 104.155 55.6344 104.031 55.6204C103.868 55.6281 103.704 55.6007 103.552 55.54C103.4 55.4793 103.262 55.3868 103.149 55.2685C103.035 55.1503 102.948 55.0092 102.894 54.8546C102.839 54.7 102.819 54.5356 102.833 54.3723C102.825 54.1993 102.852 54.0265 102.913 53.8645C102.975 53.7025 103.068 53.5546 103.188 53.43C103.308 53.309 103.451 53.2141 103.609 53.1515C103.767 53.0889 103.936 53.0599 104.106 53.0663C104.3 53.0771 104.489 53.1307 104.66 53.2234ZM104.825 54.1656C104.814 54.0169 104.768 53.8726 104.693 53.7441C104.624 53.6458 104.53 53.5674 104.421 53.5167C104.313 53.4659 104.192 53.4446 104.073 53.4548C103.977 53.4515 103.881 53.4674 103.792 53.5015C103.702 53.5356 103.62 53.5873 103.551 53.6536C103.482 53.7198 103.426 53.7992 103.388 53.8872C103.35 53.9751 103.33 54.0698 103.329 54.1656H104.825Z" fill="white"/>
<path d="M105.958 52.4463H106.421V53.1241H106.85V53.4547H106.421V55.0335C106.416 55.0681 106.424 55.1032 106.442 55.1331C106.46 55.1631 106.487 55.1862 106.52 55.1988C106.577 55.2108 106.636 55.2108 106.693 55.1988H106.85V55.5211H106.685H106.503C106.425 55.5305 106.346 55.5219 106.271 55.4962C106.197 55.4704 106.129 55.4281 106.073 55.3724C105.994 55.262 105.953 55.1282 105.958 54.9921V53.4547H105.594V53.1241H105.958V52.4463Z" fill="white"/>
<path d="M109.165 54.4713C109.174 54.6333 109.225 54.7901 109.313 54.926C109.415 55.0427 109.543 55.1336 109.687 55.1911C109.831 55.2486 109.986 55.271 110.14 55.2566C110.308 55.2587 110.476 55.2335 110.636 55.1822C110.925 55.0913 111.066 54.926 111.066 54.6862C111.074 54.6111 111.061 54.5351 111.029 54.4666C110.997 54.3981 110.947 54.3397 110.884 54.2978C110.702 54.2024 110.507 54.1355 110.305 54.0994L109.818 54.0002C109.581 53.9632 109.352 53.8878 109.14 53.777C109.029 53.7174 108.937 53.6275 108.876 53.5176C108.814 53.4078 108.786 53.2827 108.793 53.1571C108.791 53.0101 108.824 52.8648 108.889 52.7327C108.953 52.6007 109.048 52.4856 109.165 52.3966C109.441 52.192 109.781 52.0924 110.124 52.1156C110.46 52.1057 110.793 52.1917 111.082 52.3636C111.218 52.4519 111.326 52.5757 111.396 52.7214C111.466 52.8672 111.495 53.0293 111.479 53.1901H111.008C110.994 53.0407 110.94 52.8978 110.851 52.7769C110.754 52.6812 110.637 52.6085 110.508 52.5641C110.379 52.5198 110.242 52.5049 110.107 52.5206C109.89 52.4975 109.671 52.5565 109.495 52.6859C109.437 52.7325 109.389 52.7916 109.356 52.8588C109.324 52.926 109.306 52.9996 109.305 53.0744C109.302 53.1493 109.322 53.2232 109.362 53.2866C109.402 53.35 109.46 53.4 109.528 53.4299C109.739 53.5127 109.958 53.5736 110.181 53.6117L110.686 53.7192C110.884 53.7513 111.075 53.8215 111.248 53.9258C111.359 53.9989 111.45 54.0998 111.511 54.2187C111.572 54.3375 111.601 54.4702 111.595 54.6036C111.614 54.7695 111.582 54.9373 111.504 55.0848C111.426 55.2324 111.305 55.3528 111.157 55.4302C110.843 55.5925 110.494 55.6748 110.14 55.6699C109.762 55.6895 109.388 55.5786 109.082 55.3558C108.961 55.2553 108.864 55.1289 108.798 54.9858C108.732 54.8427 108.699 54.6867 108.702 54.5292L109.165 54.4713Z" fill="white"/>
<path d="M113.876 53.2235C114.036 53.2879 114.175 53.3934 114.281 53.5293C114.373 53.6572 114.435 53.8041 114.463 53.9591C114.481 54.1377 114.481 54.3177 114.463 54.4964H112.537C112.533 54.7078 112.6 54.9145 112.727 55.0832C112.798 55.1609 112.885 55.2214 112.982 55.2601C113.08 55.2988 113.185 55.3146 113.289 55.3064C113.392 55.3118 113.495 55.2963 113.591 55.2608C113.688 55.2252 113.776 55.1705 113.851 55.0998C113.927 55.0164 113.983 54.9177 114.017 54.8105H114.463C114.447 54.9172 114.408 55.0189 114.347 55.108C114.286 55.2092 114.211 55.3011 114.124 55.3808C113.979 55.5025 113.806 55.585 113.62 55.6205C113.496 55.6339 113.372 55.6339 113.248 55.6205C112.941 55.6228 112.645 55.5074 112.421 55.2982C112.302 55.1765 112.21 55.0313 112.15 54.8719C112.09 54.7125 112.064 54.5424 112.074 54.3724C112.067 54.2001 112.093 54.0281 112.153 53.8663C112.212 53.7045 112.304 53.5562 112.421 53.4301C112.654 53.1983 112.969 53.0676 113.297 53.0664C113.5 53.0738 113.698 53.1275 113.876 53.2235ZM114.033 54.1657C114.024 54.0176 113.982 53.8735 113.909 53.7442C113.84 53.646 113.747 53.5675 113.638 53.5168C113.529 53.466 113.409 53.4447 113.289 53.4549C113.193 53.4516 113.098 53.4675 113.008 53.5016C112.919 53.5357 112.837 53.5874 112.768 53.6537C112.698 53.7199 112.643 53.7993 112.605 53.8873C112.567 53.9752 112.546 54.0699 112.545 54.1657H114.033Z" fill="white"/>
<path d="M116.868 53.2235C116.971 53.3067 117.056 53.4109 117.116 53.5292C117.175 53.6475 117.209 53.7772 117.215 53.9096H116.769C116.75 53.7693 116.686 53.639 116.587 53.5376C116.524 53.4829 116.45 53.4416 116.371 53.416C116.291 53.3904 116.207 53.3812 116.124 53.3889C115.994 53.3813 115.865 53.4137 115.755 53.4817C115.644 53.5497 115.556 53.65 115.504 53.7691C115.416 53.9578 115.374 54.1644 115.38 54.3725C115.372 54.5896 115.433 54.8038 115.554 54.9841C115.615 55.0676 115.697 55.1341 115.791 55.1774C115.885 55.2208 115.988 55.2396 116.091 55.2321C116.256 55.2402 116.418 55.1872 116.546 55.0833C116.66 54.9678 116.738 54.8212 116.769 54.6618H117.215C117.203 54.7985 117.162 54.9312 117.097 55.052C117.032 55.1727 116.943 55.279 116.835 55.3644C116.607 55.5212 116.334 55.5996 116.058 55.5875C115.903 55.5926 115.75 55.5642 115.607 55.5043C115.464 55.4444 115.336 55.3544 115.232 55.2404C115.024 55.0149 114.909 54.72 114.909 54.4138C114.899 54.2338 114.924 54.0535 114.984 53.8833C115.044 53.7131 115.136 53.5563 115.256 53.4219C115.371 53.3041 115.508 53.2116 115.661 53.1504C115.813 53.0892 115.977 53.0606 116.141 53.0665C116.393 53.0452 116.647 53.0999 116.868 53.2235Z" fill="white"/>
<path d="M118.124 53.1244V54.728C118.121 54.8312 118.144 54.9335 118.191 55.0256C118.234 55.1016 118.298 55.1632 118.376 55.2029C118.454 55.2426 118.542 55.2585 118.629 55.2487C118.76 55.2593 118.891 55.2282 119.004 55.16C119.117 55.0917 119.205 54.9898 119.257 54.8685C119.327 54.6899 119.358 54.4982 119.348 54.3064V53.1244H119.811V55.538H119.373V55.1826C119.314 55.2711 119.242 55.3493 119.158 55.4141C118.977 55.5418 118.759 55.6084 118.538 55.6042C118.389 55.6222 118.238 55.5994 118.101 55.5383C117.964 55.4771 117.847 55.3799 117.761 55.257C117.681 55.1043 117.644 54.933 117.653 54.7611V53.1079L118.124 53.1244Z" fill="white"/>
<path d="M120.563 53.1243H120.993V53.5376C121.06 53.4215 121.15 53.3203 121.257 53.24C121.391 53.1262 121.561 53.0646 121.737 53.0664H121.877V53.4963H121.729C121.631 53.4904 121.534 53.505 121.443 53.5392C121.352 53.5734 121.269 53.6263 121.2 53.6946C121.141 53.7547 121.094 53.8257 121.063 53.9038C121.032 53.9818 121.016 54.0652 121.018 54.1493V55.5379H120.563V53.1243Z" fill="white"/>
<path d="M122.274 52.2231H122.737V52.686H122.274V52.2231ZM122.274 53.1324H122.737V55.5377H122.274V53.1324Z" fill="white"/>
<path d="M123.514 52.4463H123.977V53.1241H124.407V53.4547H123.977V55.0335C123.973 55.0681 123.98 55.1032 123.998 55.1331C124.016 55.1631 124.043 55.1862 124.076 55.1988C124.133 55.2108 124.192 55.2108 124.249 55.1988H124.407V55.5211H124.249H124.043C123.965 55.5305 123.885 55.5219 123.811 55.4962C123.736 55.4704 123.669 55.4281 123.613 55.3724C123.533 55.262 123.492 55.1282 123.497 54.9921V53.4547H123.134V53.1241H123.497L123.514 52.4463Z" fill="white"/>
<path d="M126.523 53.124H127.027C126.961 53.2728 126.82 53.6282 126.597 54.182C126.432 54.5953 126.299 54.9342 126.184 55.1987C126.036 55.5907 125.851 55.9672 125.63 56.3229C125.56 56.3979 125.474 56.4556 125.377 56.4915C125.281 56.5274 125.178 56.5404 125.076 56.5295H124.927H124.869V56.1575L125.043 56.1989H125.134C125.196 56.2157 125.262 56.2157 125.324 56.1989C125.363 56.1752 125.396 56.1443 125.423 56.108L125.514 55.9261C125.564 55.8104 125.605 55.7277 125.63 55.6781L124.63 53.1984H125.142L125.87 55.1657L126.523 53.124Z" fill="white"/>
</svg>
